<svg width="244" height="80" viewBox="0 0 244 80" fill="none" xmlns="http://www.w3.org/2000/svg">
<rect y="0.000244141" width="243.353" height="80" rx="8" fill="black"/>
<path d="M54.2992 16.0002H25.6948C20.3375 16.0002 16 20.3382 16 25.6962V54.3102C16 59.6622 20.3375 64.0002 25.6948 64.0002H54.3052C59.6565 64.0002 64 59.6622 64 54.3042V25.6962C63.994 20.3382 59.6565 16.0002 54.2992 16.0002Z" fill="url(#paint0_linear_1148_8454)"/>
<path d="M39.793 27.0282L40.7649 25.3482C41.3648 24.2982 42.7027 23.9442 43.7525 24.5442C44.8024 25.1442 45.1564 26.4822 44.5564 27.5322L35.1916 43.7442H41.9648C44.1605 43.7442 45.3903 46.3242 44.4364 48.1122H24.5789C23.3671 48.1122 22.3952 47.1402 22.3952 45.9282C22.3952 44.7162 23.3671 43.7442 24.5789 43.7442H30.1462L37.2733 31.3902L35.0476 27.5262C34.4477 26.4762 34.8017 25.1502 35.8515 24.5382C36.9014 23.9382 38.2272 24.2922 38.8392 25.3422L39.793 27.0282ZM31.3701 50.3622L29.2703 54.0042C28.6704 55.0542 27.3326 55.4082 26.2827 54.8082C25.2329 54.2082 24.8789 52.8702 25.4788 51.8202L27.0386 49.1202C28.8024 48.5742 30.2362 48.9942 31.3701 50.3622ZM49.4518 43.7562H55.1331C56.345 43.7562 57.3168 44.7282 57.3168 45.9402C57.3168 47.1522 56.345 48.1242 55.1331 48.1242H51.9775L54.1072 51.8202C54.7072 52.8702 54.3532 54.1962 53.3033 54.8082C52.2535 55.4082 50.9276 55.0542 50.3157 54.0042C46.7282 47.7822 44.0345 43.1262 42.2467 40.0242C40.417 36.8682 41.7248 33.7002 43.0146 32.6262C44.4484 35.0862 46.5902 38.8002 49.4518 43.7562Z" fill="white"/>
<path d="M89.036 19.8269C89.036 18.8549 88.85 18.0689 88.478 17.4689C88.118 16.8689 87.626 16.4309 87.002 16.1549C86.39 15.8669 85.706 15.7229 84.95 15.7229C84.614 15.7229 84.314 15.7349 84.05 15.7589C83.786 15.7709 83.54 15.8009 83.312 15.8489V23.9489C83.564 24.0209 83.84 24.0689 84.14 24.0929C84.452 24.1049 84.764 24.1109 85.076 24.1109C86.36 24.1109 87.338 23.7509 88.01 23.0309C88.694 22.3109 89.036 21.2429 89.036 19.8269ZM90.89 19.8089C90.89 21.1169 90.65 22.2029 90.17 23.0669C89.69 23.9189 89.012 24.5549 88.136 24.9749C87.272 25.3949 86.252 25.6049 85.076 25.6049C84.704 25.6049 84.26 25.5869 83.744 25.5509C83.24 25.5149 82.766 25.4249 82.322 25.2809C81.782 25.1129 81.512 24.8069 81.512 24.3629V15.2729C81.512 15.0689 81.566 14.9129 81.674 14.8049C81.794 14.6969 81.95 14.6129 82.142 14.5529C82.55 14.4209 82.994 14.3369 83.474 14.3009C83.966 14.2529 84.446 14.2289 84.914 14.2289C86.102 14.2289 87.14 14.4389 88.028 14.8589C88.928 15.2669 89.63 15.8849 90.134 16.7129C90.638 17.5289 90.89 18.5609 90.89 19.8089ZM101.082 21.1949C101.082 22.0949 100.908 22.8809 100.56 23.5529C100.212 24.2129 99.7201 24.7289 99.0841 25.1009C98.4601 25.4609 97.7221 25.6409 96.8701 25.6409C96.0181 25.6409 95.2741 25.4609 94.6381 25.1009C94.0021 24.7289 93.5101 24.2129 93.1621 23.5529C92.8141 22.8809 92.6401 22.0949 92.6401 21.1949C92.6401 20.2829 92.8141 19.4969 93.1621 18.8369C93.5221 18.1649 94.0201 17.6489 94.6561 17.2889C95.2921 16.9289 96.0301 16.7489 96.8701 16.7489C97.7101 16.7489 98.4421 16.9349 99.0661 17.3069C99.7021 17.6669 100.194 18.1769 100.542 18.8369C100.902 19.4969 101.082 20.2829 101.082 21.1949ZM96.8701 18.1709C96.1261 18.1709 95.5381 18.4409 95.1061 18.9809C94.6741 19.5089 94.4581 20.2469 94.4581 21.1949C94.4581 22.1429 94.6681 22.8809 95.0881 23.4089C95.5201 23.9369 96.1141 24.2009 96.8701 24.2009C97.6261 24.2009 98.2141 23.9369 98.6341 23.4089C99.0661 22.8689 99.2821 22.1309 99.2821 21.1949C99.2821 20.2469 99.0661 19.5089 98.6341 18.9809C98.2141 18.4409 97.6261 18.1709 96.8701 18.1709ZM108.511 19.4489C108.319 20.1689 108.103 20.8949 107.863 21.6269C107.635 22.3469 107.413 23.0249 107.197 23.6609C106.981 24.2849 106.789 24.8189 106.621 25.2629C106.513 25.3349 106.381 25.3949 106.225 25.4429C106.069 25.4909 105.871 25.5149 105.631 25.5149C105.379 25.5149 105.151 25.4729 104.947 25.3889C104.755 25.3049 104.623 25.1849 104.551 25.0289C104.431 24.7889 104.293 24.4409 104.137 23.9849C103.993 23.5289 103.843 23.0129 103.687 22.4369C103.531 21.8489 103.369 21.2429 103.201 20.6189C103.045 19.9829 102.901 19.3709 102.769 18.7829C102.637 18.1949 102.529 17.6729 102.445 17.2169C102.541 17.1209 102.667 17.0309 102.823 16.9469C102.979 16.8629 103.165 16.8209 103.381 16.8209C103.645 16.8209 103.849 16.8929 103.993 17.0369C104.137 17.1689 104.239 17.3909 104.299 17.7029C104.407 18.2909 104.521 18.9029 104.641 19.5389C104.773 20.1629 104.905 20.7629 105.037 21.3389C105.169 21.9029 105.289 22.4069 105.397 22.8509C105.505 23.2829 105.583 23.6069 105.631 23.8229H105.703C105.787 23.5469 105.925 23.0909 106.117 22.4549C106.309 21.8189 106.537 21.0989 106.801 20.2949C107.065 19.4789 107.329 18.6509 107.593 17.8109C107.713 17.7389 107.851 17.6849 108.007 17.6489C108.163 17.6009 108.337 17.5769 108.529 17.5769C108.781 17.5769 108.991 17.6249 109.159 17.7209C109.339 17.8049 109.459 17.9369 109.519 18.1169C109.783 18.9209 110.029 19.7069 110.257 20.4749C110.497 21.2429 110.707 21.9269 110.887 22.5269C111.067 23.1149 111.199 23.5529 111.283 23.8409H111.373C111.613 22.7969 111.877 21.6869 112.165 20.5109C112.453 19.3349 112.687 18.1709 112.867 17.0189C113.083 16.8869 113.341 16.8209 113.641 16.8209C113.881 16.8209 114.079 16.8809 114.235 17.0009C114.391 17.1089 114.469 17.2889 114.469 17.5409C114.469 17.6849 114.427 17.9429 114.343 18.3149C114.271 18.6869 114.169 19.1249 114.037 19.6289C113.917 20.1209 113.779 20.6489 113.623 21.2129C113.479 21.7769 113.323 22.3229 113.155 22.8509C112.999 23.3669 112.849 23.8409 112.705 24.2729C112.561 24.6929 112.441 25.0229 112.345 25.2629C112.261 25.3229 112.129 25.3769 111.949 25.4249C111.769 25.4849 111.565 25.5149 111.337 25.5149C110.749 25.5149 110.401 25.3709 110.293 25.0829C110.137 24.6869 109.957 24.1829 109.753 23.5709C109.549 22.9589 109.339 22.2989 109.123 21.5909C108.919 20.8709 108.715 20.1569 108.511 19.4489ZM123.887 19.8629V21.6629H122.123V19.9529C122.123 19.3409 121.949 18.8909 121.601 18.6029C121.253 18.3149 120.791 18.1709 120.215 18.1709C119.783 18.1709 119.393 18.2249 119.045 18.3329C118.709 18.4409 118.415 18.5669 118.163 18.7109V21.6629H116.399V18.6929C116.399 18.4289 116.453 18.2129 116.561 18.0449C116.681 17.8649 116.861 17.6969 117.101 17.5409C117.437 17.3369 117.875 17.1569 118.415 17.0009C118.955 16.8329 119.555 16.7489 120.215 16.7489C121.367 16.7489 122.267 17.0069 122.915 17.5229C123.563 18.0389 123.887 18.8189 123.887 19.8629ZM116.399 20.7269H118.163V25.3529C118.091 25.3769 117.983 25.4069 117.839 25.4429C117.695 25.4789 117.539 25.4969 117.371 25.4969C117.047 25.4969 116.801 25.4369 116.633 25.3169C116.477 25.1849 116.399 24.9749 116.399 24.6869V20.7269ZM122.123 20.7269H123.887V25.3529C123.815 25.3769 123.701 25.4069 123.545 25.4429C123.401 25.4789 123.245 25.4969 123.077 25.4969C122.753 25.4969 122.513 25.4369 122.357 25.3169C122.201 25.1849 122.123 24.9749 122.123 24.6869V20.7269ZM126.562 20.6369L128.326 20.8169V25.3529C128.254 25.3769 128.14 25.4069 127.984 25.4429C127.84 25.4789 127.684 25.4969 127.516 25.4969C127.192 25.4969 126.952 25.4369 126.796 25.3169C126.64 25.1849 126.562 24.9749 126.562 24.6869V20.6369ZM128.326 21.6809L126.562 21.5189V13.7069C126.634 13.6829 126.742 13.6589 126.886 13.6349C127.042 13.5989 127.204 13.5809 127.372 13.5809C127.696 13.5809 127.936 13.6409 128.092 13.7609C128.248 13.8809 128.326 14.0909 128.326 14.3909V21.6809ZM138.981 21.1949C138.981 22.0949 138.807 22.8809 138.459 23.5529C138.111 24.2129 137.619 24.7289 136.983 25.1009C136.359 25.4609 135.621 25.6409 134.769 25.6409C133.917 25.6409 133.173 25.4609 132.537 25.1009C131.901 24.7289 131.409 24.2129 131.061 23.5529C130.713 22.8809 130.539 22.0949 130.539 21.1949C130.539 20.2829 130.713 19.4969 131.061 18.8369C131.421 18.1649 131.919 17.6489 132.555 17.2889C133.191 16.9289 133.929 16.7489 134.769 16.7489C135.609 16.7489 136.341 16.9349 136.965 17.3069C137.601 17.6669 138.093 18.1769 138.441 18.8369C138.801 19.4969 138.981 20.2829 138.981 21.1949ZM134.769 18.1709C134.025 18.1709 133.437 18.4409 133.005 18.9809C132.573 19.5089 132.357 20.2469 132.357 21.1949C132.357 22.1429 132.567 22.8809 132.987 23.4089C133.419 23.9369 134.013 24.2009 134.769 24.2009C135.525 24.2009 136.113 23.9369 136.533 23.4089C136.965 22.8689 137.181 22.1309 137.181 21.1949C137.181 20.2469 136.965 19.5089 136.533 18.9809C136.113 18.4409 135.525 18.1709 134.769 18.1709ZM144.228 24.2549C144.672 24.2549 145.05 24.2129 145.362 24.1289C145.674 24.0329 145.902 23.9369 146.046 23.8409V21.4649L143.994 21.6809C143.43 21.7169 143.004 21.8429 142.716 22.0589C142.44 22.2629 142.302 22.5629 142.302 22.9589C142.302 23.3549 142.458 23.6729 142.77 23.9129C143.094 24.1409 143.58 24.2549 144.228 24.2549ZM144.192 16.7489C145.284 16.7489 146.154 16.9889 146.802 17.4689C147.45 17.9489 147.774 18.7049 147.774 19.7369V23.9489C147.774 24.2249 147.714 24.4409 147.594 24.5969C147.474 24.7409 147.312 24.8789 147.108 25.0109C146.796 25.1789 146.394 25.3229 145.902 25.4429C145.41 25.5749 144.852 25.6409 144.228 25.6409C143.076 25.6409 142.176 25.4189 141.528 24.9749C140.88 24.5189 140.556 23.8589 140.556 22.9949C140.556 22.2029 140.814 21.5969 141.33 21.1769C141.846 20.7569 142.578 20.4989 143.526 20.4029L146.046 20.1509V19.7369C146.046 19.1849 145.866 18.7829 145.506 18.5309C145.158 18.2789 144.684 18.1529 144.084 18.1529C143.604 18.1529 143.136 18.2189 142.68 18.3509C142.236 18.4829 141.84 18.6389 141.492 18.8189C141.384 18.7229 141.288 18.6089 141.204 18.4769C141.12 18.3449 141.078 18.2069 141.078 18.0629C141.078 17.6909 141.282 17.4149 141.69 17.2349C142.014 17.0789 142.392 16.9589 142.824 16.8749C143.268 16.7909 143.724 16.7489 144.192 16.7489ZM155.907 23.7869V17.9009L157.653 17.8829V23.9129C157.653 24.1529 157.599 24.3509 157.491 24.5069C157.395 24.6629 157.233 24.8069 157.005 24.9389C156.741 25.1069 156.375 25.2629 155.907 25.4069C155.439 25.5629 154.905 25.6409 154.305 25.6409C153.405 25.6409 152.613 25.4849 151.929 25.1729C151.257 24.8609 150.729 24.3809 150.345 23.7329C149.973 23.0729 149.787 22.2389 149.787 21.2309C149.787 20.1749 149.973 19.3229 150.345 18.6749C150.729 18.0149 151.239 17.5289 151.875 17.2169C152.511 16.9049 153.213 16.7489 153.981 16.7489C154.449 16.7489 154.881 16.8089 155.277 16.9289C155.673 17.0489 155.985 17.1989 156.213 17.3789V18.9449C156.009 18.7289 155.733 18.5489 155.385 18.4049C155.049 18.2489 154.653 18.1709 154.197 18.1709C153.717 18.1709 153.279 18.2729 152.883 18.4769C152.487 18.6809 152.169 19.0109 151.929 19.4669C151.701 19.9109 151.587 20.5049 151.587 21.2489C151.587 22.2809 151.833 23.0309 152.325 23.4989C152.817 23.9669 153.471 24.2009 154.287 24.2009C154.671 24.2009 154.989 24.1589 155.241 24.0749C155.493 23.9909 155.715 23.8949 155.907 23.7869ZM157.653 18.2789L155.889 18.2969V13.7069C155.973 13.6829 156.087 13.6589 156.231 13.6349C156.387 13.5989 156.543 13.5809 156.699 13.5809C157.035 13.5809 157.275 13.6409 157.419 13.7609C157.575 13.8809 157.653 14.0909 157.653 14.3909V18.2789ZM173.258 21.1949C173.258 22.0949 173.084 22.8809 172.736 23.5529C172.388 24.2129 171.896 24.7289 171.26 25.1009C170.636 25.4609 169.898 25.6409 169.046 25.6409C168.194 25.6409 167.45 25.4609 166.814 25.1009C166.178 24.7289 165.686 24.2129 165.338 23.5529C164.99 22.8809 164.816 22.0949 164.816 21.1949C164.816 20.2829 164.99 19.4969 165.338 18.8369C165.698 18.1649 166.196 17.6489 166.832 17.2889C167.468 16.9289 168.206 16.7489 169.046 16.7489C169.886 16.7489 170.618 16.9349 171.242 17.3069C171.878 17.6669 172.37 18.1769 172.718 18.8369C173.078 19.4969 173.258 20.2829 173.258 21.1949ZM169.046 18.1709C168.302 18.1709 167.714 18.4409 167.282 18.9809C166.85 19.5089 166.634 20.2469 166.634 21.1949C166.634 22.1429 166.844 22.8809 167.264 23.4089C167.696 23.9369 168.29 24.2009 169.046 24.2009C169.802 24.2009 170.39 23.9369 170.81 23.4089C171.242 22.8689 171.458 22.1309 171.458 21.1949C171.458 20.2469 171.242 19.5089 170.81 18.9809C170.39 18.4409 169.802 18.1709 169.046 18.1709ZM182.826 19.8629V21.6629H181.062V19.9529C181.062 19.3409 180.888 18.8909 180.54 18.6029C180.192 18.3149 179.73 18.1709 179.154 18.1709C178.722 18.1709 178.332 18.2249 177.984 18.3329C177.648 18.4409 177.354 18.5669 177.102 18.7109V21.6629H175.338V18.6929C175.338 18.4289 175.392 18.2129 175.5 18.0449C175.62 17.8649 175.8 17.6969 176.04 17.5409C176.376 17.3369 176.814 17.1569 177.354 17.0009C177.894 16.8329 178.494 16.7489 179.154 16.7489C180.306 16.7489 181.206 17.0069 181.854 17.5229C182.502 18.0389 182.826 18.8189 182.826 19.8629ZM175.338 20.7269H177.102V25.3529C177.03 25.3769 176.922 25.4069 176.778 25.4429C176.634 25.4789 176.478 25.4969 176.31 25.4969C175.986 25.4969 175.74 25.4369 175.572 25.3169C175.416 25.1849 175.338 24.9749 175.338 24.6869V20.7269ZM181.062 20.7269H182.826V25.3529C182.754 25.3769 182.64 25.4069 182.484 25.4429C182.34 25.4789 182.184 25.4969 182.016 25.4969C181.692 25.4969 181.452 25.4369 181.296 25.3169C181.14 25.1849 181.062 24.9749 181.062 24.6869V20.7269ZM190.439 20.6369H192.185V22.9769C192.185 23.4209 192.317 23.7389 192.581 23.9309C192.845 24.1109 193.205 24.2009 193.661 24.2009C193.853 24.2009 194.069 24.1709 194.309 24.1109C194.549 24.0389 194.753 23.9609 194.921 23.8769C194.993 23.9609 195.059 24.0629 195.119 24.1829C195.191 24.3029 195.227 24.4409 195.227 24.5969C195.227 24.8969 195.065 25.1429 194.741 25.3349C194.429 25.5269 193.967 25.6229 193.355 25.6229C192.467 25.6229 191.759 25.4309 191.231 25.0469C190.703 24.6509 190.439 23.9969 190.439 23.0849V20.6369ZM191.411 18.5849V17.1629H195.029C195.065 17.2349 195.101 17.3369 195.137 17.4689C195.185 17.5889 195.209 17.7209 195.209 17.8649C195.209 18.1049 195.149 18.2849 195.029 18.4049C194.921 18.5249 194.771 18.5849 194.579 18.5849H191.411ZM192.185 21.1589H190.439V14.6429C190.511 14.6189 190.619 14.5949 190.763 14.5709C190.919 14.5349 191.081 14.5169 191.249 14.5169C191.573 14.5169 191.807 14.5769 191.951 14.6969C192.107 14.8169 192.185 15.0269 192.185 15.3269V21.1589ZM204.694 21.7889H202.93V20.1329C202.93 19.4609 202.744 18.9689 202.372 18.6569C202 18.3329 201.526 18.1709 200.95 18.1709C200.506 18.1709 200.092 18.2609 199.708 18.4409C199.336 18.6089 199.018 18.8069 198.754 19.0349L198.538 17.6129C198.826 17.4209 199.198 17.2289 199.654 17.0369C200.11 16.8449 200.632 16.7489 201.22 16.7489C202.252 16.7489 203.086 17.0249 203.722 17.5769C204.37 18.1289 204.694 18.9629 204.694 20.0789V21.7889ZM197.224 20.6369H198.988V25.3529C198.916 25.3769 198.808 25.4069 198.664 25.4429C198.52 25.4789 198.364 25.4969 198.196 25.4969C197.872 25.4969 197.626 25.4369 197.458 25.3169C197.302 25.1849 197.224 24.9749 197.224 24.6869V20.6369ZM202.93 20.6549L204.694 20.6729V25.3529C204.622 25.3769 204.508 25.4069 204.352 25.4429C204.208 25.4789 204.052 25.4969 203.884 25.4969C203.56 25.4969 203.32 25.4369 203.164 25.3169C203.008 25.1849 202.93 24.9749 202.93 24.6869V20.6549ZM198.988 21.5189H197.224V13.7069C197.308 13.6829 197.422 13.6589 197.566 13.6349C197.722 13.5989 197.884 13.5809 198.052 13.5809C198.376 13.5809 198.61 13.6409 198.754 13.7609C198.91 13.8809 198.988 14.0909 198.988 14.3909V21.5189ZM207.945 22.2029L207.873 20.8889L213.039 20.1509C213.003 19.5749 212.799 19.0949 212.427 18.7109C212.055 18.3269 211.539 18.1349 210.879 18.1349C210.183 18.1349 209.607 18.3809 209.151 18.8729C208.707 19.3529 208.479 20.0489 208.467 20.9609L208.485 21.5909C208.581 22.4669 208.887 23.1269 209.403 23.5709C209.931 24.0029 210.627 24.2189 211.491 24.2189C211.995 24.2189 212.457 24.1409 212.877 23.9849C213.297 23.8289 213.627 23.6549 213.867 23.4629C214.011 23.5589 214.125 23.6729 214.209 23.8049C214.305 23.9369 214.353 24.0869 214.353 24.2549C214.353 24.5189 214.221 24.7589 213.957 24.9749C213.693 25.1789 213.339 25.3409 212.895 25.4609C212.451 25.5809 211.947 25.6409 211.383 25.6409C210.459 25.6409 209.649 25.4729 208.953 25.1369C208.269 24.7889 207.735 24.2789 207.351 23.6069C206.967 22.9349 206.775 22.1069 206.775 21.1229C206.775 20.4149 206.877 19.7909 207.081 19.2509C207.297 18.7109 207.591 18.2549 207.963 17.8829C208.335 17.5109 208.767 17.2289 209.259 17.0369C209.763 16.8449 210.303 16.7489 210.879 16.7489C211.635 16.7489 212.301 16.9049 212.877 17.2169C213.453 17.5289 213.903 17.9669 214.227 18.5309C214.551 19.0949 214.713 19.7369 214.713 20.4569C214.713 20.7569 214.641 20.9729 214.497 21.1049C214.365 21.2369 214.167 21.3209 213.903 21.3569L207.945 22.2029Z" fill="white"/>
<path d="M96.3025 52.5095H86.5051L84.1521 59.4326H80L89.2812 33.8184H93.594L102.871 59.4326H98.6496L96.3006 52.5095H96.3025ZM87.5198 49.3132H95.2839L91.4594 38.0795H91.3502L87.5218 49.3132H87.5198Z" fill="white"/>
<path d="M122.913 50.0971C122.913 55.8999 119.799 59.6287 115.093 59.6287C112.422 59.6287 110.301 58.4373 109.193 56.3612H109.11V65.6117H105.264V40.7575H108.987V43.8648H109.056C110.127 41.8598 112.404 40.5635 115.021 40.5635C119.781 40.5635 122.913 44.31 122.913 50.099M118.959 50.0971C118.959 46.313 117 43.8272 114.005 43.8272C111.01 43.8272 109.092 46.3684 109.092 50.0971C109.092 53.8258 111.07 56.3789 114.005 56.3789C116.939 56.3789 118.959 53.9109 118.959 50.0971Z" fill="white"/>
<path d="M143.536 50.0971C143.536 55.8999 140.423 59.6287 135.716 59.6287C133.046 59.6287 130.925 58.4373 129.817 56.3612H129.734V65.6117H125.887V40.7575H129.61V43.8648H129.68C130.75 41.8598 133.028 40.5635 135.645 40.5635C140.405 40.5635 143.536 44.31 143.536 50.099M139.582 50.0971C139.582 46.313 137.623 43.8272 134.628 43.8272C131.634 43.8272 129.716 46.3684 129.716 50.0971C129.716 53.8258 131.692 56.3789 134.628 56.3789C137.565 56.3789 139.582 53.9109 139.582 50.0971Z" fill="white"/>
<path d="M157.166 52.2938C157.452 54.8351 159.924 56.5015 163.309 56.5015C166.695 56.5015 168.885 54.837 168.885 52.5432C168.885 50.5561 167.476 49.3667 164.144 48.5512L160.817 47.7517C156.096 46.6117 153.903 44.4168 153.903 40.8464C153.903 36.425 157.77 33.3889 163.254 33.3889C168.739 33.3889 172.409 36.423 172.535 40.8464H168.655C168.421 38.2893 166.302 36.7456 163.202 36.7456C160.102 36.7456 157.986 38.3091 157.986 40.5792C157.986 42.3901 159.338 43.4569 162.65 44.2743L165.482 44.965C170.754 46.206 172.946 48.3177 172.946 52.0682C172.946 56.8597 169.118 59.8621 163.023 59.8621C157.323 59.8621 153.474 56.933 153.226 52.2958H157.166V52.2938Z" fill="white"/>
<path d="M181.251 36.3359V40.7593H184.815V43.7934H181.251V54.0889C181.251 55.692 181.965 56.4362 183.535 56.4362C183.923 56.4362 184.549 56.3768 184.799 56.3451V59.3653C184.374 59.4702 183.516 59.5415 182.663 59.5415C178.866 59.5415 177.387 58.1205 177.387 54.5026V43.7954H174.664V40.7613H177.387V36.3379H181.252L181.251 36.3359Z" fill="white"/>
<path d="M186.876 50.0971C186.876 44.221 190.349 40.5259 195.764 40.5259C201.179 40.5259 204.652 44.221 204.652 50.0971C204.652 55.9732 201.211 59.6643 195.764 59.6643C190.318 59.6643 186.876 55.987 186.876 50.0971ZM200.733 50.0971C200.733 46.0655 198.877 43.6846 195.764 43.6846C192.65 43.6846 190.792 46.0794 190.792 50.0971C190.792 54.1148 192.646 56.5016 195.764 56.5016C198.881 56.5016 200.733 54.1384 200.733 50.0971Z" fill="white"/>
<path d="M207.823 40.7573H211.49V43.9338H211.578C212.168 41.822 213.88 40.5593 216.087 40.5593C216.637 40.5593 217.103 40.6326 217.402 40.7018V44.292C217.103 44.1673 216.423 44.0584 215.677 44.0584C213.2 44.0584 211.668 45.7269 211.668 48.3571V59.4326H207.821V40.7573H207.823Z" fill="white"/>
<path d="M235.141 53.9484C234.62 57.3368 231.308 59.6682 227.072 59.6682C221.62 59.6682 218.238 56.0266 218.238 50.1841C218.238 44.3417 221.637 40.5278 226.908 40.5278C232.178 40.5278 235.353 44.0764 235.353 49.7408V51.051H222.119V51.2846C222.119 54.4808 224.13 56.5728 227.16 56.5728C229.296 56.5728 230.97 55.5654 231.486 53.9465H235.141V53.9484ZM222.136 48.3751H231.505C231.417 45.5153 229.58 43.6311 226.906 43.6311C224.231 43.6311 222.333 45.5529 222.136 48.3751Z" fill="white"/>
<defs>
<linearGradient id="paint0_linear_1148_8454" x1="40" y1="16.0002" x2="40" y2="64.0002" gradientUnits="userSpaceOnUse">
<stop stop-color="#18BFFB"/>
<stop offset="1" stop-color="#2072F3"/>
</linearGradient>
</defs>
</svg>
