<svg width="151" height="108" viewBox="0 0 151 108" fill="none" xmlns="http://www.w3.org/2000/svg">
<path d="M81.4388 22.6968L56.045 8.19969C55.7259 8.01462 55.3244 8.0249 55.0156 8.20997C54.6966 8.39504 54.501 8.72405 54.501 9.09419C54.501 9.09419 54.5113 10.4308 54.5216 12.6311L73.0188 31.1072L81.4388 22.6968Z" fill="url(#paint0_linear_2686_3514)"/>
<path d="M54.5216 12.6311C54.5524 20.5685 54.6451 39.8363 54.6862 49.4291L73.0291 31.1072L54.5216 12.6311Z" fill="url(#paint1_linear_2686_3514)"/>
<path d="M95.9731 30.9941L81.4388 22.6968L73.0085 31.1072L82.5197 40.6075L95.9834 32.7728C96.3025 32.5878 96.4981 32.2485 96.4981 31.8886C96.4981 31.5185 96.2922 31.1792 95.9731 30.9941Z" fill="url(#paint2_linear_2686_3514)"/>
<path d="M54.676 49.4291C54.6965 52.8529 54.7068 55.0429 54.7068 55.0429C54.7068 55.413 54.9024 55.7523 55.2215 55.9271C55.5406 56.1122 55.9318 56.1122 56.2509 55.9271L82.5299 40.6177L73.0188 31.1175L54.676 49.4291Z" fill="url(#paint3_linear_2686_3514)"/>
<path d="M17.4147 96.2939C17.4147 96.8726 17.312 97.3019 17.1067 97.5819C16.9013 97.8619 16.5747 98.1326 16.1267 98.3939C15.8653 98.5433 15.5387 98.6926 15.1467 98.8419C14.7547 98.9726 14.3253 99.0846 13.8587 99.1779C13.392 99.2899 12.8973 99.3739 12.3747 99.4299C11.8707 99.4859 11.3667 99.5139 10.8627 99.5139C9.51866 99.5139 8.25866 99.3366 7.08266 98.9819C5.90666 98.6086 4.87999 98.0579 4.00266 97.3299C3.14399 96.5833 2.46266 95.6593 1.95866 94.5579C1.45466 93.4566 1.20266 92.1779 1.20266 90.7219C1.20266 89.1913 1.47332 87.8566 2.01466 86.7179C2.57466 85.5793 3.30266 84.6366 4.19866 83.8899C5.11332 83.1246 6.14932 82.5553 7.30666 82.1819C8.48266 81.8086 9.68666 81.6219 10.9187 81.6219C12.692 81.6219 14.092 81.9113 15.1187 82.4899C16.164 83.0499 16.6867 83.7873 16.6867 84.7019C16.6867 85.1873 16.5653 85.6073 16.3227 85.9619C16.08 86.3166 15.8 86.5966 15.4827 86.8019C15.016 86.5219 14.428 86.2513 13.7187 85.9899C13.028 85.7099 12.244 85.5699 11.3667 85.5699C9.79866 85.5699 8.54799 86.0179 7.61466 86.9139C6.69999 87.8099 6.24266 89.0513 6.24266 90.6379C6.24266 91.4966 6.36399 92.2433 6.60666 92.8779C6.86799 93.4939 7.21332 94.0073 7.64266 94.4179C8.07199 94.8099 8.56666 95.1086 9.12666 95.3139C9.68666 95.5006 10.284 95.5939 10.9187 95.5939C11.3293 95.5939 11.6933 95.5566 12.0107 95.4819C12.328 95.4073 12.5707 95.3233 12.7387 95.2299V92.5979H9.74266C9.63066 92.3926 9.51866 92.1219 9.40666 91.7859C9.31332 91.4499 9.26666 91.0953 9.26666 90.7219C9.26666 90.0499 9.41599 89.5646 9.71466 89.2659C10.032 88.9673 10.4333 88.8179 10.9187 88.8179H15.6507C16.2107 88.8179 16.64 88.9766 16.9387 89.2939C17.256 89.5926 17.4147 90.0219 17.4147 90.5819V96.2939ZM34.3564 92.2619C34.3564 93.4193 34.1791 94.4553 33.8244 95.3699C33.4697 96.2659 32.9657 97.0219 32.3124 97.6379C31.6777 98.2539 30.9124 98.7206 30.0164 99.0379C29.1204 99.3553 28.1217 99.5139 27.0204 99.5139C25.9191 99.5139 24.9204 99.3459 24.0244 99.0099C23.1284 98.6739 22.3537 98.1979 21.7004 97.5819C21.0657 96.9473 20.5711 96.1819 20.2164 95.2859C19.8617 94.3899 19.6844 93.3819 19.6844 92.2619C19.6844 91.1606 19.8617 90.1619 20.2164 89.2659C20.5711 88.3699 21.0657 87.6139 21.7004 86.9979C22.3537 86.3633 23.1284 85.8779 24.0244 85.5419C24.9204 85.2059 25.9191 85.0379 27.0204 85.0379C28.1217 85.0379 29.1204 85.2153 30.0164 85.5699C30.9124 85.9059 31.6777 86.3913 32.3124 87.0259C32.9657 87.6419 33.4697 88.3979 33.8244 89.2939C34.1791 90.1899 34.3564 91.1793 34.3564 92.2619ZM24.5564 92.2619C24.5564 93.4006 24.7711 94.2779 25.2004 94.8939C25.6484 95.4913 26.2644 95.7899 27.0484 95.7899C27.8324 95.7899 28.4297 95.4819 28.8404 94.8659C29.2697 94.2499 29.4844 93.3819 29.4844 92.2619C29.4844 91.1419 29.2697 90.2833 28.8404 89.6859C28.4111 89.0699 27.8044 88.7619 27.0204 88.7619C26.2364 88.7619 25.6297 89.0699 25.2004 89.6859C24.7711 90.2833 24.5564 91.1419 24.5564 92.2619ZM50.7627 92.2619C50.7627 93.4193 50.5853 94.4553 50.2307 95.3699C49.876 96.2659 49.372 97.0219 48.7187 97.6379C48.084 98.2539 47.3187 98.7206 46.4227 99.0379C45.5267 99.3553 44.528 99.5139 43.4267 99.5139C42.3253 99.5139 41.3267 99.3459 40.4307 99.0099C39.5347 98.6739 38.76 98.1979 38.1067 97.5819C37.472 96.9473 36.9773 96.1819 36.6227 95.2859C36.268 94.3899 36.0907 93.3819 36.0907 92.2619C36.0907 91.1606 36.268 90.1619 36.6227 89.2659C36.9773 88.3699 37.472 87.6139 38.1067 86.9979C38.76 86.3633 39.5347 85.8779 40.4307 85.5419C41.3267 85.2059 42.3253 85.0379 43.4267 85.0379C44.528 85.0379 45.5267 85.2153 46.4227 85.5699C47.3187 85.9059 48.084 86.3913 48.7187 87.0259C49.372 87.6419 49.876 88.3979 50.2307 89.2939C50.5853 90.1899 50.7627 91.1793 50.7627 92.2619ZM40.9627 92.2619C40.9627 93.4006 41.1773 94.2779 41.6067 94.8939C42.0547 95.4913 42.6707 95.7899 43.4547 95.7899C44.2387 95.7899 44.836 95.4819 45.2467 94.8659C45.676 94.2499 45.8907 93.3819 45.8907 92.2619C45.8907 91.1419 45.676 90.2833 45.2467 89.6859C44.8173 89.0699 44.2107 88.7619 43.4267 88.7619C42.6427 88.7619 42.036 89.0699 41.6067 89.6859C41.1773 90.2833 40.9627 91.1419 40.9627 92.2619ZM59.7209 85.0379C60.7849 85.0379 61.7462 85.1779 62.6049 85.4579C63.4822 85.7193 64.2196 86.0646 64.8169 86.4939C65.1902 86.7553 65.4796 87.0446 65.6849 87.3619C65.9089 87.6793 66.0209 88.0899 66.0209 88.5939V98.3939C66.0209 99.3833 65.8342 100.233 65.4609 100.942C65.0876 101.67 64.5742 102.267 63.9209 102.734C63.2862 103.219 62.5302 103.574 61.6529 103.798C60.7942 104.022 59.8702 104.134 58.8809 104.134C57.1822 104.134 55.8476 103.901 54.8769 103.434C53.9062 102.986 53.4209 102.249 53.4209 101.222C53.4209 100.793 53.5049 100.41 53.6729 100.074C53.8596 99.7566 54.0649 99.5139 54.2889 99.3459C54.8302 99.6446 55.4369 99.8966 56.1089 100.102C56.7996 100.307 57.5089 100.41 58.2369 100.41C59.2449 100.41 60.0476 100.242 60.6449 99.9059C61.2422 99.5699 61.5409 99.0286 61.5409 98.2819V97.8339C60.7756 98.1699 59.8422 98.3379 58.7409 98.3379C57.9009 98.3379 57.0982 98.2166 56.3329 97.9739C55.5862 97.7126 54.9236 97.3206 54.3449 96.7979C53.7849 96.2566 53.3276 95.5659 52.9729 94.7259C52.6369 93.8859 52.4689 92.8873 52.4689 91.7299C52.4689 90.5913 52.6462 89.6019 53.0009 88.7619C53.3742 87.9219 53.8782 87.2313 54.5129 86.6899C55.1662 86.1299 55.9316 85.7193 56.8089 85.4579C57.7049 85.1779 58.6756 85.0379 59.7209 85.0379ZM61.4569 89.0979C61.3262 89.0233 61.1302 88.9486 60.8689 88.8739C60.6262 88.7993 60.3182 88.7619 59.9449 88.7619C59.0302 88.7619 58.3396 89.0233 57.8729 89.5459C57.4249 90.0499 57.2009 90.7779 57.2009 91.7299C57.2009 92.8126 57.4249 93.5966 57.8729 94.0819C58.3396 94.5486 58.9276 94.7819 59.6369 94.7819C60.4022 94.7819 61.0089 94.6046 61.4569 94.2499V89.0979ZM73.8156 99.0379C73.6103 99.0753 73.3023 99.1219 72.8916 99.1779C72.4996 99.2526 72.0983 99.2899 71.6876 99.2899C71.277 99.2899 70.9036 99.2619 70.5676 99.2059C70.2503 99.1499 69.9796 99.0379 69.7556 98.8699C69.5316 98.7019 69.3543 98.4779 69.2236 98.1979C69.1116 97.8993 69.0556 97.5166 69.0556 97.0499V80.8099C69.261 80.7726 69.5596 80.7259 69.9516 80.6699C70.3623 80.5953 70.773 80.5579 71.1836 80.5579C71.5943 80.5579 71.9583 80.5859 72.2756 80.6419C72.6116 80.6979 72.8916 80.8099 73.1156 80.9779C73.3396 81.1459 73.5076 81.3793 73.6196 81.6779C73.7503 81.9579 73.8156 82.3313 73.8156 82.7979V99.0379ZM84.0153 99.5139C82.9139 99.5139 81.8873 99.3646 80.9353 99.0659C80.0019 98.7486 79.1806 98.2819 78.4713 97.6659C77.7806 97.0499 77.2299 96.2753 76.8193 95.3419C76.4273 94.4086 76.2313 93.3166 76.2313 92.0659C76.2313 90.8339 76.4273 89.7793 76.8193 88.9019C77.2299 88.0059 77.7619 87.2779 78.4153 86.7179C79.0686 86.1393 79.8153 85.7193 80.6553 85.4579C81.4953 85.1779 82.3539 85.0379 83.2313 85.0379C84.2206 85.0379 85.1166 85.1873 85.9193 85.4859C86.7406 85.7846 87.4406 86.1953 88.0193 86.7179C88.6166 87.2406 89.0739 87.8659 89.3913 88.5939C89.7273 89.3219 89.8953 90.1153 89.8953 90.9739C89.8953 91.6086 89.7179 92.0939 89.3633 92.4299C89.0086 92.7659 88.5139 92.9806 87.8793 93.0739L80.9633 94.1099C81.1686 94.7259 81.5886 95.1926 82.2233 95.5099C82.8579 95.8086 83.5859 95.9579 84.4073 95.9579C85.1726 95.9579 85.8913 95.8646 86.5633 95.6779C87.2539 95.4726 87.8139 95.2393 88.2433 94.9779C88.5419 95.1646 88.7939 95.4259 88.9993 95.7619C89.2046 96.0979 89.3073 96.4526 89.3073 96.8259C89.3073 97.6659 88.9153 98.2913 88.1313 98.7019C87.5339 99.0193 86.8619 99.2339 86.1153 99.3459C85.3686 99.4579 84.6686 99.5139 84.0153 99.5139ZM83.2313 88.5099C82.7833 88.5099 82.3913 88.5846 82.0553 88.7339C81.7379 88.8833 81.4766 89.0793 81.2713 89.3219C81.0659 89.5459 80.9073 89.8073 80.7953 90.1059C80.7019 90.3859 80.6459 90.6753 80.6273 90.9739L85.4153 90.1899C85.3593 89.8166 85.1539 89.4433 84.7993 89.0699C84.4446 88.6966 83.9219 88.5099 83.2313 88.5099ZM104.512 89.9659C105.296 89.9659 105.893 89.7886 106.304 89.4339C106.733 89.0606 106.948 88.5006 106.948 87.7539C106.948 87.0446 106.724 86.5033 106.276 86.1299C105.847 85.7379 105.212 85.5419 104.372 85.5419C104.073 85.5419 103.821 85.5513 103.616 85.5699C103.429 85.5699 103.233 85.5886 103.028 85.6259V89.9659H104.512ZM103.056 98.9539C102.851 99.0099 102.524 99.0659 102.076 99.1219C101.647 99.1779 101.217 99.2059 100.788 99.2059C100.359 99.2059 99.9759 99.1686 99.6399 99.0939C99.3226 99.0379 99.0519 98.9259 98.8279 98.7579C98.6039 98.5899 98.4359 98.3566 98.3239 98.0579C98.2119 97.7593 98.1559 97.3673 98.1559 96.8819V83.6939C98.1559 83.3019 98.2586 83.0033 98.4639 82.7979C98.6879 82.5739 98.9866 82.3966 99.3599 82.2659C99.9946 82.0419 100.713 81.8832 101.516 81.7899C102.337 81.6779 103.159 81.6219 103.98 81.6219C106.556 81.6219 108.525 82.1726 109.888 83.2739C111.251 84.3753 111.932 85.8686 111.932 87.7539C111.932 88.6686 111.783 89.4993 111.484 90.2459C111.204 90.9739 110.775 91.6086 110.196 92.1499C109.636 92.6726 108.917 93.0833 108.04 93.3819C107.181 93.6619 106.183 93.8019 105.044 93.8019H103.056V98.9539ZM118.905 99.0379C118.7 99.0753 118.392 99.1219 117.981 99.1779C117.589 99.2526 117.188 99.2899 116.777 99.2899C116.367 99.2899 115.993 99.2619 115.657 99.2059C115.34 99.1499 115.069 99.0379 114.845 98.8699C114.621 98.7019 114.444 98.4779 114.313 98.1979C114.201 97.8993 114.145 97.5166 114.145 97.0499V80.8099C114.351 80.7726 114.649 80.7259 115.041 80.6699C115.452 80.5953 115.863 80.5579 116.273 80.5579C116.684 80.5579 117.048 80.5859 117.365 80.6419C117.701 80.6979 117.981 80.8099 118.205 80.9779C118.429 81.1459 118.597 81.3793 118.709 81.6779C118.84 81.9579 118.905 82.3313 118.905 82.7979V99.0379ZM127.733 96.0419C128.05 96.0419 128.396 96.0139 128.769 95.9579C129.161 95.8833 129.45 95.7899 129.637 95.6779V93.4379L127.621 93.6059C127.098 93.6433 126.669 93.7553 126.333 93.9419C125.997 94.1286 125.829 94.4086 125.829 94.7819C125.829 95.1553 125.969 95.4633 126.249 95.7059C126.548 95.9299 127.042 96.0419 127.733 96.0419ZM127.509 85.0379C128.517 85.0379 129.432 85.1406 130.253 85.3459C131.093 85.5513 131.802 85.8686 132.381 86.2979C132.978 86.7086 133.436 87.2406 133.753 87.8939C134.07 88.5286 134.229 89.2846 134.229 90.1619V96.4339C134.229 96.9193 134.089 97.3206 133.809 97.6379C133.548 97.9366 133.23 98.1979 132.857 98.4219C131.644 99.1499 129.936 99.5139 127.733 99.5139C126.744 99.5139 125.848 99.4206 125.045 99.2339C124.261 99.0473 123.58 98.7673 123.001 98.3939C122.441 98.0206 122.002 97.5446 121.685 96.9659C121.386 96.3873 121.237 95.7153 121.237 94.9499C121.237 93.6619 121.62 92.6726 122.385 91.9819C123.15 91.2913 124.336 90.8619 125.941 90.6939L129.609 90.3019V90.1059C129.609 89.5646 129.366 89.1819 128.881 88.9579C128.414 88.7153 127.733 88.5939 126.837 88.5939C126.128 88.5939 125.437 88.6686 124.765 88.8179C124.093 88.9673 123.486 89.1539 122.945 89.3779C122.702 89.2099 122.497 88.9579 122.329 88.6219C122.161 88.2673 122.077 87.9033 122.077 87.5299C122.077 87.0446 122.189 86.6619 122.413 86.3819C122.656 86.0833 123.02 85.8313 123.505 85.6259C124.046 85.4206 124.681 85.2713 125.409 85.1779C126.156 85.0846 126.856 85.0379 127.509 85.0379ZM138.939 95.5939C138.734 95.1273 138.51 94.6046 138.267 94.0259C138.043 93.4473 137.801 92.7846 137.539 92.0379C137.297 91.2913 137.035 90.4419 136.755 89.4899C136.494 88.5193 136.214 87.4086 135.915 86.1579C136.177 85.8966 136.522 85.6726 136.951 85.4859C137.399 85.2806 137.885 85.1779 138.407 85.1779C139.061 85.1779 139.602 85.3179 140.031 85.5979C140.461 85.8593 140.778 86.3633 140.983 87.1099L143.195 94.8099H143.307C143.531 94.1753 143.746 93.4846 143.951 92.7379C144.175 91.9913 144.39 91.2259 144.595 90.4419C144.801 89.6393 144.987 88.8459 145.155 88.0619C145.342 87.2593 145.501 86.4753 145.631 85.7099C146.303 85.3553 147.041 85.1779 147.843 85.1779C148.497 85.1779 149.038 85.3179 149.467 85.5979C149.897 85.8779 150.111 86.3633 150.111 87.0539C150.111 87.5579 150.046 88.1459 149.915 88.8179C149.785 89.4713 149.607 90.1713 149.383 90.9179C149.178 91.6646 148.926 92.4393 148.627 93.2419C148.347 94.0259 148.049 94.8006 147.731 95.5659C147.414 96.3313 147.087 97.0593 146.751 97.7499C146.415 98.4219 146.089 99.0286 145.771 99.5699C145.249 100.485 144.763 101.231 144.315 101.81C143.867 102.389 143.438 102.837 143.027 103.154C142.617 103.49 142.206 103.714 141.795 103.826C141.385 103.957 140.955 104.022 140.507 104.022C139.723 104.022 139.089 103.789 138.603 103.322C138.118 102.855 137.829 102.249 137.735 101.502C138.333 101.035 138.93 100.513 139.527 99.9339C140.125 99.3739 140.666 98.7953 141.151 98.1979C140.834 98.1046 140.489 97.8899 140.115 97.5539C139.761 97.1993 139.369 96.5459 138.939 95.5939Z" fill="#505050"/>
<defs>
<linearGradient id="paint0_linear_2686_3514" x1="54.501" y1="32.0755" x2="96.5055" y2="32.0755" gradientUnits="userSpaceOnUse">
<stop stop-color="#63BE6B"/>
<stop offset="0.506" stop-color="#5BBC6A"/>
<stop offset="1" stop-color="#4AB96A"/>
</linearGradient>
<linearGradient id="paint1_linear_2686_3514" x1="54.4898" y1="32.0717" x2="96.4738" y2="32.0717" gradientUnits="userSpaceOnUse">
<stop stop-color="#3EC6F2"/>
<stop offset="1" stop-color="#45AFE3"/>
</linearGradient>
<linearGradient id="paint2_linear_2686_3514" x1="54.5186" y1="32.0836" x2="96.4937" y2="32.0836" gradientUnits="userSpaceOnUse">
<stop stop-color="#FAA51A"/>
<stop offset="0.387" stop-color="#FAB716"/>
<stop offset="0.741" stop-color="#FAC412"/>
<stop offset="1" stop-color="#FAC80F"/>
</linearGradient>
<linearGradient id="paint3_linear_2686_3514" x1="54.6805" y1="43.5913" x2="82.5295" y2="43.5913" gradientUnits="userSpaceOnUse">
<stop stop-color="#EC3B50"/>
<stop offset="1" stop-color="#E7515B"/>
</linearGradient>
</defs>
</svg>
