<?xml version="1.0" encoding="UTF-8"?>
<svg id="Layer_1" data-name="Layer 1" xmlns="http://www.w3.org/2000/svg" viewBox="0 0 256 57">
  <defs>
    <style>
      .cls-1 {
        fill: #fff;
        stroke-width: 0px;
      }
    </style>
  </defs>
  <g id="logo-logo">
    <path class="cls-1" d="M38.3,42.18H6.57V6.08h31.74v36.11ZM38.37.84H6.5C3.71.84,1.32,3.27,1.32,6.06v36.29c0,2.79,2.39,5.37,5.18,5.37h14.92v8.45l16.9-8.76c2.79,0,5.23-2.26,5.23-5.05V6.06c0-2.79-2.39-5.23-5.18-5.23"/>
  </g>
  <g id="text-logo-path">
    <path class="cls-1" d="M10.83,12.29h0c0-.82.29-1.51.87-2.07.58-.56,1.27-.83,2.05-.83h18.39c.83,0,1.52.28,2.08.84.56.56.84,1.25.84,2.06h0c0,.79-.28,1.47-.84,2.05-.56.58-1.25.87-2.08.87h-5.52v19.74c0,1.03-.36,1.89-1.07,2.6-.71.71-1.58,1.07-2.6,1.07h0c-1.03,0-1.9-.36-2.61-1.07-.72-.71-1.07-1.58-1.07-2.6h0V15.21h-5.52c-.79,0-1.47-.29-2.05-.86-.58-.57-.87-1.26-.87-2.06ZM46.82,35.06h0v-14.64c0-.9.33-1.68.98-2.33.65-.65,1.43-.98,2.31-.98h0c.92,0,1.71.33,2.37.98.65.65.98,1.43.98,2.33h0v.92h.15c.31-.76.7-1.44,1.17-2.05.47-.61.94-1.03,1.4-1.28h0c.44-.23.94-.35,1.5-.36h0c1.15,0,1.99.33,2.52.98.54.65.81,1.36.81,2.12h0c0,.79-.27,1.49-.82,2.11-.55.62-1.27.93-2.17.93h0c-.53,0-1.08.11-1.63.34-.55.23-1.02.58-1.41,1.04h0c-.69.85-1.03,2.05-1.03,3.59h0v6.29c0,.97-.35,1.81-1.04,2.51-.7.7-1.54,1.05-2.51,1.05h0c-.97,0-1.81-.35-2.52-1.05-.7-.7-1.06-1.53-1.06-2.51ZM60.61,32.46h0c0-2.71,1.02-4.51,3.07-5.43,2.05-.91,4.63-1.37,7.75-1.37h0c.59,0,1.03.01,1.31.04h0l1.29.04c0-.87-.06-1.57-.19-2.08-.12-.52-.4-.93-.82-1.24-.42-.31-1.05-.46-1.89-.46h0c-1.17,0-2.05.37-2.62,1.11h0c-.63.87-1.41,1.31-2.34,1.31h0c-.85,0-1.57-.3-2.16-.91-.59-.61-.89-1.34-.89-2.2h0c0-.51.11-.99.33-1.44.23-.45.56-.82,1-1.11h0c.95-.61,2-1.07,3.16-1.37,1.16-.31,2.36-.46,3.59-.46h0c3.17,0,5.58.68,7.23,2.03,1.65,1.35,2.47,3.58,2.47,6.67h0l-.04,5.45c0,.95.01,1.65.04,2.11h0l.04,2.13c0,.9-.33,1.68-.98,2.34-.65.66-1.44.99-2.35.99h0c-.85,0-1.58-.27-2.19-.81-.61-.53-.98-1.21-1.11-2.02h0c-.78,1.1-1.71,1.88-2.78,2.34-1.07.46-2.33.69-3.79.69h0c-1.3,0-2.49-.25-3.57-.75-1.09-.5-1.95-1.23-2.59-2.19-.64-.96-.96-2.1-.96-3.43ZM67.59,32.03h0c0,.68.24,1.23.71,1.63.47.4,1.06.6,1.78.6h0c1.26,0,2.24-.42,2.94-1.26.7-.84,1.05-1.9,1.05-3.19h0v-.3l-2.26-.04c-2.81,0-4.21.85-4.21,2.56ZM84.18,35.06h0v-14.64c0-.9.33-1.68.98-2.33.65-.65,1.43-.98,2.31-.98h0c.92,0,1.71.33,2.37.98.65.65.98,1.43.98,2.33h0v.52c.59-1.15,1.44-2.09,2.56-2.84,1.12-.74,2.51-1.11,4.17-1.11h0c2.56,0,4.42.72,5.6,2.17,1.17,1.45,1.76,3.43,1.76,5.95h0v9.94c0,.97-.35,1.81-1.05,2.51-.7.7-1.53,1.05-2.51,1.05h0c-.98,0-1.82-.35-2.52-1.05-.7-.7-1.06-1.53-1.06-2.51h0v-8.82c0-1.44-.31-2.43-.92-3-.61-.56-1.31-.84-2.1-.84h0c-.95,0-1.76.34-2.44,1.02-.68.68-1.02,1.91-1.02,3.7h0v7.93c0,.97-.35,1.81-1.05,2.51-.7.7-1.54,1.05-2.51,1.05h0c-.97,0-1.81-.35-2.52-1.05-.7-.7-1.06-1.53-1.06-2.51ZM107.18,24.06h0c0-2.2.86-3.94,2.58-5.23,1.72-1.29,4.02-1.94,6.89-1.94h0c2.1,0,3.93.33,5.48,1,1.56.67,2.34,1.69,2.34,3.06h0c0,.92-.28,1.66-.83,2.21-.56.55-1.24.82-2.05.82h0c-.92,0-1.72-.42-2.38-1.27h0c-.25-.36-.57-.64-.95-.84-.39-.2-.96-.3-1.72-.3h0c-.82,0-1.47.14-1.95.42-.47.28-.71.69-.71,1.22h0c0,.44.18.77.54,1,.36.23.97.43,1.83.61h0l3,.62c2.3.49,3.96,1.21,5,2.18,1.04.97,1.56,2.31,1.56,4.04h0c0,2.24-.82,4.03-2.47,5.34-1.65,1.32-4.13,1.97-7.45,1.97h0c-2.31,0-4.26-.33-5.85-1-1.6-.67-2.4-1.72-2.4-3.17h0c0-.85.28-1.58.85-2.21.57-.62,1.29-.93,2.18-.93h0c.51,0,.95.11,1.31.32.36.21.72.52,1.07.93h0c.38.49.77.83,1.15,1.04.38.21.99.31,1.84.31h0c1.97,0,2.96-.61,2.96-1.83h0c0-.41-.15-.74-.44-1-.29-.26-.89-.47-1.79-.65h0l-2.6-.54c-2.41-.49-4.17-1.22-5.3-2.19-1.12-.98-1.68-2.3-1.68-3.99ZM128.27,35.1h0V11.73c0-.98.35-1.81,1.04-2.5.69-.69,1.54-1.04,2.54-1.04h0c.97,0,1.8.35,2.49,1.04.68.69,1.03,1.53,1.03,2.5h0v13.21l5.8-6.82c.54-.66,1.27-1,2.21-1.01h0c.78,0,1.46.28,2.03.85.57.57.85,1.25.85,2.03h0c0,.71-.26,1.37-.77,1.96h0l-3.26,3.59,4.94,7.97c.34.54.51,1.12.51,1.76h0c0,.92-.33,1.71-.98,2.36-.65.65-1.44.97-2.35.97h0c-.61,0-1.18-.15-1.7-.44-.52-.29-.91-.68-1.19-1.17h0l-4.25-7-1.85,2.06v3.03c0,.98-.34,1.8-1.03,2.49-.69.69-1.53,1.03-2.53,1.03h0c-.97,0-1.8-.34-2.5-1.03-.69-.68-1.04-1.51-1.04-2.49ZM149.77,35.06h0v-14.64c0-.9.33-1.68.98-2.33.66-.65,1.43-.98,2.31-.98h0c.92,0,1.71.33,2.37.98.66.65.99,1.43.99,2.33h0v.92h.15c.31-.76.7-1.44,1.17-2.05.47-.61.93-1.03,1.39-1.28h0c.44-.23.94-.35,1.5-.36h0c1.15,0,1.99.33,2.53.98.53.65.8,1.36.8,2.12h0c0,.79-.27,1.49-.82,2.11-.55.62-1.27.93-2.17.93h0c-.54,0-1.08.11-1.63.34-.55.23-1.02.58-1.4,1.04h0c-.69.85-1.03,2.05-1.03,3.59h0v6.29c0,.97-.35,1.81-1.05,2.51-.7.7-1.53,1.05-2.51,1.05h0c-.98,0-1.82-.35-2.52-1.05-.7-.7-1.06-1.53-1.06-2.51ZM165.45,11.48h0c0-.82.29-1.52.88-2.11.59-.58,1.29-.87,2.11-.87h1.76c.83,0,1.53.29,2.11.88.59.58.88,1.28.88,2.09h0c0,.83-.3,1.53-.89,2.11-.59.59-1.3.88-2.11.88h-1.76c-.82,0-1.53-.29-2.11-.88-.59-.58-.88-1.29-.88-2.11ZM165.75,35.06h0v-14.38c0-.97.35-1.81,1.06-2.52.7-.7,1.54-1.06,2.52-1.06h0c.97,0,1.81.35,2.51,1.06.7.7,1.05,1.54,1.05,2.52h0v14.38c0,.97-.35,1.81-1.06,2.51-.7.7-1.54,1.05-2.5,1.05h0c-.98,0-1.82-.35-2.52-1.05-.7-.7-1.06-1.53-1.06-2.51ZM176.67,43.61h0v-23.23c0-.9.32-1.67.96-2.31.64-.64,1.41-.96,2.31-.96h0c.93,0,1.7.32,2.34.96.64.64.96,1.41.96,2.31h0v.22c.85-1.15,1.78-2.03,2.8-2.67,1.02-.63,2.35-.95,4.01-.95h0c1.84,0,3.39.47,4.65,1.41,1.27.94,2.21,2.19,2.85,3.76.63,1.57.94,3.34.94,5.3h0c0,2.3-.41,4.3-1.22,6.02s-1.95,3.03-3.4,3.94c-1.45.91-3.09,1.37-4.92,1.37h0c-1.97,0-3.69-.65-5.15-1.96h0v6.79c0,.98-.35,1.81-1.04,2.51-.7.7-1.54,1.05-2.51,1.05h0c-.97,0-1.81-.35-2.52-1.06-.7-.7-1.06-1.54-1.06-2.5ZM183.61,27.85h0c0,2.15.35,3.71,1.06,4.68.7.98,1.63,1.46,2.78,1.46h0c1.12,0,2.05-.51,2.78-1.54.73-1.02,1.09-2.56,1.09-4.6h0c0-2.02-.35-3.5-1.06-4.45-.7-.94-1.59-1.41-2.67-1.41h0c-1.2,0-2.16.48-2.89,1.45-.73.97-1.09,2.43-1.09,4.41ZM199.24,19.81h0c0-.66.23-1.22.69-1.69.46-.46,1.01-.69,1.65-.69h1.31l.15-2.85c.05-.85.39-1.57,1.01-2.17.62-.6,1.37-.9,2.25-.9h0c.9,0,1.66.32,2.3.96.64.64.96,1.41.96,2.31h0v2.64h2.26c.63,0,1.18.23,1.65.69.46.46.69,1.01.69,1.65h0c0,.66-.23,1.22-.69,1.69-.46.46-1.01.69-1.65.69h-2.11v8.53c0,1.05.22,1.79.67,2.22.45.44,1.13.66,2.04.66h0c.58.12,1.08.42,1.5.9.41.47.62,1.03.62,1.67h0c0,.54-.15,1.02-.44,1.44-.29.43-.67.74-1.13.93h0c-1.02.18-2.23.27-3.63.28h0c-2.46.01-4.2-.59-5.22-1.82h0c-1-1.18-1.5-3.01-1.5-5.48h0v-.19h0l.04-9.15h-1.07c-.64,0-1.19-.23-1.65-.69-.46-.46-.69-1.01-.69-1.65ZM215.67,27.93h0c0-2.14.43-4.05,1.3-5.71.87-1.66,2.13-2.96,3.79-3.91,1.66-.95,3.64-1.42,5.95-1.42h0c2.3,0,4.27.47,5.93,1.42,1.66.95,2.91,2.25,3.75,3.91.84,1.66,1.26,3.54,1.26,5.63h0c0,2.12-.44,4.02-1.32,5.69-.88,1.67-2.16,2.98-3.83,3.93-1.67.95-3.66,1.42-5.95,1.42h0c-2.31,0-4.28-.47-5.91-1.42-1.64-.95-2.87-2.25-3.71-3.91-.84-1.66-1.26-3.54-1.26-5.63ZM222.8,27.85h0c0,1.87.32,3.33.97,4.37.65,1.04,1.62,1.56,2.9,1.56h0c1.27,0,2.23-.52,2.86-1.57.63-1.05.95-2.49.95-4.32h0c0-1.84-.32-3.28-.95-4.32-.64-1.05-1.61-1.57-2.9-1.57h0c-1.27,0-2.23.51-2.87,1.54-.64,1.03-.96,2.47-.96,4.31ZM240.18,35.06h0v-14.64c0-.9.33-1.68.98-2.33.65-.65,1.42-.98,2.31-.98h0c.93,0,1.72.33,2.37.98.65.65.98,1.43.98,2.33h0v.92h.15c.31-.76.7-1.44,1.17-2.05.47-.61.94-1.03,1.4-1.28h0c.43-.23.93-.35,1.5-.36h0c1.15,0,1.99.33,2.52.98.54.65.81,1.36.81,2.12h0c0,.79-.27,1.49-.82,2.11-.55.62-1.27.93-2.17.93h0c-.54,0-1.08.11-1.63.34-.55.23-1.02.58-1.41,1.04h0c-.69.85-1.03,2.05-1.03,3.59h0v6.29c0,.97-.35,1.81-1.05,2.51-.7.7-1.53,1.05-2.51,1.05h0c-.97,0-1.81-.35-2.52-1.05-.7-.7-1.06-1.53-1.06-2.51Z"/>
  </g>
</svg>