<svg width="243" height="80" viewBox="0 0 243 80" fill="none" xmlns="http://www.w3.org/2000/svg">
<rect y="0.000244141" width="243" height="80" rx="8" fill="black"/>
<path d="M45.9393 30.6311L20.5455 16.134C20.2264 15.9489 19.8249 15.9592 19.5161 16.1443C19.197 16.3294 19.0015 16.6584 19.0015 17.0285C19.0015 17.0285 19.0118 18.3651 19.0221 20.5654L37.5193 39.0415L45.9393 30.6311Z" fill="url(#paint0_linear_1148_8448)"/>
<path d="M19.0221 20.5654C19.0529 28.5028 19.1456 47.7707 19.1867 57.3634L37.5296 39.0415L19.0221 20.5654Z" fill="url(#paint1_linear_1148_8448)"/>
<path d="M60.4736 38.9284L45.9393 30.6311L37.509 39.0415L47.0201 48.5418L60.4839 40.7072C60.803 40.5221 60.9986 40.1828 60.9986 39.8229C60.9986 39.4528 60.7927 39.1135 60.4736 38.9284Z" fill="url(#paint2_linear_1148_8448)"/>
<path d="M19.1764 57.3634C19.197 60.7872 19.2073 62.9772 19.2073 62.9772C19.2073 63.3474 19.4029 63.6867 19.722 63.8614C20.0411 64.0465 20.4322 64.0465 20.7513 63.8614L47.0304 48.5521L37.5193 39.0518L19.1764 57.3634Z" fill="url(#paint3_linear_1148_8448)"/>
<path d="M90.422 20.7121V24.5821C90.422 24.8221 90.356 25.0201 90.224 25.1761C90.104 25.3321 89.912 25.4761 89.648 25.6081C89.336 25.7761 88.904 25.9141 88.352 26.0221C87.812 26.1301 87.26 26.1841 86.696 26.1841C85.568 26.1841 84.566 25.9801 83.69 25.5721C82.826 25.1641 82.142 24.5401 81.638 23.7001C81.146 22.8601 80.9 21.7861 80.9 20.4781C80.9 19.2061 81.152 18.1441 81.656 17.2921C82.172 16.4401 82.856 15.8041 83.708 15.3841C84.56 14.9521 85.496 14.7361 86.516 14.7361C87.212 14.7361 87.824 14.8141 88.352 14.9701C88.88 15.1141 89.288 15.3001 89.576 15.5281C89.864 15.7561 90.008 16.0021 90.008 16.2661C90.008 16.4581 89.954 16.6261 89.846 16.7701C89.738 16.9141 89.612 17.0221 89.468 17.0941C89.144 16.8901 88.76 16.6981 88.316 16.5181C87.872 16.3381 87.314 16.2481 86.642 16.2481C85.91 16.2481 85.25 16.4101 84.662 16.7341C84.074 17.0461 83.606 17.5201 83.258 18.1561C82.922 18.7801 82.754 19.5541 82.754 20.4781C82.754 21.4501 82.928 22.2481 83.276 22.8721C83.624 23.4841 84.098 23.9401 84.698 24.2401C85.298 24.5401 85.97 24.6901 86.714 24.6901C87.122 24.6901 87.494 24.6541 87.83 24.5821C88.178 24.5101 88.454 24.4261 88.658 24.3301V21.3421H86.084C86.048 21.2701 86.006 21.1741 85.958 21.0541C85.922 20.9221 85.904 20.7841 85.904 20.6401C85.904 20.3881 85.958 20.2021 86.066 20.0821C86.186 19.9501 86.348 19.8841 86.552 19.8841H89.576C89.816 19.8841 90.014 19.9621 90.17 20.1181C90.338 20.2621 90.422 20.4601 90.422 20.7121ZM93.6167 22.7461L93.5447 21.4321L98.7107 20.6941C98.6747 20.1181 98.4707 19.6381 98.0987 19.2541C97.7267 18.8701 97.2107 18.6781 96.5507 18.6781C95.8547 18.6781 95.2787 18.9241 94.8227 19.4161C94.3787 19.8961 94.1507 20.5921 94.1387 21.5041L94.1567 22.1341C94.2527 23.0101 94.5587 23.6701 95.0747 24.1141C95.6027 24.5461 96.2987 24.7621 97.1627 24.7621C97.6667 24.7621 98.1287 24.6841 98.5487 24.5281C98.9687 24.3721 99.2987 24.1981 99.5387 24.0061C99.6827 24.1021 99.7967 24.2161 99.8807 24.3481C99.9767 24.4801 100.025 24.6301 100.025 24.7981C100.025 25.0621 99.8927 25.3021 99.6287 25.5181C99.3647 25.7221 99.0107 25.8841 98.5667 26.0041C98.1227 26.1241 97.6187 26.1841 97.0547 26.1841C96.1307 26.1841 95.3207 26.0161 94.6247 25.6801C93.9407 25.3321 93.4067 24.8221 93.0227 24.1501C92.6387 23.4781 92.4467 22.6501 92.4467 21.6661C92.4467 20.9581 92.5487 20.3341 92.7527 19.7941C92.9687 19.2541 93.2627 18.7981 93.6347 18.4261C94.0067 18.0541 94.4387 17.7721 94.9307 17.5801C95.4347 17.3881 95.9747 17.2921 96.5507 17.2921C97.3067 17.2921 97.9727 17.4481 98.5487 17.7601C99.1247 18.0721 99.5747 18.5101 99.8987 19.0741C100.223 19.6381 100.385 20.2801 100.385 21.0001C100.385 21.3001 100.313 21.5161 100.169 21.6481C100.037 21.7801 99.8387 21.8641 99.5747 21.9001L93.6167 22.7461ZM102.39 21.1801H104.136V23.5201C104.136 23.9641 104.268 24.2821 104.532 24.4741C104.796 24.6541 105.156 24.7441 105.612 24.7441C105.804 24.7441 106.02 24.7141 106.26 24.6541C106.5 24.5821 106.704 24.5041 106.872 24.4201C106.944 24.5041 107.01 24.6061 107.07 24.7261C107.142 24.8461 107.178 24.9841 107.178 25.1401C107.178 25.4401 107.016 25.6861 106.692 25.8781C106.38 26.0701 105.918 26.1661 105.306 26.1661C104.418 26.1661 103.71 25.9741 103.182 25.5901C102.654 25.1941 102.39 24.5401 102.39 23.6281V21.1801ZM103.362 19.1281V17.7061H106.98C107.016 17.7781 107.052 17.8801 107.088 18.0121C107.136 18.1321 107.16 18.2641 107.16 18.4081C107.16 18.6481 107.1 18.8281 106.98 18.9481C106.872 19.0681 106.722 19.1281 106.53 19.1281H103.362ZM104.136 21.7021H102.39V15.1861C102.462 15.1621 102.57 15.1381 102.714 15.1141C102.87 15.0781 103.032 15.0601 103.2 15.0601C103.524 15.0601 103.758 15.1201 103.902 15.2401C104.058 15.3601 104.136 15.5701 104.136 15.8701V21.7021ZM114.076 14.9341C114.076 14.6461 114.178 14.4001 114.382 14.1961C114.586 13.9921 114.844 13.8901 115.156 13.8901C115.48 13.8901 115.738 13.9921 115.93 14.1961C116.134 14.4001 116.236 14.6461 116.236 14.9341C116.236 15.2341 116.134 15.4861 115.93 15.6901C115.738 15.8821 115.48 15.9781 115.156 15.9781C114.844 15.9781 114.586 15.8821 114.382 15.6901C114.178 15.4861 114.076 15.2341 114.076 14.9341ZM114.274 21.1801H116.038V25.8961C115.966 25.9201 115.858 25.9501 115.714 25.9861C115.57 26.0221 115.408 26.0401 115.228 26.0401C114.916 26.0401 114.676 25.9801 114.508 25.8601C114.352 25.7281 114.274 25.5181 114.274 25.2301V21.1801ZM116.038 22.0621H114.274V17.5801C114.346 17.5561 114.454 17.5321 114.598 17.5081C114.754 17.4721 114.922 17.4541 115.102 17.4541C115.426 17.4541 115.66 17.5141 115.804 17.6341C115.96 17.7541 116.038 17.9641 116.038 18.2641V22.0621ZM126.154 20.4061V22.2061H124.39V20.4961C124.39 19.8841 124.216 19.4341 123.868 19.1461C123.52 18.8581 123.058 18.7141 122.482 18.7141C122.05 18.7141 121.66 18.7681 121.312 18.8761C120.976 18.9841 120.682 19.1101 120.43 19.2541V22.2061H118.666V19.2361C118.666 18.9721 118.72 18.7561 118.828 18.5881C118.948 18.4081 119.128 18.2401 119.368 18.0841C119.704 17.8801 120.142 17.7001 120.682 17.5441C121.222 17.3761 121.822 17.2921 122.482 17.2921C123.634 17.2921 124.534 17.5501 125.182 18.0661C125.83 18.5821 126.154 19.3621 126.154 20.4061ZM118.666 21.2701H120.43V25.8961C120.358 25.9201 120.25 25.9501 120.106 25.9861C119.962 26.0221 119.806 26.0401 119.638 26.0401C119.314 26.0401 119.068 25.9801 118.9 25.8601C118.744 25.7281 118.666 25.5181 118.666 25.2301V21.2701ZM124.39 21.2701H126.154V25.8961C126.082 25.9201 125.968 25.9501 125.812 25.9861C125.668 26.0221 125.512 26.0401 125.344 26.0401C125.02 26.0401 124.78 25.9801 124.624 25.8601C124.468 25.7281 124.39 25.5181 124.39 25.2301V21.2701ZM141.723 21.7381C141.723 22.6381 141.549 23.4241 141.201 24.0961C140.853 24.7561 140.361 25.2721 139.725 25.6441C139.101 26.0041 138.363 26.1841 137.511 26.1841C136.659 26.1841 135.915 26.0041 135.279 25.6441C134.643 25.2721 134.151 24.7561 133.803 24.0961C133.455 23.4241 133.281 22.6381 133.281 21.7381C133.281 20.8261 133.455 20.0401 133.803 19.3801C134.163 18.7081 134.661 18.1921 135.297 17.8321C135.933 17.4721 136.671 17.2921 137.511 17.2921C138.351 17.2921 139.083 17.4781 139.707 17.8501C140.343 18.2101 140.835 18.7201 141.183 19.3801C141.543 20.0401 141.723 20.8261 141.723 21.7381ZM137.511 18.7141C136.767 18.7141 136.179 18.9841 135.747 19.5241C135.315 20.0521 135.099 20.7901 135.099 21.7381C135.099 22.6861 135.309 23.4241 135.729 23.9521C136.161 24.4801 136.755 24.7441 137.511 24.7441C138.267 24.7441 138.855 24.4801 139.275 23.9521C139.707 23.4121 139.923 22.6741 139.923 21.7381C139.923 20.7901 139.707 20.0521 139.275 19.5241C138.855 18.9841 138.267 18.7141 137.511 18.7141ZM151.291 20.4061V22.2061H149.527V20.4961C149.527 19.8841 149.353 19.4341 149.005 19.1461C148.657 18.8581 148.195 18.7141 147.619 18.7141C147.187 18.7141 146.797 18.7681 146.449 18.8761C146.113 18.9841 145.819 19.1101 145.567 19.2541V22.2061H143.803V19.2361C143.803 18.9721 143.857 18.7561 143.965 18.5881C144.085 18.4081 144.265 18.2401 144.505 18.0841C144.841 17.8801 145.279 17.7001 145.819 17.5441C146.359 17.3761 146.959 17.2921 147.619 17.2921C148.771 17.2921 149.671 17.5501 150.319 18.0661C150.967 18.5821 151.291 19.3621 151.291 20.4061ZM143.803 21.2701H145.567V25.8961C145.495 25.9201 145.387 25.9501 145.243 25.9861C145.099 26.0221 144.943 26.0401 144.775 26.0401C144.451 26.0401 144.205 25.9801 144.037 25.8601C143.881 25.7281 143.803 25.5181 143.803 25.2301V21.2701ZM149.527 21.2701H151.291V25.8961C151.219 25.9201 151.105 25.9501 150.949 25.9861C150.805 26.0221 150.649 26.0401 150.481 26.0401C150.157 26.0401 149.917 25.9801 149.761 25.8601C149.605 25.7281 149.527 25.5181 149.527 25.2301V21.2701Z" fill="white"/>
<path d="M129.706 42.5355C125.389 42.5355 121.872 45.8051 121.872 50.3116C121.872 54.8182 125.389 58.0897 129.706 58.0897C134.022 58.0897 137.539 54.7885 137.539 50.3116C137.539 45.8347 134.022 42.5355 129.706 42.5355ZM129.706 55.024C127.341 55.024 125.302 53.0824 125.302 50.3116C125.302 47.5408 127.341 45.5993 129.706 45.5993C132.071 45.5993 134.111 47.5151 134.111 50.3116C134.111 53.1081 132.071 55.024 129.706 55.024ZM112.621 42.5355C108.304 42.5355 104.787 45.8051 104.787 50.3116C104.787 54.8182 108.304 58.0897 112.621 58.0897C116.938 58.0897 120.45 54.7885 120.45 50.3116C120.45 45.8347 116.936 42.5355 112.621 42.5355ZM112.621 55.024C110.256 55.024 108.217 53.0824 108.217 50.3116C108.217 47.5408 110.256 45.5993 112.621 45.5993C114.986 45.5993 117.025 47.5151 117.025 50.3116C117.025 53.1081 114.986 55.024 112.621 55.024ZM92.2954 44.9204V48.2196H100.216C99.98 50.0741 99.3586 51.4298 98.4134 52.3719C97.2596 53.5238 95.4586 54.7865 92.2954 54.7865C87.4165 54.7865 83.604 50.8697 83.604 46.0069C83.604 41.1442 87.4165 37.2275 92.2954 37.2275C94.9265 37.2275 96.8446 38.2606 98.2644 39.5866L100.6 37.2591C98.6179 35.371 95.9908 33.9321 92.2954 33.9321C85.6156 33.9321 80 39.3511 80 46.0069C80 52.6629 85.6156 58.0877 92.2954 58.0877C95.8994 58.0877 98.6179 56.9062 100.747 54.6994C102.935 52.5204 103.614 49.4586 103.614 46.9827C103.614 46.2187 103.556 45.5102 103.439 44.9204H92.2954ZM175.414 47.4815C174.765 45.7438 172.788 42.5355 168.737 42.5355C164.686 42.5355 161.374 45.6883 161.374 50.3116C161.374 54.6717 164.686 58.0897 169.12 58.0897C172.697 58.0897 174.765 55.9086 175.621 54.642L172.962 52.8746C172.075 54.173 170.864 55.024 169.12 55.024C167.376 55.024 166.136 54.2284 165.338 52.6668L175.772 48.3681L175.414 47.4815ZM164.775 50.0741C164.688 47.0697 167.11 45.5399 168.854 45.5399C170.214 45.5399 171.368 46.2187 171.751 47.1905L164.775 50.0741ZM156.297 57.6167H159.726V34.7574H156.297V57.6167ZM150.676 44.2693H150.56C149.789 43.3589 148.312 42.5336 146.451 42.5336C142.551 42.5336 138.971 45.9515 138.971 50.3373C138.971 54.7231 142.549 58.0877 146.451 58.0877C148.312 58.0877 149.789 57.2624 150.56 56.3204H150.676V57.4405C150.676 60.4112 149.082 62.0045 146.511 62.0045C144.412 62.0045 143.112 60.5023 142.581 59.2337L139.593 60.4726C140.452 62.5349 142.726 65.0682 146.511 65.0682C150.532 65.0682 153.929 62.709 153.929 56.9655V43.0046H150.678V44.2673L150.676 44.2693ZM146.747 55.024C144.382 55.024 142.403 53.0488 142.403 50.3394C142.403 47.6298 144.384 45.5973 146.747 45.5973C149.11 45.5973 150.913 47.6002 150.913 50.3394C150.913 53.0785 149.08 55.024 146.747 55.024ZM191.475 34.7594H183.274V57.6167H186.693V48.954H191.475C195.268 48.954 199.001 46.2187 199.001 41.8547C199.001 37.4907 195.27 34.7594 191.475 34.7594ZM191.562 45.7754H186.693V37.9379H191.562C194.121 37.9379 195.577 40.0478 195.577 41.8547C195.577 43.6617 194.121 45.7754 191.562 45.7754ZM212.722 42.49C210.24 42.49 207.674 43.5806 206.612 45.9891L209.652 47.2558C210.297 45.9891 211.511 45.5794 212.779 45.5794C214.549 45.5794 216.348 46.6403 216.377 48.5225V48.758C215.757 48.4057 214.43 47.8733 212.805 47.8733C209.531 47.8733 206.199 49.6664 206.199 53.021C206.199 56.0809 208.881 58.0521 211.892 58.0521C214.195 58.0521 215.46 57.023 216.256 55.8177H216.375V57.5791H219.681V48.8174C219.681 44.7621 216.642 42.492 212.718 42.492M212.305 55.0161C211.185 55.0161 209.618 54.4619 209.618 53.0765C209.618 51.3131 211.566 50.6362 213.249 50.6362C214.753 50.6362 215.462 50.9628 216.377 51.4001C216.111 53.5199 214.282 55.0161 212.305 55.0161ZM231.721 42.9947L227.797 52.9023H227.678L223.609 42.9947H219.92L226.028 56.8429L222.543 64.5496H226.115L235.528 42.9947H231.721ZM200.887 57.6167H204.31V34.7574H200.887V57.6167Z" fill="white"/>
<defs>
<linearGradient id="paint0_linear_1148_8448" x1="19.0015" y1="40.0098" x2="61.006" y2="40.0098" gradientUnits="userSpaceOnUse">
<stop stop-color="#63BE6B"/>
<stop offset="0.506" stop-color="#5BBC6A"/>
<stop offset="1" stop-color="#4AB96A"/>
</linearGradient>
<linearGradient id="paint1_linear_1148_8448" x1="18.9903" y1="40.006" x2="60.9743" y2="40.006" gradientUnits="userSpaceOnUse">
<stop stop-color="#3EC6F2"/>
<stop offset="1" stop-color="#45AFE3"/>
</linearGradient>
<linearGradient id="paint2_linear_1148_8448" x1="19.0191" y1="40.0179" x2="60.9942" y2="40.0179" gradientUnits="userSpaceOnUse">
<stop stop-color="#FAA51A"/>
<stop offset="0.387" stop-color="#FAB716"/>
<stop offset="0.741" stop-color="#FAC412"/>
<stop offset="1" stop-color="#FAC80F"/>
</linearGradient>
<linearGradient id="paint3_linear_1148_8448" x1="19.181" y1="51.5256" x2="47.03" y2="51.5256" gradientUnits="userSpaceOnUse">
<stop stop-color="#EC3B50"/>
<stop offset="1" stop-color="#E7515B"/>
</linearGradient>
</defs>
</svg>
