<svg width="127" height="108" viewBox="0 0 127 108" fill="none" xmlns="http://www.w3.org/2000/svg">
<path d="M77.7992 8.06592H49.1948C43.8375 8.06592 39.5 12.4039 39.5 17.7619V46.3759C39.5 51.7279 43.8375 56.0659 49.1948 56.0659H77.8052C83.1565 56.0659 87.5 51.7279 87.5 46.3699V17.7619C87.494 12.4039 83.1565 8.06592 77.7992 8.06592Z" fill="url(#paint0_linear_2686_3530)"/>
<path d="M63.293 19.0939L64.2649 17.4139C64.8648 16.3639 66.2027 16.0099 67.2525 16.6099C68.3024 17.2099 68.6564 18.5479 68.0564 19.5979L58.6916 35.8099H65.4648C67.6605 35.8099 68.8903 38.3899 67.9364 40.1779H48.0789C46.8671 40.1779 45.8952 39.2059 45.8952 37.9939C45.8952 36.7819 46.8671 35.8099 48.0789 35.8099H53.6462L60.7733 23.4559L58.5476 19.5919C57.9477 18.5419 58.3017 17.2159 59.3515 16.6039C60.4014 16.0039 61.7272 16.3579 62.3392 17.4079L63.293 19.0939ZM54.8701 42.4279L52.7703 46.0699C52.1704 47.1199 50.8326 47.4739 49.7827 46.8739C48.7329 46.2739 48.3789 44.9359 48.9788 43.8859L50.5386 41.1859C52.3024 40.6399 53.7362 41.0599 54.8701 42.4279ZM72.9518 35.8219H78.6331C79.845 35.8219 80.8168 36.7939 80.8168 38.0059C80.8168 39.2179 79.845 40.1899 78.6331 40.1899H75.4775L77.6072 43.8859C78.2072 44.9359 77.8532 46.2619 76.8033 46.8739C75.7535 47.4739 74.4276 47.1199 73.8157 46.0699C70.2282 39.8479 67.5345 35.1919 65.7467 32.0899C63.917 28.9339 65.2248 25.7659 66.5146 24.6919C67.9484 27.1519 70.0902 30.8659 72.9518 35.8219Z" fill="white"/>
<path d="M6.35583 82.6019C6.67316 82.4153 7.14916 82.2379 7.78383 82.0699C8.43716 81.9019 9.0905 81.8179 9.74383 81.8179C10.6772 81.8179 11.4985 81.9579 12.2078 82.2379C12.9358 82.4993 13.4025 82.9193 13.6078 83.4979C13.9438 84.4686 14.3078 85.5979 14.6998 86.8859C15.0918 88.1739 15.4838 89.5086 15.8758 90.8899C16.2678 92.2526 16.6505 93.6059 17.0238 94.9499C17.3972 96.2753 17.7238 97.4513 18.0038 98.4779C17.7798 98.7393 17.4438 98.9446 16.9958 99.0939C16.5478 99.2619 16.0158 99.3459 15.3998 99.3459C14.9518 99.3459 14.5692 99.3086 14.2518 99.2339C13.9532 99.1593 13.7012 99.0473 13.4958 98.8979C13.3092 98.7486 13.1505 98.5526 13.0198 98.3099C12.9078 98.0673 12.8052 97.7873 12.7118 97.4699L12.2078 95.5379H7.13983C6.9905 96.0979 6.84116 96.6766 6.69183 97.2739C6.5425 97.8713 6.39316 98.4499 6.24383 99.0099C5.9825 99.1033 5.7025 99.1779 5.40383 99.2339C5.12383 99.3086 4.7785 99.3459 4.36783 99.3459C3.41583 99.3459 2.70649 99.1873 2.23983 98.8699C1.79183 98.5339 1.56783 98.0766 1.56783 97.4979C1.56783 97.2366 1.60516 96.9753 1.67983 96.7139C1.75449 96.4526 1.83849 96.1446 1.93183 95.7899C2.06249 95.2859 2.23983 94.6606 2.46383 93.9139C2.70649 93.1673 2.96783 92.3646 3.24783 91.5059C3.52783 90.6286 3.82649 89.7326 4.14383 88.8179C4.46116 87.9033 4.75983 87.0446 5.03983 86.2419C5.31983 85.4206 5.57183 84.6926 5.79583 84.0579C6.0385 83.4233 6.22516 82.9379 6.35583 82.6019ZM9.71583 86.2139C9.4545 86.9979 9.15583 87.8753 8.81983 88.8459C8.5025 89.7979 8.21316 90.7686 7.95183 91.7579H11.4238C11.1625 90.7499 10.8918 89.7699 10.6118 88.8179C10.3505 87.8473 10.1078 86.9793 9.88383 86.2139H9.71583ZM26.1785 85.0379C27.2985 85.0379 28.3345 85.1873 29.2865 85.4859C30.2572 85.7659 31.0878 86.2046 31.7785 86.8019C32.4692 87.3993 33.0105 88.1553 33.4025 89.0699C33.7945 89.9659 33.9905 91.0393 33.9905 92.2899C33.9905 93.4846 33.8225 94.5299 33.4865 95.4259C33.1505 96.3219 32.6745 97.0779 32.0585 97.6939C31.4425 98.2913 30.6958 98.7393 29.8185 99.0379C28.9598 99.3366 27.9985 99.4859 26.9345 99.4859C26.1318 99.4859 25.3852 99.3646 24.6945 99.1219V103.77C24.5078 103.826 24.2092 103.882 23.7985 103.938C23.3878 104.013 22.9678 104.05 22.5385 104.05C22.1278 104.05 21.7545 104.022 21.4185 103.966C21.1012 103.91 20.8305 103.798 20.6065 103.63C20.3825 103.462 20.2145 103.229 20.1025 102.93C19.9905 102.65 19.9345 102.277 19.9345 101.81V88.3699C19.9345 87.8659 20.0372 87.4553 20.2425 87.1379C20.4665 86.8206 20.7652 86.5313 21.1385 86.2699C21.7172 85.8966 22.4358 85.5979 23.2945 85.3739C24.1532 85.1499 25.1145 85.0379 26.1785 85.0379ZM26.2345 95.7339C28.1572 95.7339 29.1185 94.5859 29.1185 92.2899C29.1185 91.0953 28.8758 90.2086 28.3905 89.6299C27.9238 89.0513 27.2425 88.7619 26.3465 88.7619C25.9918 88.7619 25.6745 88.8086 25.3945 88.9019C25.1145 88.9766 24.8718 89.0699 24.6665 89.1819V95.3419C24.8905 95.4539 25.1332 95.5473 25.3945 95.6219C25.6558 95.6966 25.9358 95.7339 26.2345 95.7339ZM42.5574 85.0379C43.6774 85.0379 44.7134 85.1873 45.6654 85.4859C46.6361 85.7659 47.4668 86.2046 48.1574 86.8019C48.8481 87.3993 49.3894 88.1553 49.7814 89.0699C50.1734 89.9659 50.3694 91.0393 50.3694 92.2899C50.3694 93.4846 50.2014 94.5299 49.8654 95.4259C49.5294 96.3219 49.0534 97.0779 48.4374 97.6939C47.8214 98.2913 47.0748 98.7393 46.1974 99.0379C45.3388 99.3366 44.3774 99.4859 43.3134 99.4859C42.5108 99.4859 41.7641 99.3646 41.0734 99.1219V103.77C40.8868 103.826 40.5881 103.882 40.1774 103.938C39.7668 104.013 39.3468 104.05 38.9174 104.05C38.5068 104.05 38.1334 104.022 37.7974 103.966C37.4801 103.91 37.2094 103.798 36.9854 103.63C36.7614 103.462 36.5934 103.229 36.4814 102.93C36.3694 102.65 36.3134 102.277 36.3134 101.81V88.3699C36.3134 87.8659 36.4161 87.4553 36.6214 87.1379C36.8454 86.8206 37.1441 86.5313 37.5174 86.2699C38.0961 85.8966 38.8148 85.5979 39.6734 85.3739C40.5321 85.1499 41.4934 85.0379 42.5574 85.0379ZM42.6134 95.7339C44.5361 95.7339 45.4974 94.5859 45.4974 92.2899C45.4974 91.0953 45.2548 90.2086 44.7694 89.6299C44.3028 89.0513 43.6214 88.7619 42.7254 88.7619C42.3708 88.7619 42.0534 88.8086 41.7734 88.9019C41.4934 88.9766 41.2508 89.0699 41.0454 89.1819V95.3419C41.2694 95.4539 41.5121 95.5473 41.7734 95.6219C42.0348 95.6966 42.3148 95.7339 42.6134 95.7339ZM63.4778 92.3179C62.6565 92.0379 61.9098 91.7579 61.2378 91.4779C60.5658 91.1793 59.9871 90.8246 59.5018 90.4139C59.0165 90.0033 58.6338 89.5179 58.3538 88.9579C58.0925 88.3793 57.9618 87.6793 57.9618 86.8579C57.9618 85.2713 58.5685 84.0019 59.7818 83.0499C61.0138 82.0979 62.7311 81.6219 64.9338 81.6219C65.7365 81.6219 66.4831 81.6779 67.1738 81.7899C67.8645 81.9019 68.4525 82.0793 68.9378 82.3219C69.4418 82.5459 69.8338 82.8446 70.1138 83.2179C70.3938 83.5726 70.5338 83.9926 70.5338 84.4779C70.5338 84.9633 70.4218 85.3833 70.1978 85.7379C69.9738 86.0739 69.7031 86.3633 69.3858 86.6059C68.9751 86.3446 68.4245 86.1206 67.7338 85.9339C67.0431 85.7286 66.2871 85.6259 65.4658 85.6259C64.6258 85.6259 64.0098 85.7473 63.6178 85.9899C63.2258 86.2139 63.0298 86.5033 63.0298 86.8579C63.0298 87.1379 63.1511 87.3713 63.3938 87.5579C63.6365 87.7259 64.0005 87.8846 64.4858 88.0339L65.9698 88.5099C67.7245 89.0699 69.0685 89.7886 70.0018 90.6659C70.9538 91.5246 71.4298 92.7006 71.4298 94.1939C71.4298 95.7806 70.8045 97.0686 69.5538 98.0579C68.3031 99.0286 66.4645 99.5139 64.0378 99.5139C63.1791 99.5139 62.3765 99.4393 61.6298 99.2899C60.9018 99.1593 60.2578 98.9633 59.6978 98.7019C59.1565 98.4219 58.7271 98.0859 58.4098 97.6939C58.1111 97.2833 57.9618 96.8166 57.9618 96.2939C57.9618 95.7526 58.1205 95.2953 58.4378 94.9219C58.7551 94.5299 59.1005 94.2313 59.4738 94.0259C59.9965 94.4366 60.6311 94.7913 61.3778 95.0899C62.1431 95.3886 62.9738 95.5379 63.8698 95.5379C64.7845 95.5379 65.4285 95.3979 65.8018 95.1179C66.1751 94.8379 66.3618 94.5113 66.3618 94.1379C66.3618 93.7646 66.2125 93.4846 65.9138 93.2979C65.6151 93.0926 65.1951 92.8966 64.6538 92.7099L63.4778 92.3179ZM78.4797 94.3899C78.4797 94.8753 78.629 95.2206 78.9277 95.4259C79.245 95.6313 79.6837 95.7339 80.2437 95.7339C80.5237 95.7339 80.813 95.7153 81.1117 95.6779C81.4103 95.6219 81.6717 95.5566 81.8957 95.4819C82.0637 95.6873 82.2037 95.9206 82.3157 96.1819C82.4463 96.4246 82.5117 96.7233 82.5117 97.0779C82.5117 97.7873 82.241 98.3659 81.6997 98.8139C81.177 99.2619 80.2437 99.4859 78.8997 99.4859C77.257 99.4859 75.9877 99.1126 75.0917 98.3659C74.2143 97.6193 73.7757 96.4059 73.7757 94.7259V82.7419C73.981 82.6859 74.2703 82.6299 74.6437 82.5739C75.0357 82.4992 75.4463 82.4619 75.8757 82.4619C76.697 82.4619 77.3317 82.6113 77.7797 82.9099C78.2463 83.1899 78.4797 83.7966 78.4797 84.7299V86.5219H82.1477C82.2597 86.7273 82.3623 86.9886 82.4557 87.3059C82.5677 87.6046 82.6237 87.9406 82.6237 88.3139C82.6237 88.9673 82.4743 89.4433 82.1757 89.7419C81.8957 90.0219 81.513 90.1619 81.0277 90.1619H78.4797V94.3899ZM98.8505 92.2619C98.8505 93.4193 98.6732 94.4553 98.3185 95.3699C97.9639 96.2659 97.4599 97.0219 96.8065 97.6379C96.1719 98.2539 95.4065 98.7206 94.5105 99.0379C93.6145 99.3553 92.6159 99.5139 91.5145 99.5139C90.4132 99.5139 89.4145 99.3459 88.5185 99.0099C87.6225 98.6739 86.8479 98.1979 86.1945 97.5819C85.5599 96.9473 85.0652 96.1819 84.7105 95.2859C84.3559 94.3899 84.1785 93.3819 84.1785 92.2619C84.1785 91.1606 84.3559 90.1619 84.7105 89.2659C85.0652 88.3699 85.5599 87.6139 86.1945 86.9979C86.8479 86.3633 87.6225 85.8779 88.5185 85.5419C89.4145 85.2059 90.4132 85.0379 91.5145 85.0379C92.6159 85.0379 93.6145 85.2153 94.5105 85.5699C95.4065 85.9059 96.1719 86.3913 96.8065 87.0259C97.4599 87.6419 97.9639 88.3979 98.3185 89.2939C98.6732 90.1899 98.8505 91.1793 98.8505 92.2619ZM89.0505 92.2619C89.0505 93.4006 89.2652 94.2779 89.6945 94.8939C90.1425 95.4913 90.7585 95.7899 91.5425 95.7899C92.3265 95.7899 92.9239 95.4819 93.3345 94.8659C93.7639 94.2499 93.9785 93.3819 93.9785 92.2619C93.9785 91.1419 93.7639 90.2833 93.3345 89.6859C92.9052 89.0699 92.2985 88.7619 91.5145 88.7619C90.7305 88.7619 90.1239 89.0699 89.6945 89.6859C89.2652 90.2833 89.0505 91.1419 89.0505 92.2619ZM105.933 99.0379C105.746 99.0939 105.447 99.1499 105.037 99.2059C104.645 99.2619 104.234 99.2899 103.805 99.2899C103.394 99.2899 103.021 99.2619 102.685 99.2059C102.367 99.1499 102.097 99.0379 101.873 98.8699C101.649 98.7019 101.471 98.4779 101.341 98.1979C101.229 97.8993 101.173 97.5166 101.173 97.0499V88.6499C101.173 88.2206 101.247 87.8566 101.397 87.5579C101.565 87.2406 101.798 86.9606 102.097 86.7179C102.395 86.4753 102.759 86.2606 103.189 86.0739C103.637 85.8686 104.113 85.6913 104.617 85.5419C105.121 85.3926 105.643 85.2806 106.185 85.2059C106.726 85.1126 107.267 85.0659 107.809 85.0659C108.705 85.0659 109.414 85.2433 109.937 85.5979C110.459 85.9339 110.721 86.4939 110.721 87.2779C110.721 87.5393 110.683 87.8006 110.609 88.0619C110.534 88.3046 110.441 88.5286 110.329 88.7339C109.937 88.7339 109.535 88.7526 109.125 88.7899C108.714 88.8273 108.313 88.8833 107.921 88.9579C107.529 89.0326 107.155 89.1166 106.801 89.2099C106.465 89.2846 106.175 89.3779 105.933 89.4899V99.0379ZM119.361 99.5139C118.26 99.5139 117.233 99.3646 116.281 99.0659C115.348 98.7486 114.526 98.2819 113.817 97.6659C113.126 97.0499 112.576 96.2753 112.165 95.3419C111.773 94.4086 111.577 93.3166 111.577 92.0659C111.577 90.8339 111.773 89.7793 112.165 88.9019C112.576 88.0059 113.108 87.2779 113.761 86.7179C114.414 86.1393 115.161 85.7193 116.001 85.4579C116.841 85.1779 117.7 85.0379 118.577 85.0379C119.566 85.0379 120.462 85.1873 121.265 85.4859C122.086 85.7846 122.786 86.1953 123.365 86.7179C123.962 87.2406 124.42 87.8659 124.737 88.5939C125.073 89.3219 125.241 90.1153 125.241 90.9739C125.241 91.6086 125.064 92.0939 124.709 92.4299C124.354 92.7659 123.86 92.9806 123.225 93.0739L116.309 94.1099C116.514 94.7259 116.934 95.1926 117.569 95.5099C118.204 95.8086 118.932 95.9579 119.753 95.9579C120.518 95.9579 121.237 95.8646 121.909 95.6779C122.6 95.4726 123.16 95.2393 123.589 94.9779C123.888 95.1646 124.14 95.4259 124.345 95.7619C124.55 96.0979 124.653 96.4526 124.653 96.8259C124.653 97.6659 124.261 98.2913 123.477 98.7019C122.88 99.0193 122.208 99.2339 121.461 99.3459C120.714 99.4579 120.014 99.5139 119.361 99.5139ZM118.577 88.5099C118.129 88.5099 117.737 88.5846 117.401 88.7339C117.084 88.8833 116.822 89.0793 116.617 89.3219C116.412 89.5459 116.253 89.8073 116.141 90.1059C116.048 90.3859 115.992 90.6753 115.973 90.9739L120.761 90.1899C120.705 89.8166 120.5 89.4433 120.145 89.0699C119.79 88.6966 119.268 88.5099 118.577 88.5099Z" fill="#505050"/>
<defs>
<linearGradient id="paint0_linear_2686_3530" x1="63.5" y1="8.06592" x2="63.5" y2="56.0659" gradientUnits="userSpaceOnUse">
<stop stop-color="#18BFFB"/>
<stop offset="1" stop-color="#2072F3"/>
</linearGradient>
</defs>
</svg>
