<svg width="243" height="80" viewBox="0 0 243 80" fill="none" xmlns="http://www.w3.org/2000/svg">
<rect y="0.000244141" width="243" height="80" rx="8" fill="black"/>
<path d="M46.363 26.1077H33.637C32.2303 26.1077 31.0903 24.9764 31.0903 23.5802C31.0903 22.1866 32.2303 21.0552 33.637 21.0552H46.363C47.7697 21.0552 48.9097 22.1866 48.9097 23.5802C48.9097 24.9764 47.7697 26.1077 46.363 26.1077ZM12 16.0002V60.2115C12 62.2944 13.7188 64.0002 15.8176 64.0002H64.1824C66.2812 64.0002 68 62.2944 68 60.2115V16.0002H12Z" fill="#EEEEEE"/>
<path d="M40.0011 36.2102C31.4651 36.2102 23.9634 40.5984 19.6602 47.2268V63.9977H31.45L40.0011 49.2972H61.545C57.5412 41.5299 49.3953 36.2102 40.0011 36.2102Z" fill="#DB4437"/>
<path d="M19.653 47.2368C17.2271 50.9781 15.8179 55.4312 15.8179 60.2115C15.8179 61.5002 15.921 62.7664 16.1199 64.0002H29.5027L19.653 47.2368Z" fill="#0F9D58"/>
<path d="M64.1827 60.2115C64.1827 56.2829 63.2314 52.5741 61.5453 49.2998H40.0015L48.5526 64.0003H63.8807C64.0795 62.7665 64.1827 61.5002 64.1827 60.2115Z" fill="#FFCD40"/>
<path d="M40.0014 49.2998C33.9291 49.2998 29.0093 54.185 29.0093 60.2115C29.0093 61.5452 29.2509 62.8214 29.6913 64.0003H32.0769C31.5182 62.8539 31.2062 61.5677 31.2062 60.2115C31.2062 55.3888 35.1445 51.4826 40.0014 51.4826C44.8583 51.4826 48.7966 55.3888 48.7966 60.2115C48.7966 61.5702 48.4846 62.8539 47.9259 64.0003H50.3116C50.752 62.8189 50.9935 61.5427 50.9935 60.2115C50.9935 54.185 46.0712 49.2998 40.0014 49.2998Z" fill="#F1F1F1"/>
<path d="M40.0013 51.4827C35.1444 51.4827 31.2061 55.3888 31.2061 60.2115C31.2061 61.5702 31.5181 62.8539 32.0768 64.0003H47.9258C48.4844 62.8539 48.7965 61.5677 48.7965 60.2115C48.794 55.3888 44.8581 51.4827 40.0013 51.4827Z" fill="#4285F4"/>
<path opacity="0.05" d="M12 16.0002V40.0015H68V16.0002H12ZM46.363 26.1077H33.637C32.2303 26.1077 31.0903 24.9764 31.0903 23.5802C31.0903 22.1866 32.2303 21.0552 33.637 21.0552H46.3655C47.7723 21.0552 48.9122 22.1866 48.9122 23.5802C48.9097 24.9764 47.7697 26.1077 46.363 26.1077Z" fill="#212121"/>
<path opacity="0.02" d="M68 39.6843H12V40.0015H68V39.6843Z" fill="#212121"/>
<path opacity="0.05" d="M68 40.0015H12V40.3187H68V40.0015Z" fill="white"/>
<path opacity="0.02" d="M12 16.0002V16.3174H68V16.0002H12ZM46.363 26.1077H33.637C32.2856 26.1077 31.1809 25.0588 31.1003 23.7401C31.0928 23.7925 31.0903 23.845 31.0903 23.8974C31.0903 25.2935 32.2303 26.4224 33.637 26.4224H46.363C47.7697 26.4224 48.9097 25.2935 48.9097 23.8974C48.9097 23.845 48.9072 23.7925 48.8997 23.7401C48.8191 25.0563 47.7169 26.1077 46.363 26.1077Z" fill="#212121"/>
<path opacity="0.1" d="M64.1824 63.6831H15.8176C13.7188 63.6831 12 61.9798 12 59.8943V60.2115C12 62.2945 13.7188 64.0003 15.8176 64.0003H64.1824C66.2812 64.0003 68 62.2945 68 60.2115V59.8943C68 61.9798 66.2812 63.6831 64.1824 63.6831ZM33.637 21.0528H46.363C47.7144 21.0528 48.8191 22.1017 48.8997 23.4204C48.9022 23.368 48.9097 23.3155 48.9097 23.2631C48.9097 21.867 47.7697 20.7356 46.363 20.7356H33.637C32.2303 20.7356 31.0903 21.867 31.0903 23.2631C31.0903 23.3155 31.0928 23.368 31.1003 23.4204C31.1809 22.1017 32.2831 21.0528 33.637 21.0528Z" fill="#231F20"/>
<path d="M85.436 24.9691H85.364C85.196 25.4371 84.998 25.9891 84.77 26.6251C84.554 27.2611 84.326 27.9211 84.086 28.6051C83.858 29.2771 83.636 29.9191 83.42 30.5311L83.276 31.1431C83.204 31.3711 83.12 31.6351 83.024 31.9351C82.928 32.2351 82.826 32.5471 82.718 32.8711C82.61 33.1951 82.508 33.5011 82.412 33.7891C82.316 34.0771 82.238 34.3111 82.178 34.4911C82.082 34.5391 81.98 34.5751 81.872 34.5991C81.764 34.6231 81.626 34.6351 81.458 34.6351C81.194 34.6351 80.972 34.5751 80.792 34.4551C80.612 34.3231 80.522 34.1311 80.522 33.8791C80.522 33.7591 80.54 33.6391 80.576 33.5191C80.612 33.3871 80.654 33.2431 80.702 33.0871C80.834 32.6911 81.002 32.1991 81.206 31.6111C81.422 31.0111 81.65 30.3631 81.89 29.6671C82.142 28.9711 82.4 28.2631 82.664 27.5431C82.94 26.8231 83.198 26.1331 83.438 25.4731C83.69 24.8011 83.918 24.2131 84.122 23.7091C84.242 23.6371 84.422 23.5711 84.662 23.5111C84.902 23.4511 85.142 23.4211 85.382 23.4211C85.694 23.4211 85.982 23.4691 86.246 23.5651C86.522 23.6611 86.696 23.8111 86.768 24.0151C87.044 24.6991 87.338 25.4791 87.65 26.3551C87.962 27.2191 88.28 28.1251 88.604 29.0731C88.928 30.0091 89.234 30.9211 89.522 31.8091C89.81 32.6971 90.068 33.5011 90.296 34.2211C90.2 34.3411 90.068 34.4371 89.9 34.5091C89.732 34.5811 89.546 34.6171 89.342 34.6171C89.042 34.6171 88.82 34.5571 88.676 34.4371C88.532 34.3171 88.418 34.1191 88.334 33.8431L87.452 31.1611L87.254 30.3871C87.038 29.7031 86.816 29.0251 86.588 28.3531C86.36 27.6691 86.144 27.0331 85.94 26.4451C85.748 25.8571 85.58 25.3651 85.436 24.9691ZM82.448 31.6831L83.06 30.2431H87.884L88.19 31.6831H82.448ZM97.8976 25.9051C98.1496 25.9051 98.3536 25.9651 98.5096 26.0851C98.6656 26.2051 98.7436 26.3911 98.7436 26.6431C98.7436 26.8231 98.6776 27.1351 98.5456 27.5791C98.4256 28.0111 98.2576 28.5271 98.0416 29.1271C97.8376 29.7271 97.6036 30.3511 97.3396 30.9991C97.0876 31.6351 96.8296 32.2531 96.5656 32.8531C96.3136 33.4411 96.0796 33.9451 95.8636 34.3651C95.7796 34.4251 95.6416 34.4791 95.4496 34.5271C95.2696 34.5751 95.0716 34.5991 94.8556 34.5991C94.6036 34.5991 94.3756 34.5571 94.1716 34.4731C93.9796 34.4011 93.8476 34.2931 93.7756 34.1491C93.6436 33.8971 93.4756 33.5431 93.2716 33.0871C93.0676 32.6311 92.8456 32.1091 92.6056 31.5211C92.3776 30.9331 92.1436 30.3271 91.9036 29.7031C91.6636 29.0671 91.4416 28.4611 91.2376 27.8851C91.0456 27.2971 90.8896 26.7871 90.7696 26.3551C90.8656 26.2231 90.9976 26.1151 91.1656 26.0311C91.3456 25.9471 91.5256 25.9051 91.7056 25.9051C91.9696 25.9051 92.1736 25.9651 92.3176 26.0851C92.4736 26.2051 92.5936 26.4151 92.6776 26.7151L93.7216 29.8471C93.8176 30.1351 93.9316 30.4771 94.0636 30.8731C94.2076 31.2571 94.3456 31.6411 94.4776 32.0251C94.6216 32.3971 94.7356 32.7091 94.8196 32.9611H94.9096C95.3296 31.8091 95.7316 30.6571 96.1156 29.5051C96.5116 28.3411 96.8476 27.2011 97.1236 26.0851C97.3396 25.9651 97.5976 25.9051 97.8976 25.9051ZM103.605 33.3391C104.049 33.3391 104.427 33.2971 104.739 33.2131C105.051 33.1171 105.279 33.0211 105.423 32.9251V30.5491L103.371 30.7651C102.807 30.8011 102.381 30.9271 102.093 31.1431C101.817 31.3471 101.679 31.6471 101.679 32.0431C101.679 32.4391 101.835 32.7571 102.147 32.9971C102.471 33.2251 102.957 33.3391 103.605 33.3391ZM103.569 25.8331C104.661 25.8331 105.531 26.0731 106.179 26.5531C106.827 27.0331 107.151 27.7891 107.151 28.8211V33.0331C107.151 33.3091 107.091 33.5251 106.971 33.6811C106.851 33.8251 106.689 33.9631 106.485 34.0951C106.173 34.2631 105.771 34.4071 105.279 34.5271C104.787 34.6591 104.229 34.7251 103.605 34.7251C102.453 34.7251 101.553 34.5031 100.905 34.0591C100.257 33.6031 99.9329 32.9431 99.9329 32.0791C99.9329 31.2871 100.191 30.6811 100.707 30.2611C101.223 29.8411 101.955 29.5831 102.903 29.4871L105.423 29.2351V28.8211C105.423 28.2691 105.243 27.8671 104.883 27.6151C104.535 27.3631 104.061 27.2371 103.461 27.2371C102.981 27.2371 102.513 27.3031 102.057 27.4351C101.613 27.5671 101.217 27.7231 100.869 27.9031C100.761 27.8071 100.665 27.6931 100.581 27.5611C100.497 27.4291 100.455 27.2911 100.455 27.1471C100.455 26.7751 100.659 26.4991 101.067 26.3191C101.391 26.1631 101.769 26.0431 102.201 25.9591C102.645 25.8751 103.101 25.8331 103.569 25.8331ZM109.506 23.4751C109.506 23.1871 109.608 22.9411 109.812 22.7371C110.016 22.5331 110.274 22.4311 110.586 22.4311C110.91 22.4311 111.168 22.5331 111.36 22.7371C111.564 22.9411 111.666 23.1871 111.666 23.4751C111.666 23.7751 111.564 24.0271 111.36 24.2311C111.168 24.4231 110.91 24.5191 110.586 24.5191C110.274 24.5191 110.016 24.4231 109.812 24.2311C109.608 24.0271 109.506 23.7751 109.506 23.4751ZM109.704 29.7211H111.468V34.4371C111.396 34.4611 111.288 34.4911 111.144 34.5271C111 34.5631 110.838 34.5811 110.658 34.5811C110.346 34.5811 110.106 34.5211 109.938 34.4011C109.782 34.2691 109.704 34.0591 109.704 33.7711V29.7211ZM111.468 30.6031H109.704V26.1211C109.776 26.0971 109.884 26.0731 110.028 26.0491C110.184 26.0131 110.352 25.9951 110.532 25.9951C110.856 25.9951 111.09 26.0551 111.234 26.1751C111.39 26.2951 111.468 26.5051 111.468 26.8051V30.6031ZM114.275 29.7211L116.039 29.9011V34.4371C115.967 34.4611 115.853 34.4911 115.697 34.5271C115.553 34.5631 115.397 34.5811 115.229 34.5811C114.905 34.5811 114.665 34.5211 114.509 34.4011C114.353 34.2691 114.275 34.0591 114.275 33.7711V29.7211ZM116.039 30.7651L114.275 30.6031V22.7911C114.347 22.7671 114.455 22.7431 114.599 22.7191C114.755 22.6831 114.917 22.6651 115.085 22.6651C115.409 22.6651 115.649 22.7251 115.805 22.8451C115.961 22.9651 116.039 23.1751 116.039 23.4751V30.7651ZM121.833 33.3391C122.277 33.3391 122.655 33.2971 122.967 33.2131C123.279 33.1171 123.507 33.0211 123.651 32.9251V30.5491L121.599 30.7651C121.035 30.8011 120.609 30.9271 120.321 31.1431C120.045 31.3471 119.907 31.6471 119.907 32.0431C119.907 32.4391 120.063 32.7571 120.375 32.9971C120.699 33.2251 121.185 33.3391 121.833 33.3391ZM121.797 25.8331C122.889 25.8331 123.759 26.0731 124.407 26.5531C125.055 27.0331 125.379 27.7891 125.379 28.8211V33.0331C125.379 33.3091 125.319 33.5251 125.199 33.6811C125.079 33.8251 124.917 33.9631 124.713 34.0951C124.401 34.2631 123.999 34.4071 123.507 34.5271C123.015 34.6591 122.457 34.7251 121.833 34.7251C120.681 34.7251 119.781 34.5031 119.133 34.0591C118.485 33.6031 118.161 32.9431 118.161 32.0791C118.161 31.2871 118.419 30.6811 118.935 30.2611C119.451 29.8411 120.183 29.5831 121.131 29.4871L123.651 29.2351V28.8211C123.651 28.2691 123.471 27.8671 123.111 27.6151C122.763 27.3631 122.289 27.2371 121.689 27.2371C121.209 27.2371 120.741 27.3031 120.285 27.4351C119.841 27.5671 119.445 27.7231 119.097 27.9031C118.989 27.8071 118.893 27.6931 118.809 27.5611C118.725 27.4291 118.683 27.2911 118.683 27.1471C118.683 26.7751 118.887 26.4991 119.295 26.3191C119.619 26.1631 119.997 26.0431 120.429 25.9591C120.873 25.8751 121.329 25.8331 121.797 25.8331ZM131.784 25.8331C132.54 25.8331 133.218 25.9951 133.818 26.3191C134.43 26.6431 134.91 27.1351 135.258 27.7951C135.606 28.4431 135.78 29.2651 135.78 30.2611C135.78 31.2691 135.594 32.1031 135.222 32.7631C134.862 33.4231 134.358 33.9151 133.71 34.2391C133.074 34.5631 132.324 34.7251 131.46 34.7251C130.836 34.7251 130.278 34.6471 129.786 34.4911C129.294 34.3351 128.892 34.1611 128.58 33.9691C128.328 33.8011 128.148 33.6391 128.04 33.4831C127.932 33.3151 127.878 33.0991 127.878 32.8351V26.9131H129.642V32.7811C129.81 32.9011 130.05 33.0151 130.362 33.1231C130.686 33.2311 131.052 33.2851 131.46 33.2851C132.216 33.2851 132.822 33.0391 133.278 32.5471C133.746 32.0551 133.98 31.2931 133.98 30.2611C133.98 29.2171 133.746 28.4551 133.278 27.9751C132.822 27.4951 132.228 27.2551 131.496 27.2551C131.04 27.2551 130.632 27.3451 130.272 27.5251C129.924 27.6931 129.636 27.8911 129.408 28.1191L129.192 26.6971C129.456 26.5051 129.804 26.3131 130.236 26.1211C130.668 25.9291 131.184 25.8331 131.784 25.8331ZM129.642 27.2911H127.878V22.7911C127.962 22.7671 128.076 22.7431 128.22 22.7191C128.376 22.6831 128.538 22.6651 128.706 22.6651C129.03 22.6651 129.264 22.7251 129.408 22.8451C129.564 22.9651 129.642 23.1751 129.642 23.4751V27.2911ZM138.006 29.7211L139.77 29.9011V34.4371C139.698 34.4611 139.584 34.4911 139.428 34.5271C139.284 34.5631 139.128 34.5811 138.96 34.5811C138.636 34.5811 138.396 34.5211 138.24 34.4011C138.084 34.2691 138.006 34.0591 138.006 33.7711V29.7211ZM139.77 30.7651L138.006 30.6031V22.7911C138.078 22.7671 138.186 22.7431 138.33 22.7191C138.486 22.6831 138.648 22.6651 138.816 22.6651C139.14 22.6651 139.38 22.7251 139.536 22.8451C139.692 22.9651 139.77 23.1751 139.77 23.4751V30.7651ZM143.152 31.2871L143.08 29.9731L148.246 29.2351C148.21 28.6591 148.006 28.1791 147.634 27.7951C147.262 27.4111 146.746 27.2191 146.086 27.2191C145.39 27.2191 144.814 27.4651 144.358 27.9571C143.914 28.4371 143.686 29.1331 143.674 30.0451L143.692 30.6751C143.788 31.5511 144.094 32.2111 144.61 32.6551C145.138 33.0871 145.834 33.3031 146.698 33.3031C147.202 33.3031 147.664 33.2251 148.084 33.0691C148.504 32.9131 148.834 32.7391 149.074 32.5471C149.218 32.6431 149.332 32.7571 149.416 32.8891C149.512 33.0211 149.56 33.1711 149.56 33.3391C149.56 33.6031 149.428 33.8431 149.164 34.0591C148.9 34.2631 148.546 34.4251 148.102 34.5451C147.658 34.6651 147.154 34.7251 146.59 34.7251C145.666 34.7251 144.856 34.5571 144.16 34.2211C143.476 33.8731 142.942 33.3631 142.558 32.6911C142.174 32.0191 141.982 31.1911 141.982 30.2071C141.982 29.4991 142.084 28.8751 142.288 28.3351C142.504 27.7951 142.798 27.3391 143.17 26.9671C143.542 26.5951 143.974 26.3131 144.466 26.1211C144.97 25.9291 145.51 25.8331 146.086 25.8331C146.842 25.8331 147.508 25.9891 148.084 26.3011C148.66 26.6131 149.11 27.0511 149.434 27.6151C149.758 28.1791 149.92 28.8211 149.92 29.5411C149.92 29.8411 149.848 30.0571 149.704 30.1891C149.572 30.3211 149.374 30.4051 149.11 30.4411L143.152 31.2871ZM156.826 23.4751C156.826 23.1871 156.928 22.9411 157.132 22.7371C157.336 22.5331 157.594 22.4311 157.906 22.4311C158.23 22.4311 158.488 22.5331 158.68 22.7371C158.884 22.9411 158.986 23.1871 158.986 23.4751C158.986 23.7751 158.884 24.0271 158.68 24.2311C158.488 24.4231 158.23 24.5191 157.906 24.5191C157.594 24.5191 157.336 24.4231 157.132 24.2311C156.928 24.0271 156.826 23.7751 156.826 23.4751ZM157.024 29.7211H158.788V34.4371C158.716 34.4611 158.608 34.4911 158.464 34.5271C158.32 34.5631 158.158 34.5811 157.978 34.5811C157.666 34.5811 157.426 34.5211 157.258 34.4011C157.102 34.2691 157.024 34.0591 157.024 33.7711V29.7211ZM158.788 30.6031H157.024V26.1211C157.096 26.0971 157.204 26.0731 157.348 26.0491C157.504 26.0131 157.672 25.9951 157.852 25.9951C158.176 25.9951 158.41 26.0551 158.554 26.1751C158.71 26.2951 158.788 26.5051 158.788 26.8051V30.6031ZM168.904 28.9471V30.7471H167.14V29.0371C167.14 28.4251 166.966 27.9751 166.618 27.6871C166.27 27.3991 165.808 27.2551 165.232 27.2551C164.8 27.2551 164.41 27.3091 164.062 27.4171C163.726 27.5251 163.432 27.6511 163.18 27.7951V30.7471H161.416V27.7771C161.416 27.5131 161.47 27.2971 161.578 27.1291C161.698 26.9491 161.878 26.7811 162.118 26.6251C162.454 26.4211 162.892 26.2411 163.432 26.0851C163.972 25.9171 164.572 25.8331 165.232 25.8331C166.384 25.8331 167.284 26.0911 167.932 26.6071C168.58 27.1231 168.904 27.9031 168.904 28.9471ZM161.416 29.8111H163.18V34.4371C163.108 34.4611 163 34.4911 162.856 34.5271C162.712 34.5631 162.556 34.5811 162.388 34.5811C162.064 34.5811 161.818 34.5211 161.65 34.4011C161.494 34.2691 161.416 34.0591 161.416 33.7711V29.8111ZM167.14 29.8111H168.904V34.4371C168.832 34.4611 168.718 34.4911 168.562 34.5271C168.418 34.5631 168.262 34.5811 168.094 34.5811C167.77 34.5811 167.53 34.5211 167.374 34.4011C167.218 34.2691 167.14 34.0591 167.14 33.7711V29.8111ZM176.517 29.7211H178.263V32.0611C178.263 32.5051 178.395 32.8231 178.659 33.0151C178.923 33.1951 179.283 33.2851 179.739 33.2851C179.931 33.2851 180.147 33.2551 180.387 33.1951C180.627 33.1231 180.831 33.0451 180.999 32.9611C181.071 33.0451 181.137 33.1471 181.197 33.2671C181.269 33.3871 181.305 33.5251 181.305 33.6811C181.305 33.9811 181.143 34.2271 180.819 34.4191C180.507 34.6111 180.045 34.7071 179.433 34.7071C178.545 34.7071 177.837 34.5151 177.309 34.1311C176.781 33.7351 176.517 33.0811 176.517 32.1691V29.7211ZM177.489 27.6691V26.2471H181.107C181.143 26.3191 181.179 26.4211 181.215 26.5531C181.263 26.6731 181.287 26.8051 181.287 26.9491C181.287 27.1891 181.227 27.3691 181.107 27.4891C180.999 27.6091 180.849 27.6691 180.657 27.6691H177.489ZM178.263 30.2431H176.517V23.7271C176.589 23.7031 176.697 23.6791 176.841 23.6551C176.997 23.6191 177.159 23.6011 177.327 23.6011C177.651 23.6011 177.885 23.6611 178.029 23.7811C178.185 23.9011 178.263 24.1111 178.263 24.4111V30.2431ZM190.772 30.8731H189.008V29.2171C189.008 28.5451 188.822 28.0531 188.45 27.7411C188.078 27.4171 187.604 27.2551 187.028 27.2551C186.584 27.2551 186.17 27.3451 185.786 27.5251C185.414 27.6931 185.096 27.8911 184.832 28.1191L184.616 26.6971C184.904 26.5051 185.276 26.3131 185.732 26.1211C186.188 25.9291 186.71 25.8331 187.298 25.8331C188.33 25.8331 189.164 26.1091 189.8 26.6611C190.448 27.2131 190.772 28.0471 190.772 29.1631V30.8731ZM183.302 29.7211H185.066V34.4371C184.994 34.4611 184.886 34.4911 184.742 34.5271C184.598 34.5631 184.442 34.5811 184.274 34.5811C183.95 34.5811 183.704 34.5211 183.536 34.4011C183.38 34.2691 183.302 34.0591 183.302 33.7711V29.7211ZM189.008 29.7391L190.772 29.7571V34.4371C190.7 34.4611 190.586 34.4911 190.43 34.5271C190.286 34.5631 190.13 34.5811 189.962 34.5811C189.638 34.5811 189.398 34.5211 189.242 34.4011C189.086 34.2691 189.008 34.0591 189.008 33.7711V29.7391ZM185.066 30.6031H183.302V22.7911C183.386 22.7671 183.5 22.7431 183.644 22.7191C183.8 22.6831 183.962 22.6651 184.13 22.6651C184.454 22.6651 184.688 22.7251 184.832 22.8451C184.988 22.9651 185.066 23.1751 185.066 23.4751V30.6031ZM194.023 31.2871L193.951 29.9731L199.117 29.2351C199.081 28.6591 198.877 28.1791 198.505 27.7951C198.133 27.4111 197.617 27.2191 196.957 27.2191C196.261 27.2191 195.685 27.4651 195.229 27.9571C194.785 28.4371 194.557 29.1331 194.545 30.0451L194.563 30.6751C194.659 31.5511 194.965 32.2111 195.481 32.6551C196.009 33.0871 196.705 33.3031 197.569 33.3031C198.073 33.3031 198.535 33.2251 198.955 33.0691C199.375 32.9131 199.705 32.7391 199.945 32.5471C200.089 32.6431 200.203 32.7571 200.287 32.8891C200.383 33.0211 200.431 33.1711 200.431 33.3391C200.431 33.6031 200.299 33.8431 200.035 34.0591C199.771 34.2631 199.417 34.4251 198.973 34.5451C198.529 34.6651 198.025 34.7251 197.461 34.7251C196.537 34.7251 195.727 34.5571 195.031 34.2211C194.347 33.8731 193.813 33.3631 193.429 32.6911C193.045 32.0191 192.853 31.1911 192.853 30.2071C192.853 29.4991 192.955 28.8751 193.159 28.3351C193.375 27.7951 193.669 27.3391 194.041 26.9671C194.413 26.5951 194.845 26.3131 195.337 26.1211C195.841 25.9291 196.381 25.8331 196.957 25.8331C197.713 25.8331 198.379 25.9891 198.955 26.3011C199.531 26.6131 199.981 27.0511 200.305 27.6151C200.629 28.1791 200.791 28.8211 200.791 29.5411C200.791 29.8411 200.719 30.0571 200.575 30.1891C200.443 30.3211 200.245 30.4051 199.981 30.4411L194.023 31.2871Z" fill="white"/>
<path d="M86.9861 56.5273C85.0091 56.5273 83.3496 55.8615 82.0077 54.5196C80.6658 53.1777 80 51.508 80 49.5105C80 47.513 80.6658 45.8331 82.0077 44.5014C83.3496 43.1595 85.0091 42.4937 86.9861 42.4937C88.9631 42.4937 90.6636 43.2312 91.9235 44.6858L90.725 45.8535C89.8133 44.7165 88.5636 44.1429 86.9861 44.1429C85.5213 44.1429 84.2818 44.6346 83.2779 45.6282C82.2741 46.6218 81.7619 47.9125 81.7619 49.5105C81.7619 51.1085 82.2638 52.4094 83.2779 53.3928C84.2818 54.3864 85.5213 54.8781 86.9861 54.8781C88.6046 54.8781 89.9772 54.2225 91.1143 52.9216L92.3128 54.1201C91.6982 54.8576 90.9299 55.4415 90.008 55.8718C89.086 56.302 88.0719 56.5171 86.9861 56.5171V56.5273Z" fill="white"/>
<path d="M95.5803 42.7805V47.0214L95.5086 48.3018H95.5803C95.8261 47.8613 96.2256 47.4926 96.7583 47.1853C97.3012 46.8779 97.8748 46.7243 98.4895 46.7243C99.6265 46.7243 100.497 47.0726 101.102 47.7794C101.706 48.4759 102.003 49.4184 102.003 50.5964V56.2303H100.272V50.8627C100.272 49.1623 99.5138 48.312 97.9978 48.312C97.2807 48.312 96.7071 48.5989 96.2564 49.1623C95.8056 49.7359 95.5803 50.3915 95.5803 51.1393V56.2303H93.8491V42.7908H95.5803V42.7805Z" fill="white"/>
<path d="M105.763 56.22H104.032V47.0213H105.681V48.5271H105.753C105.927 48.0251 106.285 47.6154 106.828 47.2876C107.371 46.9598 107.904 46.7959 108.416 46.7959C108.928 46.7959 109.358 46.8676 109.707 47.0213L109.051 48.6397C108.826 48.5476 108.518 48.5066 108.129 48.5066C107.504 48.5066 106.951 48.7524 106.47 49.2441C105.988 49.7358 105.742 50.3914 105.742 51.1904V56.22H105.763Z" fill="white"/>
<path d="M111.089 48.1175C111.981 47.1853 113.107 46.7141 114.49 46.7141C115.873 46.7141 117 47.1853 117.891 48.1175C118.782 49.0496 119.223 50.2174 119.223 51.6208C119.223 53.0242 118.782 54.1919 117.891 55.1241C117 56.0562 115.873 56.5275 114.49 56.5275C113.107 56.5275 111.981 56.0665 111.089 55.1241C110.198 54.1919 109.758 53.0242 109.758 51.6208C109.758 50.2174 110.198 49.0496 111.089 48.1175ZM112.38 54.0383C112.974 54.6426 113.681 54.9499 114.49 54.9499C115.3 54.9499 116.006 54.6426 116.601 54.0383C117.195 53.4339 117.492 52.6247 117.492 51.6208C117.492 50.6169 117.195 49.8179 116.601 49.2033C116.006 48.5989 115.3 48.2916 114.49 48.2916C113.681 48.2916 112.974 48.5989 112.38 49.2033C111.786 49.8077 111.489 50.6169 111.489 51.6208C111.489 52.6247 111.786 53.4236 112.38 54.0383Z" fill="white"/>
<path d="M120.616 56.2202V47.0214H122.265V48.3019H122.337C122.603 47.8614 123.002 47.4926 123.545 47.1853C124.088 46.878 124.631 46.7244 125.174 46.7244C126.598 46.7244 127.571 47.3083 128.083 48.4863C128.831 47.3083 129.907 46.7244 131.29 46.7244C132.375 46.7244 133.195 47.0726 133.748 47.7692C134.301 48.4658 134.578 49.4082 134.578 50.5964V56.2304H132.847V50.8628C132.847 49.9408 132.683 49.275 132.345 48.896C132.007 48.517 131.494 48.3121 130.808 48.3121C130.122 48.3121 129.569 48.5989 129.128 49.1726C128.688 49.7462 128.462 50.4018 128.462 51.1393V56.2304H126.731V50.8628C126.731 49.9408 126.567 49.275 126.229 48.896C125.891 48.5067 125.379 48.3121 124.693 48.3121C124.006 48.3121 123.453 48.5989 123.013 49.1726C122.572 49.7462 122.347 50.4018 122.347 51.1393V56.2304H120.616V56.2202Z" fill="white"/>
<path d="M140.775 56.5275C139.382 56.5275 138.255 56.0665 137.384 55.1343C136.514 54.2124 136.083 53.0344 136.083 51.6208C136.083 50.2789 136.503 49.1316 137.354 48.1687C138.204 47.2058 139.28 46.7244 140.591 46.7244C141.902 46.7244 143.049 47.1648 143.869 48.056C144.688 48.9472 145.098 50.1355 145.098 51.6208L145.077 51.9383H137.815C137.866 52.8603 138.173 53.5978 138.747 54.1305C139.32 54.6734 139.986 54.9397 140.744 54.9397C141.984 54.9397 142.824 54.4173 143.264 53.3622L144.801 53.9973C144.504 54.7144 144.002 55.3085 143.315 55.7899C142.629 56.2714 141.779 56.5172 140.785 56.5172L140.775 56.5275ZM143.254 50.5145C143.213 49.9921 142.977 49.4901 142.527 49.0087C142.086 48.5375 141.42 48.2916 140.55 48.2916C139.915 48.2916 139.361 48.4965 138.89 48.896C138.419 49.2955 138.101 49.8384 137.927 50.5145H143.264H143.254Z" fill="white"/>
<path d="M166.015 42.7805L162.43 56.2201H160.668L157.78 47.3594H157.708L154.819 56.2201H153.057L149.318 42.7805H151.121L153.959 53.3519H154.03L156.94 44.5834H158.558L161.467 53.3519H161.539L164.223 42.7805H166.026H166.015Z" fill="white"/>
<path d="M170.502 56.5275C169.109 56.5275 167.982 56.0665 167.111 55.1343C166.241 54.2124 165.811 53.0344 165.811 51.6208C165.811 50.2789 166.231 49.1316 167.081 48.1687C167.931 47.2058 169.007 46.7244 170.318 46.7244C171.629 46.7244 172.776 47.1648 173.596 48.056C174.415 48.9472 174.825 50.1355 174.825 51.6208L174.804 51.9383H167.542C167.593 52.8603 167.9 53.5978 168.474 54.1305C169.048 54.6734 169.713 54.9397 170.471 54.9397C171.711 54.9397 172.551 54.4173 172.991 53.3622L174.528 53.9973C174.231 54.7144 173.729 55.3085 173.043 55.7899C172.356 56.2714 171.506 56.5172 170.512 56.5172L170.502 56.5275ZM172.981 50.5145C172.94 49.9921 172.704 49.4901 172.254 49.0087C171.813 48.5375 171.147 48.2916 170.277 48.2916C169.642 48.2916 169.088 48.4965 168.617 48.896C168.146 49.2955 167.829 49.8384 167.654 50.5145H172.991H172.981Z" fill="white"/>
<path d="M181.258 56.5274C180.561 56.5274 179.926 56.3737 179.373 56.0767C178.82 55.7796 178.4 55.4006 178.123 54.9499H178.052V56.2303H176.402V42.7908H178.134V47.0316L178.062 48.3121H178.134C178.41 47.8613 178.83 47.4823 179.383 47.1853C179.936 46.8882 180.571 46.7345 181.268 46.7345C182.456 46.7345 183.481 47.2058 184.351 48.1379C185.212 49.0803 185.652 50.2378 185.652 51.631C185.652 53.0241 185.222 54.1816 184.351 55.124C183.491 56.0664 182.456 56.5274 181.268 56.5274H181.258ZM180.981 54.9499C181.78 54.9499 182.467 54.6426 183.05 54.0382C183.634 53.4338 183.911 52.6246 183.911 51.6207C183.911 50.6169 183.624 49.8179 183.05 49.2032C182.477 48.5886 181.79 48.2916 180.981 48.2916C180.172 48.2916 179.475 48.5886 178.902 49.193C178.328 49.7974 178.052 50.5964 178.052 51.6105C178.052 52.6246 178.338 53.4338 178.902 54.028C179.475 54.6323 180.162 54.9294 180.981 54.9294V54.9499Z" fill="white"/>
<path d="M194.871 56.5273C193.898 56.5273 192.945 56.2098 192.003 55.5747C191.061 54.9396 190.456 54.0381 190.169 52.8909L191.747 52.2558C191.931 52.9933 192.321 53.6182 192.904 54.1201C193.488 54.622 194.144 54.8781 194.871 54.8781C195.599 54.8781 196.264 54.6835 196.797 54.284C197.33 53.8845 197.596 53.3518 197.596 52.6757C197.596 51.928 197.33 51.3441 196.797 50.9343C196.264 50.5246 195.424 50.1456 194.267 49.7973C193.079 49.4183 192.177 48.9368 191.563 48.3427C190.948 47.7486 190.641 46.9906 190.641 46.0584C190.641 45.1262 191.02 44.2555 191.788 43.5385C192.556 42.8214 193.55 42.4731 194.769 42.4731C195.906 42.4731 196.838 42.76 197.545 43.3234C198.262 43.897 198.723 44.5116 198.938 45.1877L197.36 45.8433C197.248 45.413 196.971 45.0238 196.52 44.6653C196.08 44.3067 195.506 44.1224 194.8 44.1224C194.134 44.1224 193.57 44.3067 193.099 44.6755C192.628 45.0443 192.392 45.5052 192.392 46.0584C192.392 46.5603 192.607 46.9803 193.038 47.3286C193.468 47.6769 194.103 47.9842 194.943 48.2608C195.609 48.4759 196.162 48.6807 196.602 48.8856C197.043 49.0905 197.494 49.3568 197.955 49.6846C198.416 50.0124 198.754 50.4324 198.989 50.9241C199.225 51.4158 199.337 51.9894 199.337 52.645C199.337 53.3006 199.204 53.8742 198.938 54.3864C198.672 54.8986 198.313 55.3083 197.873 55.6054C197.432 55.9025 196.951 56.1381 196.438 56.2917C195.926 56.4454 195.404 56.5273 194.861 56.5273H194.871Z" fill="white"/>
<path d="M204.675 56.3737C203.712 56.3737 202.974 56.1176 202.472 55.6054C201.97 55.0933 201.714 54.366 201.714 53.4236V48.5988H200.096V47.0213H201.714V44.2043H203.445V47.0213H205.699V48.5988H203.445V53.2904C203.445 54.2943 203.855 54.7962 204.685 54.7962C205.002 54.7962 205.258 54.745 205.474 54.6425L206.078 56.1279C205.699 56.2918 205.238 56.3737 204.685 56.3737H204.675Z" fill="white"/>
<path d="M208.055 48.1175C208.946 47.1853 210.073 46.7141 211.456 46.7141C212.839 46.7141 213.965 47.1853 214.857 48.1175C215.748 49.0496 216.188 50.2174 216.188 51.6208C216.188 53.0242 215.748 54.1919 214.857 55.1241C213.965 56.0562 212.839 56.5275 211.456 56.5275C210.073 56.5275 208.946 56.0665 208.055 55.1241C207.164 54.1919 206.723 53.0242 206.723 51.6208C206.723 50.2174 207.164 49.0496 208.055 48.1175ZM209.335 54.0383C209.929 54.6426 210.636 54.9499 211.445 54.9499C212.255 54.9499 212.961 54.6426 213.556 54.0383C214.15 53.4339 214.447 52.6247 214.447 51.6208C214.447 50.6169 214.15 49.8179 213.556 49.2033C212.961 48.5989 212.255 48.2916 211.445 48.2916C210.636 48.2916 209.929 48.5989 209.335 49.2033C208.741 49.8077 208.444 50.6169 208.444 51.6208C208.444 52.6247 208.741 53.4236 209.335 54.0383Z" fill="white"/>
<path d="M219.302 56.22H217.571V47.0213H219.221V48.5271H219.292C219.466 48.0251 219.825 47.6154 220.368 47.2876C220.911 46.9598 221.443 46.7959 221.956 46.7959C222.468 46.7959 222.898 46.8676 223.246 47.0213L222.591 48.6397C222.365 48.5476 222.058 48.5066 221.669 48.5066C221.044 48.5066 220.491 48.7524 220.009 49.2441C219.528 49.7358 219.282 50.3914 219.282 51.1904V56.22H219.302Z" fill="white"/>
<path d="M227.989 56.5275C226.596 56.5275 225.469 56.0665 224.598 55.1343C223.728 54.2124 223.297 53.0344 223.297 51.6208C223.297 50.2789 223.717 49.1316 224.568 48.1687C225.418 47.2058 226.493 46.7244 227.805 46.7244C229.116 46.7244 230.263 47.1648 231.082 48.056C231.902 48.9472 232.312 50.1355 232.312 51.6208L232.291 51.9383H225.029C225.08 52.8603 225.387 53.5978 225.961 54.1305C226.534 54.6734 227.2 54.9397 227.958 54.9397C229.198 54.9397 230.038 54.4173 230.478 53.3622L232.015 53.9973C231.718 54.7144 231.216 55.3085 230.529 55.7899C229.843 56.2714 228.993 56.5172 227.999 56.5172L227.989 56.5275ZM230.468 50.5145C230.427 49.9921 230.191 49.4901 229.741 49.0087C229.3 48.5375 228.634 48.2916 227.764 48.2916C227.128 48.2916 226.575 48.4965 226.104 48.896C225.633 49.2955 225.315 49.8384 225.141 50.5145H230.478H230.468Z" fill="white"/>
</svg>
