<?xml version="1.0" encoding="UTF-8"?>
<svg id="Layer_1" data-name="Layer 1" xmlns="http://www.w3.org/2000/svg" viewBox="0 0 256 57">
  <defs>
    <style>
      .cls-1 {
        fill: #007aff;
        stroke-width: 0px;
      }
    </style>
  </defs>
  <g id="logo-logo">
    <path class="cls-1" d="M37.41,42.34H5.3V5.82h32.11v36.53ZM37.48.51H5.24C2.42.51,0,2.98,0,5.8v36.71c0,2.82,2.42,5.43,5.24,5.43h15.09v8.55l17.1-8.87c2.82,0,5.29-2.29,5.29-5.11V5.8c0-2.82-2.42-5.29-5.24-5.29"/>
  </g>
  <g id="text-logo-path">
    <path class="cls-1" d="M9.62,12.1h0c0-.83.29-1.53.88-2.09.59-.56,1.28-.84,2.08-.84h18.61c.83,0,1.54.28,2.1.85.57.57.85,1.26.85,2.08h0c0,.8-.28,1.49-.85,2.07-.57.59-1.27.88-2.1.88h-5.58v19.97c0,1.04-.36,1.92-1.08,2.63-.72.72-1.6,1.08-2.63,1.08h0c-1.04,0-1.92-.36-2.64-1.08-.73-.72-1.09-1.6-1.09-2.63h0V15.05h-5.58c-.8,0-1.49-.29-2.08-.87-.59-.58-.88-1.27-.88-2.08ZM46.03,35.14h0v-14.81c0-.91.33-1.7.99-2.36.66-.66,1.44-.99,2.34-.99h0c.93,0,1.73.33,2.39.99.66.66.99,1.45.99,2.36h0v.93h.15c.31-.77.71-1.46,1.18-2.07.48-.61.95-1.04,1.41-1.3h0c.44-.23.95-.35,1.52-.36h0c1.16,0,2.01.33,2.55.99.54.66.82,1.38.82,2.15h0c0,.8-.28,1.51-.83,2.13-.56.63-1.29.94-2.2.94h0c-.54,0-1.09.12-1.64.35-.56.23-1.03.59-1.42,1.05h0c-.7.86-1.04,2.07-1.04,3.63h0v6.36c0,.98-.35,1.83-1.06,2.54-.71.71-1.55,1.06-2.54,1.06h0c-.98,0-1.83-.35-2.54-1.06-.71-.71-1.07-1.55-1.07-2.54ZM59.98,32.5h0c0-2.74,1.03-4.57,3.1-5.49,2.07-.92,4.68-1.38,7.84-1.38h0c.59,0,1.04.01,1.33.04h0l1.31.04c0-.88-.06-1.59-.19-2.11-.12-.53-.4-.94-.83-1.25-.43-.31-1.07-.46-1.91-.46h0c-1.19,0-2.07.37-2.65,1.12h0c-.64.88-1.43,1.32-2.37,1.32h0c-.86,0-1.58-.31-2.18-.92-.6-.61-.9-1.35-.9-2.22h0c0-.52.11-1,.34-1.46.23-.45.56-.83,1.01-1.12h0c.96-.62,2.02-1.08,3.2-1.39,1.17-.31,2.38-.46,3.63-.46h0c3.21,0,5.64.68,7.31,2.05,1.67,1.37,2.5,3.62,2.5,6.75h0l-.04,5.51c0,.96.01,1.67.04,2.14h0l.04,2.16c0,.91-.33,1.7-.99,2.37-.66.67-1.45,1-2.38,1h0c-.86,0-1.6-.27-2.22-.82-.62-.54-.99-1.22-1.12-2.04h0c-.79,1.11-1.73,1.9-2.81,2.37-1.08.47-2.36.7-3.84.7h0c-1.31,0-2.52-.25-3.61-.76-1.1-.51-1.97-1.24-2.62-2.22-.65-.97-.98-2.13-.98-3.47ZM67.04,32.07h0c0,.69.24,1.24.72,1.64.48.4,1.08.61,1.8.61h0c1.27,0,2.27-.43,2.97-1.28.71-.85,1.06-1.93,1.06-3.23h0v-.3l-2.29-.04c-2.84,0-4.26.86-4.26,2.59ZM83.82,35.14h0v-14.81c0-.91.33-1.7.99-2.36.66-.66,1.44-.99,2.34-.99h0c.93,0,1.73.33,2.39.99.66.66.99,1.45.99,2.36h0v.53c.59-1.16,1.46-2.12,2.59-2.87,1.14-.75,2.54-1.13,4.22-1.13h0c2.59,0,4.48.73,5.66,2.2,1.19,1.46,1.78,3.47,1.78,6.02h0v10.05c0,.98-.35,1.83-1.06,2.54-.71.71-1.55,1.06-2.54,1.06h0c-.99,0-1.84-.35-2.55-1.06-.71-.71-1.07-1.55-1.07-2.54h0v-8.92c0-1.45-.31-2.46-.93-3.03-.62-.57-1.33-.85-2.12-.85h0c-.96,0-1.78.34-2.47,1.03-.69.69-1.03,1.93-1.03,3.74h0v8.03c0,.98-.35,1.83-1.06,2.54-.71.71-1.55,1.06-2.54,1.06h0c-.98,0-1.83-.35-2.54-1.06-.71-.71-1.07-1.55-1.07-2.54ZM107.09,24.01h0c0-2.22.87-3.99,2.61-5.29,1.74-1.31,4.06-1.96,6.97-1.96h0c2.12,0,3.97.34,5.55,1.01,1.58.68,2.37,1.71,2.37,3.1h0c0,.93-.28,1.68-.84,2.23-.56.56-1.25.83-2.07.83h0c-.93,0-1.74-.43-2.41-1.29h0c-.25-.37-.57-.65-.96-.85-.39-.2-.97-.3-1.74-.3h0c-.83,0-1.49.14-1.97.43-.48.28-.72.7-.72,1.24h0c0,.44.18.78.55,1.01.37.23.98.44,1.85.62h0l3.03.62c2.32.49,4.01,1.23,5.05,2.21,1.05.98,1.57,2.34,1.57,4.08h0c0,2.27-.83,4.07-2.5,5.41-1.67,1.33-4.18,2-7.54,2h0c-2.34,0-4.31-.34-5.92-1.02-1.62-.67-2.42-1.74-2.42-3.21h0c0-.86.29-1.6.86-2.23.57-.63,1.31-.94,2.21-.94h0c.52,0,.96.11,1.32.32.37.21.73.53,1.08.94h0c.39.49.78.84,1.16,1.05.38.21,1,.31,1.86.31h0c1.99,0,2.99-.62,2.99-1.85h0c0-.42-.15-.75-.44-1.01-.3-.26-.9-.48-1.81-.66h0l-2.63-.55c-2.43-.49-4.22-1.23-5.36-2.22-1.14-.99-1.7-2.33-1.7-4.03ZM128.42,35.17h0V11.53c0-.99.35-1.83,1.05-2.53.7-.7,1.56-1.05,2.57-1.05h0c.98,0,1.82.35,2.52,1.05.69.7,1.04,1.55,1.04,2.53h0v13.37l5.87-6.89c.54-.67,1.29-1.01,2.24-1.02h0c.79,0,1.48.29,2.05.86.57.58.86,1.26.86,2.05h0c0,.72-.26,1.38-.78,1.99h0l-3.3,3.64,5,8.06c.34.54.51,1.14.51,1.78h0c0,.93-.33,1.73-.99,2.38-.66.66-1.45.98-2.38.98h0c-.62,0-1.19-.15-1.72-.45-.52-.3-.92-.69-1.2-1.18h0l-4.3-7.08-1.88,2.08v3.07c0,.99-.35,1.83-1.04,2.52-.7.7-1.55,1.04-2.56,1.04h0c-.98,0-1.83-.35-2.53-1.04-.7-.69-1.05-1.53-1.05-2.52ZM150.18,35.14h0v-14.81c0-.91.33-1.7.99-2.36.67-.66,1.45-.99,2.34-.99h0c.93,0,1.73.33,2.39.99.67.66,1,1.45,1,2.36h0v.93h.15c.31-.77.71-1.46,1.18-2.07.47-.61.94-1.04,1.41-1.3h0c.44-.23.95-.35,1.52-.36h0c1.16,0,2.01.33,2.56.99.54.66.81,1.38.81,2.15h0c0,.8-.28,1.51-.83,2.13-.56.63-1.29.94-2.2.94h0c-.54,0-1.09.12-1.65.35-.56.23-1.03.59-1.42,1.05h0c-.7.86-1.04,2.07-1.04,3.63h0v6.36c0,.98-.35,1.83-1.06,2.54-.71.71-1.55,1.06-2.54,1.06h0c-.99,0-1.84-.35-2.55-1.06-.71-.71-1.07-1.55-1.07-2.54ZM166.05,11.28h0c0-.83.3-1.54.89-2.13.59-.59,1.31-.88,2.14-.88h1.78c.83,0,1.55.3,2.14.89.59.59.89,1.3.89,2.12h0c0,.83-.3,1.55-.9,2.14-.6.59-1.31.89-2.13.89h-1.78c-.83,0-1.55-.3-2.14-.89-.59-.59-.89-1.3-.89-2.14ZM166.35,35.14h0v-14.54c0-.98.36-1.83,1.07-2.54.71-.71,1.56-1.07,2.55-1.07h0c.98,0,1.83.36,2.54,1.07.71.71,1.06,1.56,1.06,2.54h0v14.54c0,.98-.36,1.83-1.07,2.54-.71.71-1.56,1.06-2.53,1.06h0c-.99,0-1.84-.35-2.55-1.06-.71-.71-1.07-1.55-1.07-2.54ZM177.39,43.79h0v-23.5c0-.91.33-1.68.98-2.34.65-.65,1.43-.98,2.34-.98h0c.94,0,1.72.33,2.37.98.64.65.97,1.43.97,2.34h0v.23c.86-1.16,1.8-2.06,2.83-2.7,1.03-.64,2.38-.96,4.06-.96h0c1.86,0,3.43.47,4.71,1.42,1.28.95,2.24,2.22,2.88,3.81.64,1.59.95,3.38.95,5.36h0c0,2.32-.41,4.35-1.24,6.09s-1.97,3.06-3.44,3.98c-1.46.92-3.12,1.38-4.98,1.38h0c-2,0-3.73-.66-5.21-1.99h0v6.87c0,.99-.35,1.83-1.06,2.54-.71.71-1.55,1.06-2.54,1.06h0c-.98,0-1.83-.36-2.54-1.07-.71-.71-1.07-1.56-1.07-2.53ZM184.41,27.85h0c0,2.17.36,3.75,1.07,4.73.71.99,1.65,1.48,2.81,1.48h0c1.14,0,2.07-.52,2.81-1.56.74-1.03,1.11-2.59,1.11-4.66h0c0-2.04-.36-3.54-1.07-4.5-.71-.95-1.61-1.43-2.7-1.43h0c-1.21,0-2.19.49-2.93,1.47-.74.98-1.11,2.46-1.11,4.46ZM200.22,19.71h0c0-.67.23-1.24.7-1.71.47-.47,1.02-.7,1.67-.7h1.32l.15-2.88c.05-.86.39-1.59,1.03-2.19.63-.61,1.39-.91,2.27-.91h0c.91,0,1.68.33,2.33.98.64.65.97,1.43.97,2.34h0v2.67h2.29c.64,0,1.2.23,1.67.7.47.47.7,1.03.7,1.67h0c0,.67-.23,1.24-.7,1.71-.47.47-1.03.7-1.67.7h-2.14v8.63c0,1.06.23,1.81.68,2.25.45.44,1.14.66,2.06.66h0c.59.12,1.1.43,1.52.91.42.48.62,1.04.62,1.68h0c0,.54-.15,1.03-.45,1.46-.3.43-.68.75-1.15.94h0c-1.03.18-2.26.27-3.67.29h0c-2.49.01-4.25-.6-5.28-1.84h0c-1.01-1.2-1.52-3.05-1.52-5.55h0v-.19h0l.04-9.26h-1.08c-.64,0-1.2-.23-1.67-.7-.47-.47-.7-1.03-.7-1.67ZM216.85,27.92h0c0-2.17.44-4.09,1.31-5.77s2.15-3,3.83-3.96c1.68-.96,3.69-1.44,6.02-1.44h0c2.32,0,4.32.48,6,1.44,1.68.96,2.94,2.28,3.8,3.96.85,1.68,1.27,3.58,1.27,5.7h0c0,2.15-.44,4.07-1.33,5.76-.89,1.69-2.18,3.02-3.87,3.98-1.69.96-3.7,1.44-6.02,1.44h0c-2.34,0-4.33-.48-5.98-1.44-1.66-.96-2.91-2.28-3.76-3.96-.85-1.68-1.28-3.58-1.28-5.7ZM224.06,27.85h0c0,1.9.33,3.37.98,4.42.66,1.05,1.64,1.58,2.94,1.58h0c1.29,0,2.25-.53,2.9-1.59.64-1.06.96-2.52.96-4.37h0c0-1.86-.32-3.31-.96-4.37-.64-1.06-1.62-1.59-2.94-1.59h0c-1.29,0-2.26.52-2.91,1.56-.65,1.04-.98,2.5-.98,4.36ZM241.65,35.14h0v-14.81c0-.91.33-1.7.99-2.36.66-.66,1.44-.99,2.34-.99h0c.94,0,1.74.33,2.4.99.66.66.99,1.45.99,2.36h0v.93h.15c.31-.77.71-1.46,1.18-2.07.48-.61.95-1.04,1.41-1.3h0c.44-.23.94-.35,1.52-.36h0c1.16,0,2.01.33,2.55.99.54.66.82,1.38.82,2.15h0c0,.8-.28,1.51-.83,2.13-.56.63-1.29.94-2.2.94h0c-.54,0-1.09.12-1.64.35-.56.23-1.03.59-1.42,1.05h0c-.7.86-1.04,2.07-1.04,3.63h0v6.36c0,.98-.35,1.83-1.06,2.54-.7.71-1.55,1.06-2.54,1.06h0c-.98,0-1.83-.35-2.54-1.06-.71-.71-1.07-1.55-1.07-2.54Z"/>
  </g>
</svg>