<svg width="236" height="108" viewBox="0 0 236 108" fill="none" xmlns="http://www.w3.org/2000/svg">
<path d="M124.363 18.1734H111.637C110.23 18.1734 109.09 17.042 109.09 15.6459C109.09 14.2523 110.23 13.1209 111.637 13.1209H124.363C125.77 13.1209 126.91 14.2523 126.91 15.6459C126.91 17.042 125.77 18.1734 124.363 18.1734ZM90 8.06592V52.2772C90 54.3601 91.7188 56.0659 93.8176 56.0659H142.182C144.281 56.0659 146 54.3601 146 52.2772V8.06592H90Z" fill="#EEEEEE"/>
<path d="M118.001 28.2759C109.465 28.2759 101.963 32.664 97.6602 39.2925V56.0634H109.45L118.001 41.3629H139.545C135.541 33.5956 127.395 28.2759 118.001 28.2759Z" fill="#DB4437"/>
<path d="M97.6526 39.3026C95.2266 43.0438 93.8174 47.4969 93.8174 52.2772C93.8174 53.5659 93.9206 54.8322 94.1194 56.066H107.502L97.6526 39.3026Z" fill="#0F9D58"/>
<path d="M142.182 52.2772C142.182 48.3486 141.231 44.6397 139.545 41.3655H118.001L126.552 56.0659H141.88C142.079 54.8321 142.182 53.5659 142.182 52.2772Z" fill="#FFCD40"/>
<path d="M118.001 41.3655C111.929 41.3655 107.009 46.2506 107.009 52.2772C107.009 53.6109 107.25 54.8871 107.691 56.0659H110.076C109.518 54.9196 109.206 53.6333 109.206 52.2772C109.206 47.4544 113.144 43.5483 118.001 43.5483C122.858 43.5483 126.796 47.4544 126.796 52.2772C126.796 53.6358 126.484 54.9196 125.925 56.0659H128.311C128.751 54.8846 128.993 53.6084 128.993 52.2772C128.993 46.2506 124.071 41.3655 118.001 41.3655Z" fill="#F1F1F1"/>
<path d="M118.001 43.5484C113.144 43.5484 109.206 47.4545 109.206 52.2773C109.206 53.6359 109.518 54.9196 110.077 56.066H125.926C126.484 54.9196 126.796 53.6334 126.796 52.2773C126.794 47.4545 122.858 43.5484 118.001 43.5484Z" fill="#4285F4"/>
<path opacity="0.05" d="M90 8.06592V32.0672H146V8.06592H90ZM124.363 18.1734H111.637C110.23 18.1734 109.09 17.042 109.09 15.6459C109.09 14.2523 110.23 13.1209 111.637 13.1209H124.366C125.772 13.1209 126.912 14.2523 126.912 15.6459C126.91 17.042 125.77 18.1734 124.363 18.1734Z" fill="#212121"/>
<path opacity="0.02" d="M146 31.75H90V32.0672H146V31.75Z" fill="#212121"/>
<path opacity="0.05" d="M146 32.0671H90V32.3843H146V32.0671Z" fill="white"/>
<path opacity="0.02" d="M90 8.06592V8.3831H146V8.06592H90ZM124.363 18.1734H111.637C110.286 18.1734 109.181 17.1245 109.1 15.8058C109.093 15.8582 109.09 15.9107 109.09 15.9631C109.09 17.3592 110.23 18.4881 111.637 18.4881H124.363C125.77 18.4881 126.91 17.3592 126.91 15.9631C126.91 15.9107 126.907 15.8582 126.9 15.8058C126.819 17.122 125.717 18.1734 124.363 18.1734Z" fill="#212121"/>
<path opacity="0.1" d="M142.182 55.7488H93.8176C91.7188 55.7488 90 54.0455 90 51.96V52.2772C90 54.3602 91.7188 56.066 93.8176 56.066H142.182C144.281 56.066 146 54.3602 146 52.2772V51.96C146 54.0455 144.281 55.7488 142.182 55.7488ZM111.637 13.1185H124.363C125.714 13.1185 126.819 14.1674 126.9 15.4861C126.902 15.4337 126.91 15.3812 126.91 15.3288C126.91 13.9327 125.77 12.8013 124.363 12.8013H111.637C110.23 12.8013 109.09 13.9327 109.09 15.3288C109.09 15.3812 109.093 15.4337 109.1 15.4861C109.181 14.1674 110.283 13.1185 111.637 13.1185Z" fill="#231F20"/>
<path d="M10.9486 85.5139C9.51123 85.5139 8.4099 85.9526 7.64456 86.8299C6.87923 87.7073 6.49656 88.9486 6.49656 90.5539C6.49656 92.1779 6.91656 93.4286 7.75656 94.3059C8.61523 95.1833 9.76323 95.6219 11.2006 95.6219C11.9659 95.6219 12.6099 95.5193 13.1326 95.3139C13.6739 95.1086 14.1872 94.8753 14.6726 94.6139C14.9899 94.8753 15.2326 95.1926 15.4006 95.5659C15.5872 95.9206 15.6806 96.3406 15.6806 96.8259C15.6806 97.5913 15.2512 98.2446 14.3926 98.7859C13.5526 99.3086 12.2646 99.5699 10.5286 99.5699C9.2779 99.5699 8.1019 99.3926 7.00056 99.0379C5.89923 98.6833 4.9379 98.1419 4.11656 97.4139C3.29523 96.6673 2.6419 95.7339 2.15656 94.6139C1.6899 93.4753 1.45656 92.1219 1.45656 90.5539C1.45656 89.0979 1.68056 87.8193 2.12856 86.7179C2.59523 85.5979 3.22056 84.6552 4.00456 83.8899C4.80723 83.1246 5.74056 82.5459 6.80456 82.1539C7.86856 81.7619 9.00723 81.5659 10.2206 81.5659C11.9379 81.5659 13.2632 81.8459 14.1966 82.4059C15.1486 82.9659 15.6246 83.6846 15.6246 84.5619C15.6246 85.0473 15.5032 85.4673 15.2606 85.8219C15.0179 86.1766 14.7379 86.4566 14.4206 86.6619C13.9352 86.3446 13.4126 86.0739 12.8526 85.8499C12.3112 85.6259 11.6766 85.5139 10.9486 85.5139ZM31.3687 99.0379C31.182 99.0939 30.8833 99.1499 30.4727 99.2059C30.0807 99.2619 29.67 99.2899 29.2407 99.2899C28.83 99.2899 28.4567 99.2619 28.1207 99.2059C27.8033 99.1499 27.5327 99.0379 27.3087 98.8699C27.0847 98.7019 26.9073 98.4779 26.7767 98.1979C26.6647 97.8993 26.6087 97.5166 26.6087 97.0499V90.8339C26.6087 90.0686 26.4127 89.5366 26.0207 89.2379C25.6473 88.9206 25.1807 88.7619 24.6207 88.7619C24.2473 88.7619 23.8927 88.8086 23.5567 88.9019C23.2207 88.9953 22.95 89.1073 22.7447 89.2379V99.0379C22.558 99.0939 22.2593 99.1499 21.8487 99.2059C21.4567 99.2619 21.046 99.2899 20.6167 99.2899C20.206 99.2899 19.8327 99.2619 19.4967 99.2059C19.1793 99.1499 18.9087 99.0379 18.6847 98.8699C18.4607 98.7019 18.2833 98.4779 18.1527 98.1979C18.0407 97.8993 17.9847 97.5166 17.9847 97.0499V80.8099C18.19 80.7726 18.4887 80.7259 18.8807 80.6699C19.2913 80.5953 19.702 80.5579 20.1127 80.5579C20.5233 80.5579 20.8873 80.5859 21.2047 80.6419C21.5407 80.6979 21.8207 80.8099 22.0447 80.9779C22.2687 81.1459 22.4367 81.3793 22.5487 81.6779C22.6793 81.9579 22.7447 82.3313 22.7447 82.7979V85.5419C22.9873 85.4486 23.3513 85.3459 23.8367 85.2339C24.3407 85.1033 24.8913 85.0379 25.4887 85.0379C27.3367 85.0379 28.774 85.5046 29.8007 86.4379C30.846 87.3526 31.3687 88.7246 31.3687 90.5539V99.0379ZM39.0676 99.0379C38.8809 99.0939 38.5822 99.1499 38.1716 99.2059C37.7796 99.2619 37.3689 99.2899 36.9396 99.2899C36.5289 99.2899 36.1556 99.2619 35.8196 99.2059C35.5022 99.1499 35.2316 99.0379 35.0076 98.8699C34.7836 98.7019 34.6062 98.4779 34.4756 98.1979C34.3636 97.8993 34.3076 97.5166 34.3076 97.0499V88.6499C34.3076 88.2206 34.3822 87.8566 34.5316 87.5579C34.6996 87.2406 34.9329 86.9606 35.2316 86.7179C35.5302 86.4753 35.8942 86.2606 36.3236 86.0739C36.7716 85.8686 37.2476 85.6913 37.7516 85.5419C38.2556 85.3926 38.7782 85.2806 39.3196 85.2059C39.8609 85.1126 40.4022 85.0659 40.9436 85.0659C41.8396 85.0659 42.5489 85.2433 43.0716 85.5979C43.5942 85.9339 43.8556 86.4939 43.8556 87.2779C43.8556 87.5393 43.8182 87.8006 43.7436 88.0619C43.6689 88.3046 43.5756 88.5286 43.4636 88.7339C43.0716 88.7339 42.6702 88.7526 42.2596 88.7899C41.8489 88.8273 41.4476 88.8833 41.0556 88.9579C40.6636 89.0326 40.2902 89.1166 39.9356 89.2099C39.5996 89.2846 39.3102 89.3779 39.0676 89.4899V99.0379ZM59.3838 92.2619C59.3838 93.4193 59.2064 94.4553 58.8518 95.3699C58.4971 96.2659 57.9931 97.0219 57.3398 97.6379C56.7051 98.2539 55.9398 98.7206 55.0438 99.0379C54.1478 99.3553 53.1491 99.5139 52.0478 99.5139C50.9464 99.5139 49.9478 99.3459 49.0518 99.0099C48.1558 98.6739 47.3811 98.1979 46.7278 97.5819C46.0931 96.9473 45.5984 96.1819 45.2438 95.2859C44.8891 94.3899 44.7118 93.3819 44.7118 92.2619C44.7118 91.1606 44.8891 90.1619 45.2438 89.2659C45.5984 88.3699 46.0931 87.6139 46.7278 86.9979C47.3811 86.3633 48.1558 85.8779 49.0518 85.5419C49.9478 85.2059 50.9464 85.0379 52.0478 85.0379C53.1491 85.0379 54.1478 85.2153 55.0438 85.5699C55.9398 85.9059 56.7051 86.3913 57.3398 87.0259C57.9931 87.6419 58.4971 88.3979 58.8518 89.2939C59.2064 90.1899 59.3838 91.1793 59.3838 92.2619ZM49.5838 92.2619C49.5838 93.4006 49.7984 94.2779 50.2278 94.8939C50.6758 95.4913 51.2918 95.7899 52.0757 95.7899C52.8598 95.7899 53.4571 95.4819 53.8678 94.8659C54.2971 94.2499 54.5118 93.3819 54.5118 92.2619C54.5118 91.1419 54.2971 90.2833 53.8678 89.6859C53.4384 89.0699 52.8318 88.7619 52.0478 88.7619C51.2638 88.7619 50.6571 89.0699 50.2278 89.6859C49.7984 90.2833 49.5838 91.1419 49.5838 92.2619ZM68.23 85.0379C68.9953 85.0379 69.742 85.1499 70.47 85.3739C71.2167 85.5793 71.8607 85.8966 72.402 86.3259C72.962 85.9526 73.5873 85.6446 74.278 85.4019C74.9873 85.1593 75.8367 85.0379 76.826 85.0379C77.5353 85.0379 78.226 85.1313 78.898 85.3179C79.5887 85.5046 80.1953 85.8033 80.718 86.2139C81.2593 86.6059 81.6887 87.1379 82.006 87.8099C82.3233 88.4633 82.482 89.2659 82.482 90.2179V99.0379C82.2953 99.0939 81.9967 99.1499 81.586 99.2059C81.194 99.2619 80.7833 99.2899 80.354 99.2899C79.9433 99.2899 79.57 99.2619 79.234 99.2059C78.9167 99.1499 78.646 99.0379 78.422 98.8699C78.198 98.7019 78.0207 98.4779 77.89 98.1979C77.778 97.8993 77.722 97.5166 77.722 97.0499V90.3579C77.722 89.7979 77.5633 89.3966 77.246 89.1539C76.9287 88.8926 76.4993 88.7619 75.958 88.7619C75.6967 88.7619 75.4167 88.8273 75.118 88.9579C74.8193 89.0699 74.5953 89.1913 74.446 89.3219C74.4647 89.3966 74.474 89.4713 74.474 89.5459C74.474 89.6019 74.474 89.6579 74.474 89.7139V99.0379C74.2687 99.0939 73.9607 99.1499 73.55 99.2059C73.158 99.2619 72.7567 99.2899 72.346 99.2899C71.9353 99.2899 71.562 99.2619 71.226 99.2059C70.9087 99.1499 70.638 99.0379 70.414 98.8699C70.19 98.7019 70.0127 98.4779 69.882 98.1979C69.77 97.8993 69.714 97.5166 69.714 97.0499V90.3579C69.714 89.7979 69.5367 89.3966 69.182 89.1539C68.846 88.8926 68.4353 88.7619 67.95 88.7619C67.614 88.7619 67.3247 88.8179 67.082 88.9299C66.8393 89.0233 66.634 89.1166 66.466 89.2099V99.0379C66.2793 99.0939 65.9807 99.1499 65.57 99.2059C65.178 99.2619 64.7673 99.2899 64.338 99.2899C63.9273 99.2899 63.554 99.2619 63.218 99.2059C62.9007 99.1499 62.63 99.0379 62.406 98.8699C62.182 98.7019 62.0047 98.4779 61.874 98.1979C61.762 97.8993 61.706 97.5166 61.706 97.0499V88.5939C61.706 88.0899 61.8087 87.6886 62.014 87.3899C62.238 87.0913 62.5367 86.8113 62.91 86.5499C63.5447 86.1019 64.3287 85.7379 65.262 85.4579C66.214 85.1779 67.2033 85.0379 68.23 85.0379ZM92.5817 99.5139C91.4804 99.5139 90.4537 99.3646 89.5017 99.0659C88.5684 98.7486 87.747 98.2819 87.0377 97.6659C86.347 97.0499 85.7964 96.2753 85.3857 95.3419C84.9937 94.4086 84.7977 93.3166 84.7977 92.0659C84.7977 90.8339 84.9937 89.7793 85.3857 88.9019C85.7964 88.0059 86.3284 87.2779 86.9817 86.7179C87.635 86.1393 88.3817 85.7193 89.2217 85.4579C90.0617 85.1779 90.9204 85.0379 91.7977 85.0379C92.787 85.0379 93.683 85.1873 94.4857 85.4859C95.307 85.7846 96.007 86.1953 96.5857 86.7179C97.183 87.2406 97.6404 87.8659 97.9577 88.5939C98.2937 89.3219 98.4617 90.1153 98.4617 90.9739C98.4617 91.6086 98.2844 92.0939 97.9297 92.4299C97.575 92.7659 97.0804 92.9806 96.4457 93.0739L89.5297 94.1099C89.735 94.7259 90.155 95.1926 90.7897 95.5099C91.4244 95.8086 92.1524 95.9579 92.9737 95.9579C93.739 95.9579 94.4577 95.8646 95.1297 95.6779C95.8204 95.4726 96.3804 95.2393 96.8097 94.9779C97.1084 95.1646 97.3604 95.4259 97.5657 95.7619C97.771 96.0979 97.8737 96.4526 97.8737 96.8259C97.8737 97.6659 97.4817 98.2913 96.6977 98.7019C96.1004 99.0193 95.4284 99.2339 94.6817 99.3459C93.935 99.4579 93.235 99.5139 92.5817 99.5139ZM91.7977 88.5099C91.3497 88.5099 90.9577 88.5846 90.6217 88.7339C90.3044 88.8833 90.043 89.0793 89.8377 89.3219C89.6324 89.5459 89.4737 89.8073 89.3617 90.1059C89.2684 90.3859 89.2124 90.6753 89.1937 90.9739L93.9817 90.1899C93.9257 89.8166 93.7204 89.4433 93.3657 89.0699C93.011 88.6966 92.4884 88.5099 91.7977 88.5099ZM114.562 86.2419C114.768 86.1486 115.085 86.0459 115.514 85.9339C115.962 85.8033 116.41 85.7379 116.858 85.7379C117.642 85.7379 118.296 85.8593 118.818 86.1019C119.341 86.3259 119.658 86.6619 119.77 87.1099C119.976 87.8753 120.162 88.5939 120.33 89.2659C120.517 89.9193 120.694 90.5539 120.862 91.1699C121.03 91.7673 121.189 92.3646 121.338 92.9619C121.506 93.5593 121.665 94.1846 121.814 94.8379H121.954C122.122 93.6993 122.272 92.6166 122.402 91.5899C122.533 90.5446 122.654 89.5273 122.766 88.5379C122.878 87.5299 122.99 86.5406 123.102 85.5699C123.214 84.5806 123.326 83.5819 123.438 82.5739C124.129 82.1819 124.866 81.9859 125.65 81.9859C126.341 81.9859 126.938 82.1353 127.442 82.4339C127.946 82.7326 128.198 83.2366 128.198 83.9459C128.198 84.3566 128.152 84.9446 128.058 85.7099C127.984 86.4566 127.872 87.2966 127.722 88.2299C127.592 89.1633 127.433 90.1433 127.246 91.1699C127.06 92.1966 126.864 93.1766 126.658 94.1099C126.453 95.0433 126.238 95.8926 126.014 96.6579C125.809 97.4046 125.613 97.9833 125.426 98.3939C125.146 98.6553 124.689 98.8699 124.054 99.0379C123.42 99.2059 122.766 99.2899 122.094 99.2899C121.217 99.2899 120.47 99.1779 119.854 98.9539C119.257 98.7113 118.893 98.3753 118.762 97.9459C118.52 97.1993 118.258 96.3126 117.978 95.2859C117.698 94.2593 117.4 93.1299 117.082 91.8979C116.821 93.1113 116.55 94.2966 116.27 95.4539C115.99 96.6113 115.738 97.5913 115.514 98.3939C115.234 98.6553 114.814 98.8699 114.254 99.0379C113.694 99.2059 113.078 99.2899 112.406 99.2899C111.566 99.2899 110.801 99.1779 110.11 98.9539C109.438 98.7113 109 98.3753 108.794 97.9459C108.626 97.6099 108.44 97.1153 108.234 96.4619C108.048 95.7899 107.852 95.0339 107.646 94.1939C107.441 93.3353 107.226 92.4113 107.002 91.4219C106.797 90.4326 106.601 89.4433 106.414 88.4539C106.246 87.4646 106.088 86.5033 105.938 85.5699C105.789 84.6179 105.677 83.7499 105.602 82.9659C105.864 82.7233 106.228 82.4993 106.694 82.2939C107.161 82.0886 107.665 81.9859 108.206 81.9859C108.916 81.9859 109.494 82.1446 109.942 82.4619C110.409 82.7606 110.698 83.2739 110.81 84.0019C111.109 85.9059 111.352 87.4926 111.538 88.7619C111.744 90.0313 111.902 91.0766 112.014 91.8979C112.145 92.7006 112.238 93.3259 112.294 93.7739C112.35 94.2219 112.406 94.5766 112.462 94.8379H112.602C112.77 94.0913 112.929 93.4006 113.078 92.7659C113.228 92.1313 113.377 91.4966 113.526 90.8619C113.694 90.2086 113.862 89.5179 114.03 88.7899C114.198 88.0433 114.376 87.1939 114.562 86.2419ZM137.453 99.5139C136.351 99.5139 135.325 99.3646 134.373 99.0659C133.439 98.7486 132.618 98.2819 131.909 97.6659C131.218 97.0499 130.667 96.2753 130.257 95.3419C129.865 94.4086 129.669 93.3166 129.669 92.0659C129.669 90.8339 129.865 89.7793 130.257 88.9019C130.667 88.0059 131.199 87.2779 131.853 86.7179C132.506 86.1393 133.253 85.7193 134.093 85.4579C134.933 85.1779 135.791 85.0379 136.669 85.0379C137.658 85.0379 138.554 85.1873 139.357 85.4859C140.178 85.7846 140.878 86.1953 141.457 86.7179C142.054 87.2406 142.511 87.8659 142.829 88.5939C143.165 89.3219 143.333 90.1153 143.333 90.9739C143.333 91.6086 143.155 92.0939 142.801 92.4299C142.446 92.7659 141.951 92.9806 141.317 93.0739L134.401 94.1099C134.606 94.7259 135.026 95.1926 135.661 95.5099C136.295 95.8086 137.023 95.9579 137.845 95.9579C138.61 95.9579 139.329 95.8646 140.001 95.6779C140.691 95.4726 141.251 95.2393 141.681 94.9779C141.979 95.1646 142.231 95.4259 142.437 95.7619C142.642 96.0979 142.745 96.4526 142.745 96.8259C142.745 97.6659 142.353 98.2913 141.569 98.7019C140.971 99.0193 140.299 99.2339 139.553 99.3459C138.806 99.4579 138.106 99.5139 137.453 99.5139ZM136.669 88.5099C136.221 88.5099 135.829 88.5846 135.493 88.7339C135.175 88.8833 134.914 89.0793 134.709 89.3219C134.503 89.5459 134.345 89.8073 134.233 90.1059C134.139 90.3859 134.083 90.6753 134.065 90.9739L138.853 90.1899C138.797 89.8166 138.591 89.4433 138.237 89.0699C137.882 88.6966 137.359 88.5099 136.669 88.5099ZM145.68 80.8379C145.867 80.7819 146.165 80.7259 146.576 80.6699C146.987 80.5953 147.407 80.5579 147.836 80.5579C148.247 80.5579 148.611 80.5859 148.928 80.6419C149.264 80.6979 149.544 80.8099 149.768 80.9779C149.992 81.1459 150.16 81.3793 150.272 81.6779C150.384 81.9579 150.44 82.3313 150.44 82.7979V85.5419C150.907 85.3553 151.345 85.2246 151.756 85.1499C152.185 85.0753 152.652 85.0379 153.156 85.0379C154.052 85.0379 154.901 85.1966 155.704 85.5139C156.507 85.8313 157.216 86.2979 157.832 86.9139C158.448 87.5113 158.933 88.2579 159.288 89.1539C159.643 90.0499 159.82 91.0859 159.82 92.2619C159.82 93.4753 159.633 94.5393 159.26 95.4539C158.905 96.3499 158.401 97.0966 157.748 97.6939C157.095 98.2913 156.292 98.7486 155.34 99.0659C154.407 99.3646 153.371 99.5139 152.232 99.5139C151 99.5139 149.955 99.3646 149.096 99.0659C148.237 98.7859 147.509 98.4313 146.912 98.0019C146.091 97.4233 145.68 96.6766 145.68 95.7619V80.8379ZM152.232 95.7619C153.091 95.7619 153.753 95.4726 154.22 94.8939C154.705 94.2966 154.948 93.4193 154.948 92.2619C154.948 91.0859 154.705 90.2086 154.22 89.6299C153.735 89.0513 153.081 88.7619 152.26 88.7619C151.887 88.7619 151.56 88.7993 151.28 88.8739C151.019 88.9486 150.729 89.0606 150.412 89.2099V95.3139C150.617 95.4446 150.86 95.5566 151.14 95.6499C151.439 95.7246 151.803 95.7619 152.232 95.7619ZM172.925 92.3179C172.104 92.0379 171.357 91.7579 170.685 91.4779C170.013 91.1793 169.434 90.8246 168.949 90.4139C168.464 90.0033 168.081 89.5179 167.801 88.9579C167.54 88.3793 167.409 87.6793 167.409 86.8579C167.409 85.2713 168.016 84.0019 169.229 83.0499C170.461 82.0979 172.178 81.6219 174.381 81.6219C175.184 81.6219 175.93 81.6779 176.621 81.7899C177.312 81.9019 177.9 82.0793 178.385 82.3219C178.889 82.5459 179.281 82.8446 179.561 83.2179C179.841 83.5726 179.981 83.9926 179.981 84.4779C179.981 84.9633 179.869 85.3833 179.645 85.7379C179.421 86.0739 179.15 86.3633 178.833 86.6059C178.422 86.3446 177.872 86.1206 177.181 85.9339C176.49 85.7286 175.734 85.6259 174.913 85.6259C174.073 85.6259 173.457 85.7473 173.065 85.9899C172.673 86.2139 172.477 86.5033 172.477 86.8579C172.477 87.1379 172.598 87.3713 172.841 87.5579C173.084 87.7259 173.448 87.8846 173.933 88.0339L175.417 88.5099C177.172 89.0699 178.516 89.7886 179.449 90.6659C180.401 91.5246 180.877 92.7006 180.877 94.1939C180.877 95.7806 180.252 97.0686 179.001 98.0579C177.75 99.0286 175.912 99.5139 173.485 99.5139C172.626 99.5139 171.824 99.4393 171.077 99.2899C170.349 99.1593 169.705 98.9633 169.145 98.7019C168.604 98.4219 168.174 98.0859 167.857 97.6939C167.558 97.2833 167.409 96.8166 167.409 96.2939C167.409 95.7526 167.568 95.2953 167.885 94.9219C168.202 94.5299 168.548 94.2313 168.921 94.0259C169.444 94.4366 170.078 94.7913 170.825 95.0899C171.59 95.3886 172.421 95.5379 173.317 95.5379C174.232 95.5379 174.876 95.3979 175.249 95.1179C175.622 94.8379 175.809 94.5113 175.809 94.1379C175.809 93.7646 175.66 93.4846 175.361 93.2979C175.062 93.0926 174.642 92.8966 174.101 92.7099L172.925 92.3179ZM187.927 94.3899C187.927 94.8753 188.076 95.2206 188.375 95.4259C188.692 95.6313 189.131 95.7339 189.691 95.7339C189.971 95.7339 190.26 95.7153 190.559 95.6779C190.858 95.6219 191.119 95.5566 191.343 95.4819C191.511 95.6873 191.651 95.9206 191.763 96.1819C191.894 96.4246 191.959 96.7233 191.959 97.0779C191.959 97.7873 191.688 98.3659 191.147 98.8139C190.624 99.2619 189.691 99.4859 188.347 99.4859C186.704 99.4859 185.435 99.1126 184.539 98.3659C183.662 97.6193 183.223 96.4059 183.223 94.7259V82.7419C183.428 82.6859 183.718 82.6299 184.091 82.5739C184.483 82.4992 184.894 82.4619 185.323 82.4619C186.144 82.4619 186.779 82.6113 187.227 82.9099C187.694 83.1899 187.927 83.7966 187.927 84.7299V86.5219H191.595C191.707 86.7273 191.81 86.9886 191.903 87.3059C192.015 87.6046 192.071 87.9406 192.071 88.3139C192.071 88.9673 191.922 89.4433 191.623 89.7419C191.343 90.0219 190.96 90.1619 190.475 90.1619H187.927V94.3899ZM208.298 92.2619C208.298 93.4193 208.12 94.4553 207.766 95.3699C207.411 96.2659 206.907 97.0219 206.254 97.6379C205.619 98.2539 204.854 98.7206 203.958 99.0379C203.062 99.3553 202.063 99.5139 200.962 99.5139C199.86 99.5139 198.862 99.3459 197.966 99.0099C197.07 98.6739 196.295 98.1979 195.642 97.5819C195.007 96.9473 194.512 96.1819 194.158 95.2859C193.803 94.3899 193.626 93.3819 193.626 92.2619C193.626 91.1606 193.803 90.1619 194.158 89.2659C194.512 88.3699 195.007 87.6139 195.642 86.9979C196.295 86.3633 197.07 85.8779 197.966 85.5419C198.862 85.2059 199.86 85.0379 200.962 85.0379C202.063 85.0379 203.062 85.2153 203.958 85.5699C204.854 85.9059 205.619 86.3913 206.254 87.0259C206.907 87.6419 207.411 88.3979 207.766 89.2939C208.12 90.1899 208.298 91.1793 208.298 92.2619ZM198.498 92.2619C198.498 93.4006 198.712 94.2779 199.142 94.8939C199.59 95.4913 200.206 95.7899 200.99 95.7899C201.774 95.7899 202.371 95.4819 202.782 94.8659C203.211 94.2499 203.426 93.3819 203.426 92.2619C203.426 91.1419 203.211 90.2833 202.782 89.6859C202.352 89.0699 201.746 88.7619 200.962 88.7619C200.178 88.7619 199.571 89.0699 199.142 89.6859C198.712 90.2833 198.498 91.1419 198.498 92.2619ZM215.38 99.0379C215.193 99.0939 214.895 99.1499 214.484 99.2059C214.092 99.2619 213.681 99.2899 213.252 99.2899C212.841 99.2899 212.468 99.2619 212.132 99.2059C211.815 99.1499 211.544 99.0379 211.32 98.8699C211.096 98.7019 210.919 98.4779 210.788 98.1979C210.676 97.8993 210.62 97.5166 210.62 97.0499V88.6499C210.62 88.2206 210.695 87.8566 210.844 87.5579C211.012 87.2406 211.245 86.9606 211.544 86.7179C211.843 86.4753 212.207 86.2606 212.636 86.0739C213.084 85.8686 213.56 85.6913 214.064 85.5419C214.568 85.3926 215.091 85.2806 215.632 85.2059C216.173 85.1126 216.715 85.0659 217.256 85.0659C218.152 85.0659 218.861 85.2433 219.384 85.5979C219.907 85.9339 220.168 86.4939 220.168 87.2779C220.168 87.5393 220.131 87.8006 220.056 88.0619C219.981 88.3046 219.888 88.5286 219.776 88.7339C219.384 88.7339 218.983 88.7526 218.572 88.7899C218.161 88.8273 217.76 88.8833 217.368 88.9579C216.976 89.0326 216.603 89.1166 216.248 89.2099C215.912 89.2846 215.623 89.3779 215.38 89.4899V99.0379ZM228.808 99.5139C227.707 99.5139 226.68 99.3646 225.728 99.0659C224.795 98.7486 223.974 98.2819 223.264 97.6659C222.574 97.0499 222.023 96.2753 221.612 95.3419C221.22 94.4086 221.024 93.3166 221.024 92.0659C221.024 90.8339 221.22 89.7793 221.612 88.9019C222.023 88.0059 222.555 87.2779 223.208 86.7179C223.862 86.1393 224.608 85.7193 225.448 85.4579C226.288 85.1779 227.147 85.0379 228.024 85.0379C229.014 85.0379 229.91 85.1873 230.712 85.4859C231.534 85.7846 232.234 86.1953 232.812 86.7179C233.41 87.2406 233.867 87.8659 234.184 88.5939C234.52 89.3219 234.688 90.1153 234.688 90.9739C234.688 91.6086 234.511 92.0939 234.156 92.4299C233.802 92.7659 233.307 92.9806 232.672 93.0739L225.756 94.1099C225.962 94.7259 226.382 95.1926 227.016 95.5099C227.651 95.8086 228.379 95.9579 229.2 95.9579C229.966 95.9579 230.684 95.8646 231.356 95.6779C232.047 95.4726 232.607 95.2393 233.036 94.9779C233.335 95.1646 233.587 95.4259 233.792 95.7619C233.998 96.0979 234.1 96.4526 234.1 96.8259C234.1 97.6659 233.708 98.2913 232.924 98.7019C232.327 99.0193 231.655 99.2339 230.908 99.3459C230.162 99.4579 229.462 99.5139 228.808 99.5139ZM228.024 88.5099C227.576 88.5099 227.184 88.5846 226.848 88.7339C226.531 88.8833 226.27 89.0793 226.064 89.3219C225.859 89.5459 225.7 89.8073 225.588 90.1059C225.495 90.3859 225.439 90.6753 225.42 90.9739L230.208 90.1899C230.152 89.8166 229.947 89.4433 229.592 89.0699C229.238 88.6966 228.715 88.5099 228.024 88.5099Z" fill="#505050"/>
</svg>
