<svg width="282" height="111" viewBox="0 0 282 111" fill="none" xmlns="http://www.w3.org/2000/svg">
<path d="M12.5 17.9647C12.5 14.3956 15.4014 11.5 18.9832 11.5L54.0205 11.5C58.0515 11.5 61.9217 13.0964 64.7631 15.9525C68.5488 19.7578 70.3732 21.6444 72.2011 23.5346L72.2224 23.5566C74.0595 25.4562 75.9077 27.367 79.7544 31.233C82.6084 34.1014 84.2216 37.9776 84.2216 42.0217V91.6944C84.2216 95.2635 81.3203 98.159 77.7384 98.159H18.9832C15.4014 98.159 12.5 95.2635 12.5 91.6944V17.9647Z" fill="white" stroke="#D1D5DB"/>
<g filter="url(#filter0_d_5117_22737)">
<path d="M56.4214 27.5099L56.4023 11.1812C59.9255 11.6072 63.6069 13.9997 64.4159 14.8819L80.7071 31.5057C83.3319 34.3936 84.114 37.3479 84.4817 39.2997L68.2141 39.3026C61.7012 39.3026 56.4214 34.0228 56.4214 27.5099Z" fill="white"/>
<path d="M56.4214 27.5099L56.4023 11.1812C59.9255 11.6072 63.6069 13.9997 64.4159 14.8819L80.7071 31.5057C83.3319 34.3936 84.114 37.3479 84.4817 39.2997L68.2141 39.3026C61.7012 39.3026 56.4214 34.0228 56.4214 27.5099Z" stroke="#D1D5DB"/>
</g>
<path d="M21.8281 35.5681C21.8281 34.157 22.9721 33.013 24.3832 33.013H46.7893C48.2005 33.013 49.3444 34.157 49.3444 35.5681C49.3444 36.9792 48.2005 38.1232 46.7893 38.1232H24.3832C22.9721 38.1232 21.8281 36.9792 21.8281 35.5681Z" fill="#F0F0F0"/>
<path d="M21.8281 26.1339C21.8281 24.7228 22.9721 23.5789 24.3832 23.5789H34.2105C35.6216 23.5789 36.7655 24.7228 36.7655 26.1339C36.7655 27.5451 35.6216 28.689 34.2105 28.689H24.3832C22.9721 28.689 21.8281 27.5451 21.8281 26.1339Z" fill="#F0F0F0"/>
<path d="M21.8281 45.1988C21.8281 43.6791 23.0601 42.4472 24.5798 42.4472H46.5928C48.1125 42.4472 49.3444 43.6791 49.3444 45.1988C49.3444 46.7185 48.1125 47.9504 46.5928 47.9504H24.5798C23.0601 47.9504 21.8281 46.7185 21.8281 45.1988Z" fill="#F0F0F0"/>
<path d="M21.8281 54.633C21.8281 53.1133 23.0601 51.8813 24.5798 51.8813H72.1436C73.6633 51.8813 74.8953 53.1133 74.8953 54.633C74.8953 56.1526 73.6633 57.3846 72.1436 57.3846H24.5798C23.0601 57.3846 21.8281 56.1526 21.8281 54.633Z" fill="#F0F0F0"/>
<path d="M21.8281 64.0671C21.8281 62.5474 23.0601 61.3155 24.5798 61.3155H72.1436C73.6633 61.3155 74.8953 62.5474 74.8953 64.0671C74.8953 65.5868 73.6633 66.8187 72.1436 66.8187H24.5798C23.0601 66.8187 21.8281 65.5868 21.8281 64.0671Z" fill="#F0F0F0"/>
<path d="M21.8281 73.6978C21.8281 72.2867 22.9721 71.1427 24.3832 71.1427H72.3402C73.7513 71.1427 74.8953 72.2867 74.8953 73.6978C74.8953 75.109 73.7513 76.2529 72.3402 76.2529H24.3832C22.9721 76.2529 21.8281 75.109 21.8281 73.6978Z" fill="#F0F0F0"/>
<path d="M21.8281 83.132C21.8281 81.7208 22.9721 80.5769 24.3832 80.5769H72.3402C73.7513 80.5769 74.8953 81.7208 74.8953 83.132C74.8953 84.5431 73.7513 85.6871 72.3402 85.6871H24.3832C22.9721 85.6871 21.8281 84.5431 21.8281 83.132Z" fill="#F0F0F0"/>
<g clip-path="url(#clip0_5117_22737)">
<path d="M40.0862 62.6638C40.0862 62.6638 39.6723 59.6241 38.5 58.281C36.9827 56.5138 35.2586 56.5138 34.5 56.443C28.9138 56.019 20.5 55.9482 20.5 55.9482C20.5 55.9482 12.0862 56.019 6.5 56.443C5.74141 56.5138 4.01727 56.5845 2.5 58.281C1.25859 59.6241 0.913828 62.6638 0.913828 62.6638C0.913828 62.6638 0.5 66.269 0.5 69.8741V73.1966C0.5 76.8018 0.913828 80.3363 0.913828 80.3363C0.913828 80.3363 1.32766 83.376 2.5 84.719C4.01727 86.4863 6.01727 86.4156 6.91383 86.6277C10.0862 86.981 20.5 87.0517 20.5 87.0517C20.5 87.0517 28.9138 87.0517 34.5 86.5569C35.2586 86.4862 36.9827 86.4155 38.5 84.719C39.6724 83.3759 40.0862 80.3362 40.0862 80.3362C40.0862 80.3362 40.5 76.731 40.5 73.1965V69.8741C40.5 66.269 40.0862 62.6638 40.0862 62.6638Z" fill="#D8362A"/>
<path d="M15.6719 64.3604V79.7L28.7753 72.207L15.6719 64.3604Z" fill="white"/>
</g>
<path fill-rule="evenodd" clip-rule="evenodd" d="M107.505 49.2689C108.104 48.6831 109.075 48.6831 109.674 49.2689L114.274 53.7689C114.872 54.3547 114.872 55.3045 114.274 55.8903L109.674 60.3902C109.075 60.976 108.104 60.976 107.505 60.3902C106.906 59.8045 106.906 58.8547 107.505 58.2689L109.488 56.3296H93.256C92.4092 56.3296 91.7227 55.658 91.7227 54.8296C91.7227 54.0012 92.4092 53.3296 93.256 53.3296H109.488L107.505 51.3903C106.906 50.8045 106.906 49.8547 107.505 49.2689Z" fill="#505050"/>
<path d="M135.977 17.9647C135.977 14.3956 138.878 11.5 142.46 11.5L177.497 11.5C181.528 11.5 185.398 13.0964 188.24 15.9525C192.025 19.7578 193.85 21.6444 195.678 23.5346L195.699 23.5566C197.536 25.4562 199.384 27.367 203.231 31.233C206.085 34.1014 207.698 37.9776 207.698 42.0217V91.6944C207.698 95.2635 204.797 98.159 201.215 98.159H142.46C138.878 98.159 135.977 95.2635 135.977 91.6944V17.9647Z" fill="white" stroke="#D1D5DB"/>
<g filter="url(#filter1_d_5117_22737)">
<path d="M179.898 27.5099L179.879 11.1812C183.402 11.6072 187.084 13.9997 187.892 14.8819L204.184 31.5057C206.808 34.3936 207.591 37.3479 207.958 39.2997L191.691 39.3026C185.178 39.3026 179.898 34.0228 179.898 27.5099Z" fill="white"/>
<path d="M179.898 27.5099L179.879 11.1812C183.402 11.6072 187.084 13.9997 187.892 14.8819L204.184 31.5057C206.808 34.3936 207.591 37.3479 207.958 39.2997L191.691 39.3026C185.178 39.3026 179.898 34.0228 179.898 27.5099Z" stroke="#D1D5DB"/>
</g>
<path d="M145.301 35.5681C145.301 34.157 146.445 33.013 147.856 33.013H170.262C171.673 33.013 172.817 34.157 172.817 35.5681C172.817 36.9792 171.673 38.1232 170.262 38.1232H147.856C146.445 38.1232 145.301 36.9792 145.301 35.5681Z" fill="#F0F0F0"/>
<path d="M145.301 26.1339C145.301 24.7228 146.445 23.5789 147.856 23.5789H157.683C159.094 23.5789 160.238 24.7228 160.238 26.1339C160.238 27.5451 159.094 28.689 157.683 28.689H147.856C146.445 28.689 145.301 27.5451 145.301 26.1339Z" fill="#F0F0F0"/>
<path d="M145.301 45.1988C145.301 43.6791 146.533 42.4472 148.052 42.4472H170.065C171.585 42.4472 172.817 43.6791 172.817 45.1988C172.817 46.7185 171.585 47.9504 170.065 47.9504H148.052C146.533 47.9504 145.301 46.7185 145.301 45.1988Z" fill="#F0F0F0"/>
<path d="M145.301 54.633C145.301 53.1133 146.533 51.8813 148.052 51.8813H195.616C197.136 51.8813 198.368 53.1133 198.368 54.633C198.368 56.1526 197.136 57.3846 195.616 57.3846H148.052C146.533 57.3846 145.301 56.1526 145.301 54.633Z" fill="#F0F0F0"/>
<path d="M145.301 64.0671C145.301 62.5474 146.533 61.3155 148.052 61.3155H195.616C197.136 61.3155 198.368 62.5474 198.368 64.0671C198.368 65.5868 197.136 66.8187 195.616 66.8187H148.052C146.533 66.8187 145.301 65.5868 145.301 64.0671Z" fill="#F0F0F0"/>
<path d="M145.301 73.6978C145.301 72.2867 146.445 71.1427 147.856 71.1427H195.813C197.224 71.1427 198.368 72.2867 198.368 73.6978C198.368 75.109 197.224 76.2529 195.813 76.2529H147.856C146.445 76.2529 145.301 75.109 145.301 73.6978Z" fill="#F0F0F0"/>
<path d="M145.301 83.132C145.301 81.7208 146.445 80.5769 147.856 80.5769H195.813C197.224 80.5769 198.368 81.7208 198.368 83.132C198.368 84.5431 197.224 85.6871 195.813 85.6871H147.856C146.445 85.6871 145.301 84.5431 145.301 83.132Z" fill="#F0F0F0"/>
<g filter="url(#filter2_d_5117_22737)">
<rect x="121.723" y="56.5977" width="51.4948" height="29.0887" rx="4" fill="#2563EB"/>
</g>
<path d="M134.449 67.0699V65H143.765V67.0699H140.292V76.8743H137.922V67.0699H134.449Z" fill="white"/>
<path d="M146.785 67.9686L148.347 71.0821L149.948 67.9686H152.368L149.903 72.4214L152.434 76.8743H150.025L148.347 73.7956L146.696 76.8743H144.259L146.785 72.4214L144.348 67.9686H146.785Z" fill="white"/>
<path d="M158.294 67.9686V69.8239H153.171V67.9686H158.294ZM154.334 65.8349H156.693V74.1376C156.693 74.3657 156.727 74.5435 156.793 74.6711C156.86 74.7948 156.952 74.8817 157.07 74.932C157.192 74.9822 157.332 75.0073 157.491 75.0073C157.602 75.0073 157.713 74.9977 157.823 74.9784C157.934 74.9552 158.019 74.9378 158.078 74.9262L158.449 76.7641C158.331 76.8028 158.165 76.8472 157.951 76.8975C157.737 76.9516 157.476 76.9845 157.17 76.9961C156.601 77.0193 156.103 76.94 155.674 76.7583C155.25 76.5767 154.919 76.2945 154.683 75.9118C154.447 75.5292 154.33 75.046 154.334 74.4623V65.8349Z" fill="white"/>
<path d="M199.203 17.9647C199.203 14.3956 202.105 11.5 205.686 11.5L240.724 11.5C244.755 11.5 248.625 13.0964 251.466 15.9525C255.252 19.7578 257.076 21.6444 258.904 23.5346L258.926 23.5566C260.763 25.4562 262.611 27.367 266.457 31.233C269.312 34.1014 270.925 37.9776 270.925 42.0217V91.6944C270.925 95.2635 268.023 98.159 264.442 98.159H205.686C202.105 98.159 199.203 95.2635 199.203 91.6944V17.9647Z" fill="white" stroke="#D1D5DB"/>
<g filter="url(#filter3_d_5117_22737)">
<path d="M243.125 27.5099L243.105 11.1812C246.629 11.6072 250.31 13.9997 251.119 14.8819L267.41 31.5057C270.035 34.3936 270.817 37.3479 271.185 39.2997L254.917 39.3026C248.404 39.3026 243.125 34.0228 243.125 27.5099Z" fill="white"/>
<path d="M243.125 27.5099L243.105 11.1812C246.629 11.6072 250.31 13.9997 251.119 14.8819L267.41 31.5057C270.035 34.3936 270.817 37.3479 271.185 39.2997L254.917 39.3026C248.404 39.3026 243.125 34.0228 243.125 27.5099Z" stroke="#D1D5DB"/>
</g>
<path d="M208.527 35.5681C208.527 34.157 209.671 33.013 211.082 33.013H233.489C234.9 33.013 236.044 34.157 236.044 35.5681C236.044 36.9792 234.9 38.1232 233.489 38.1232H211.082C209.671 38.1232 208.527 36.9792 208.527 35.5681Z" fill="#F0F0F0"/>
<path d="M208.527 26.1339C208.527 24.7228 209.671 23.5789 211.082 23.5789H220.91C222.321 23.5789 223.465 24.7228 223.465 26.1339C223.465 27.5451 222.321 28.689 220.91 28.689H211.082C209.671 28.689 208.527 27.5451 208.527 26.1339Z" fill="#F0F0F0"/>
<path d="M208.527 45.1988C208.527 43.6791 209.759 42.4472 211.279 42.4472H233.292C234.812 42.4472 236.044 43.6791 236.044 45.1988C236.044 46.7185 234.812 47.9504 233.292 47.9504H211.279C209.759 47.9504 208.527 46.7185 208.527 45.1988Z" fill="#F0F0F0"/>
<path d="M208.527 54.633C208.527 53.1133 209.759 51.8813 211.279 51.8813H258.843C260.363 51.8813 261.594 53.1133 261.594 54.633C261.594 56.1526 260.363 57.3846 258.843 57.3846H211.279C209.759 57.3846 208.527 56.1526 208.527 54.633Z" fill="#F0F0F0"/>
<path d="M208.527 64.0671C208.527 62.5474 209.759 61.3155 211.279 61.3155H258.843C260.363 61.3155 261.594 62.5474 261.594 64.0671C261.594 65.5868 260.363 66.8187 258.843 66.8187H211.279C209.759 66.8187 208.527 65.5868 208.527 64.0671Z" fill="#F0F0F0"/>
<path d="M208.527 73.6978C208.527 72.2867 209.671 71.1427 211.082 71.1427H259.039C260.451 71.1427 261.594 72.2867 261.594 73.6978C261.594 75.109 260.451 76.2529 259.039 76.2529H211.082C209.671 76.2529 208.527 75.109 208.527 73.6978Z" fill="#F0F0F0"/>
<path d="M208.527 83.132C208.527 81.7208 209.671 80.5769 211.082 80.5769H259.039C260.451 80.5769 261.594 81.7208 261.594 83.132C261.594 84.5431 260.451 85.6871 259.039 85.6871H211.082C209.671 85.6871 208.527 84.5431 208.527 83.132Z" fill="#F0F0F0"/>
<g filter="url(#filter4_d_5117_22737)">
<rect x="185.199" y="57" width="58" height="29" rx="4" fill="#2563EB"/>
</g>
<path d="M200.404 76.8268H196.199V65H200.439C201.632 65 202.659 65.2368 203.52 65.7103C204.381 66.18 205.044 66.8556 205.507 67.7372C205.974 68.6189 206.208 69.6737 206.208 70.9018C206.208 72.1338 205.974 73.1925 205.507 74.078C205.044 74.9634 204.377 75.6429 203.509 76.1165C202.644 76.59 201.609 76.8268 200.404 76.8268ZM198.707 74.6843H200.3C201.041 74.6843 201.665 74.5534 202.171 74.2916C202.68 74.026 203.063 73.616 203.318 73.0616C203.576 72.5034 203.706 71.7834 203.706 70.9018C203.706 70.0279 203.576 69.3138 203.318 68.7594C203.063 68.205 202.682 67.7969 202.176 67.5351C201.671 67.2733 201.047 67.1424 200.306 67.1424H198.707V74.6843Z" fill="white"/>
<path d="M212.039 77C211.139 77 210.361 76.8094 209.705 76.4283C209.052 76.0433 208.548 75.5082 208.193 74.8229C207.838 74.1338 207.66 73.3349 207.66 72.4264C207.66 71.5101 207.838 70.7093 208.193 70.0241C208.548 69.3349 209.052 68.7998 209.705 68.4187C210.361 68.0337 211.139 67.8412 212.039 67.8412C212.938 67.8412 213.715 68.0337 214.367 68.4187C215.023 68.7998 215.529 69.3349 215.885 70.0241C216.24 70.7093 216.417 71.5101 216.417 72.4264C216.417 73.3349 216.24 74.1338 215.885 74.8229C215.529 75.5082 215.023 76.0433 214.367 76.4283C213.715 76.8094 212.938 77 212.039 77ZM212.05 75.0943C212.46 75.0943 212.801 74.9788 213.075 74.7478C213.35 74.513 213.556 74.1935 213.695 73.7892C213.838 73.385 213.91 72.9249 213.91 72.409C213.91 71.8932 213.838 71.4331 213.695 71.0289C213.556 70.6246 213.35 70.3051 213.075 70.0703C212.801 69.8354 212.46 69.718 212.05 69.718C211.637 69.718 211.29 69.8354 211.008 70.0703C210.73 70.3051 210.519 70.6246 210.376 71.0289C210.237 71.4331 210.168 71.8932 210.168 72.409C210.168 72.9249 210.237 73.385 210.376 73.7892C210.519 74.1935 210.73 74.513 211.008 74.7478C211.29 74.9788 211.637 75.0943 212.05 75.0943Z" fill="white"/>
<path d="M222.041 77C221.13 77 220.346 76.8075 219.69 76.4225C219.037 76.0337 218.535 75.4947 218.184 74.8056C217.836 74.1165 217.663 73.3234 217.663 72.4264C217.663 71.5178 217.838 70.7209 218.19 70.0356C218.545 69.3465 219.049 68.8094 219.701 68.4244C220.354 68.0356 221.13 67.8412 222.03 67.8412C222.806 67.8412 223.486 67.9817 224.069 68.2628C224.652 68.5438 225.113 68.9384 225.453 69.4466C225.793 69.9548 225.98 70.5515 226.015 71.2368H223.686C223.621 70.794 223.447 70.4379 223.165 70.1684C222.887 69.8951 222.522 69.7584 222.07 69.7584C221.688 69.7584 221.354 69.8624 221.068 70.0703C220.786 70.2743 220.566 70.5727 220.408 70.9654C220.25 71.358 220.171 71.8335 220.171 72.3917C220.171 72.9577 220.248 73.4389 220.402 73.8354C220.561 74.232 220.783 74.5342 221.068 74.7421C221.354 74.95 221.688 75.0539 222.07 75.0539C222.352 75.0539 222.605 74.9962 222.829 74.8807C223.057 74.7652 223.244 74.5977 223.391 74.3782C223.542 74.155 223.64 73.8874 223.686 73.5756H226.015C225.976 74.2531 225.791 74.8499 225.459 75.3657C225.13 75.8778 224.677 76.2782 224.098 76.5669C223.518 76.8556 222.833 77 222.041 77Z" fill="white"/>
<path d="M234.997 70.486L232.738 70.6246C232.699 70.4321 232.616 70.2589 232.489 70.1049C232.361 69.9471 232.193 69.8219 231.985 69.7295C231.78 69.6333 231.535 69.5852 231.249 69.5852C230.867 69.5852 230.544 69.666 230.282 69.8277C230.019 69.9856 229.888 70.1973 229.888 70.4629C229.888 70.6747 229.973 70.8537 230.143 71C230.313 71.1463 230.604 71.2637 231.017 71.3523L232.628 71.6756C233.493 71.8527 234.137 72.1376 234.562 72.5303C234.987 72.923 235.199 73.4389 235.199 74.078C235.199 74.6593 235.027 75.1694 234.684 75.6083C234.344 76.0472 233.877 76.3898 233.282 76.6362C232.691 76.8787 232.01 77 231.238 77C230.06 77 229.122 76.7555 228.423 76.2666C227.728 75.7738 227.32 75.1039 227.201 74.257L229.627 74.1299C229.701 74.488 229.878 74.7613 230.16 74.95C230.442 75.1347 230.803 75.2271 231.243 75.2271C231.676 75.2271 232.023 75.1444 232.286 74.9788C232.552 74.8094 232.687 74.5919 232.691 74.3263C232.687 74.103 232.593 73.9201 232.408 73.7777C232.222 73.6314 231.936 73.5197 231.55 73.4427L230.01 73.1367C229.141 72.9634 228.494 72.6631 228.069 72.2358C227.648 71.8085 227.438 71.2637 227.438 70.6015C227.438 70.0318 227.592 69.5409 227.901 69.129C228.214 68.717 228.652 68.3994 229.216 68.1761C229.784 67.9528 230.448 67.8412 231.209 67.8412C232.332 67.8412 233.216 68.078 233.861 68.5515C234.51 69.025 234.888 69.6699 234.997 70.486Z" fill="white"/>
<defs>
<filter id="filter0_d_5117_22737" x="35.9023" y="0.616943" width="59.1836" height="59.1855" filterUnits="userSpaceOnUse" color-interpolation-filters="sRGB">
<feFlood flood-opacity="0" result="BackgroundImageFix"/>
<feColorMatrix in="SourceAlpha" type="matrix" values="0 0 0 0 0 0 0 0 0 0 0 0 0 0 0 0 0 0 127 0" result="hardAlpha"/>
<feOffset dx="-5" dy="5"/>
<feGaussianBlur stdDeviation="7.5"/>
<feComposite in2="hardAlpha" operator="out"/>
<feColorMatrix type="matrix" values="0 0 0 0 0 0 0 0 0 0 0 0 0 0 0 0 0 0 0.08 0"/>
<feBlend mode="normal" in2="BackgroundImageFix" result="effect1_dropShadow_5117_22737"/>
<feBlend mode="normal" in="SourceGraphic" in2="effect1_dropShadow_5117_22737" result="shape"/>
</filter>
<filter id="filter1_d_5117_22737" x="159.379" y="0.616943" width="59.1836" height="59.1855" filterUnits="userSpaceOnUse" color-interpolation-filters="sRGB">
<feFlood flood-opacity="0" result="BackgroundImageFix"/>
<feColorMatrix in="SourceAlpha" type="matrix" values="0 0 0 0 0 0 0 0 0 0 0 0 0 0 0 0 0 0 127 0" result="hardAlpha"/>
<feOffset dx="-5" dy="5"/>
<feGaussianBlur stdDeviation="7.5"/>
<feComposite in2="hardAlpha" operator="out"/>
<feColorMatrix type="matrix" values="0 0 0 0 0 0 0 0 0 0 0 0 0 0 0 0 0 0 0.08 0"/>
<feBlend mode="normal" in2="BackgroundImageFix" result="effect1_dropShadow_5117_22737"/>
<feBlend mode="normal" in="SourceGraphic" in2="effect1_dropShadow_5117_22737" result="shape"/>
</filter>
<filter id="filter2_d_5117_22737" x="96.7227" y="31.5977" width="101.496" height="79.0886" filterUnits="userSpaceOnUse" color-interpolation-filters="sRGB">
<feFlood flood-opacity="0" result="BackgroundImageFix"/>
<feColorMatrix in="SourceAlpha" type="matrix" values="0 0 0 0 0 0 0 0 0 0 0 0 0 0 0 0 0 0 127 0" result="hardAlpha"/>
<feOffset/>
<feGaussianBlur stdDeviation="12.5"/>
<feComposite in2="hardAlpha" operator="out"/>
<feColorMatrix type="matrix" values="0 0 0 0 0 0 0 0 0 0 0 0 0 0 0 0 0 0 0.1 0"/>
<feBlend mode="normal" in2="BackgroundImageFix" result="effect1_dropShadow_5117_22737"/>
<feBlend mode="normal" in="SourceGraphic" in2="effect1_dropShadow_5117_22737" result="shape"/>
</filter>
<filter id="filter3_d_5117_22737" x="222.605" y="0.616943" width="59.1836" height="59.1855" filterUnits="userSpaceOnUse" color-interpolation-filters="sRGB">
<feFlood flood-opacity="0" result="BackgroundImageFix"/>
<feColorMatrix in="SourceAlpha" type="matrix" values="0 0 0 0 0 0 0 0 0 0 0 0 0 0 0 0 0 0 127 0" result="hardAlpha"/>
<feOffset dx="-5" dy="5"/>
<feGaussianBlur stdDeviation="7.5"/>
<feComposite in2="hardAlpha" operator="out"/>
<feColorMatrix type="matrix" values="0 0 0 0 0 0 0 0 0 0 0 0 0 0 0 0 0 0 0.08 0"/>
<feBlend mode="normal" in2="BackgroundImageFix" result="effect1_dropShadow_5117_22737"/>
<feBlend mode="normal" in="SourceGraphic" in2="effect1_dropShadow_5117_22737" result="shape"/>
</filter>
<filter id="filter4_d_5117_22737" x="160.199" y="32" width="108" height="79" filterUnits="userSpaceOnUse" color-interpolation-filters="sRGB">
<feFlood flood-opacity="0" result="BackgroundImageFix"/>
<feColorMatrix in="SourceAlpha" type="matrix" values="0 0 0 0 0 0 0 0 0 0 0 0 0 0 0 0 0 0 127 0" result="hardAlpha"/>
<feOffset/>
<feGaussianBlur stdDeviation="12.5"/>
<feComposite in2="hardAlpha" operator="out"/>
<feColorMatrix type="matrix" values="0 0 0 0 0 0 0 0 0 0 0 0 0 0 0 0 0 0 0.1 0"/>
<feBlend mode="normal" in2="BackgroundImageFix" result="effect1_dropShadow_5117_22737"/>
<feBlend mode="normal" in="SourceGraphic" in2="effect1_dropShadow_5117_22737" result="shape"/>
</filter>
<clipPath id="clip0_5117_22737">
<rect width="40" height="41" fill="white" transform="translate(0.5 51)"/>
</clipPath>
</defs>
</svg>
