<svg width="235" height="101" viewBox="0 0 235 101" fill="none" xmlns="http://www.w3.org/2000/svg">
<path d="M38.5508 7.62387C38.5508 4.05477 41.4522 1.15918 45.034 1.15918L80.0713 1.15918C84.1023 1.15918 87.9724 2.75562 90.8139 5.61172C94.5996 9.417 96.424 11.3035 98.2519 13.1937L98.2732 13.2158C100.11 15.1154 101.958 17.0261 105.805 20.8922C108.659 23.7606 110.272 27.6368 110.272 31.6808V81.3535C110.272 84.9226 107.371 87.8182 103.789 87.8182H45.034C41.4522 87.8182 38.5508 84.9226 38.5508 81.3535V7.62387Z" fill="white" stroke="#D1D5DB"/>
<path d="M82.4722 17.1691L82.4531 0.840332C85.9763 1.26633 89.6577 3.65888 90.4667 4.54107L106.758 21.1649C109.383 24.0528 110.165 27.0071 110.533 28.9589L94.2649 28.9617C87.752 28.9617 82.4722 23.682 82.4722 17.1691Z" fill="white" stroke="#D1D5DB"/>
<path d="M47.8789 25.2273C47.8789 23.8161 49.0229 22.6722 50.434 22.6722H72.8401C74.2512 22.6722 75.3952 23.8161 75.3952 25.2273C75.3952 26.6384 74.2512 27.7824 72.8401 27.7824H50.434C49.0229 27.7824 47.8789 26.6384 47.8789 25.2273Z" fill="#F0F0F0"/>
<path d="M47.8789 15.7931C47.8789 14.382 49.0229 13.238 50.434 13.238H60.2612C61.6724 13.238 62.8163 14.382 62.8163 15.7931C62.8163 17.2043 61.6724 18.3482 60.2612 18.3482H50.434C49.0229 18.3482 47.8789 17.2043 47.8789 15.7931Z" fill="#F0F0F0"/>
<path d="M47.8789 34.858C47.8789 33.3383 49.1109 32.1064 50.6305 32.1064H72.6436C74.1633 32.1064 75.3952 33.3383 75.3952 34.858C75.3952 36.3777 74.1633 37.6096 72.6436 37.6096H50.6305C49.1109 37.6096 47.8789 36.3777 47.8789 34.858Z" fill="#F0F0F0"/>
<path d="M47.8789 44.2921C47.8789 42.7725 49.1109 41.5405 50.6305 41.5405H98.1944C99.7141 41.5405 100.946 42.7725 100.946 44.2921C100.946 45.8118 99.7141 47.0438 98.1944 47.0438H50.6305C49.1109 47.0438 47.8789 45.8118 47.8789 44.2921Z" fill="#F0F0F0"/>
<path d="M47.8789 53.7263C47.8789 52.2066 49.1109 50.9747 50.6305 50.9747H98.1944C99.7141 50.9747 100.946 52.2066 100.946 53.7263C100.946 55.246 99.7141 56.4779 98.1944 56.4779H50.6305C49.1109 56.4779 47.8789 55.246 47.8789 53.7263Z" fill="#F0F0F0"/>
<path d="M47.8789 63.357C47.8789 61.9459 49.0229 60.8019 50.434 60.8019H98.391C99.8021 60.8019 100.946 61.9459 100.946 63.357C100.946 64.7681 99.8021 65.9121 98.391 65.9121H50.434C49.0229 65.9121 47.8789 64.7681 47.8789 63.357Z" fill="#F0F0F0"/>
<path d="M47.8789 72.7912C47.8789 71.38 49.0229 70.2361 50.434 70.2361H98.391C99.8021 70.2361 100.946 71.38 100.946 72.7912C100.946 74.2023 99.8021 75.3462 98.391 75.3462H50.434C49.0229 75.3462 47.8789 74.2023 47.8789 72.7912Z" fill="#F0F0F0"/>
<g filter="url(#filter0_d_5117_22790)">
<rect x="25.5" y="40" width="35" height="35" rx="4" fill="#2563EB"/>
</g>
<path d="M48.5 53.2105V63.3158C48.4995 63.7623 48.3237 64.1904 48.0113 64.5061C47.6988 64.8219 47.2752 64.9995 46.8333 65H35.1667C34.062 64.9987 33.0029 64.5547 32.2218 63.7654C31.4407 62.976 31.0013 61.9058 31 60.7895V50.6842C31.0005 50.2377 31.1763 49.8096 31.4887 49.4939C31.8012 49.1781 32.2248 49.0005 32.6667 49H44.3333C45.438 49.0013 46.4971 49.4453 47.2782 50.2346C48.0593 51.024 48.4987 52.0942 48.5 53.2105ZM55.585 51.2191C55.4587 51.145 55.3154 51.1058 55.1695 51.1053C55.0235 51.1048 54.88 51.143 54.7533 51.2162L50.5866 53.6222C50.459 53.6959 50.353 53.8023 50.2792 53.9307C50.2055 54.0591 50.1667 54.2049 50.1667 54.3534V59.6466C50.1667 59.7951 50.2055 59.9409 50.2792 60.0693C50.353 60.1977 50.459 60.3041 50.5866 60.3778L54.7533 62.7838C54.88 62.857 55.0235 62.8952 55.1695 62.8947C55.3154 62.8942 55.4587 62.855 55.5849 62.7809C55.7112 62.7069 55.816 62.6007 55.8888 62.4729C55.9617 62.345 56 62.2001 56 62.0526V51.9474C56 51.7999 55.9617 51.655 55.8888 51.5271C55.816 51.3993 55.7112 51.2931 55.585 51.2191Z" fill="white"/>
<path fill-rule="evenodd" clip-rule="evenodd" d="M133.556 38.9281C134.155 38.3423 135.126 38.3423 135.724 38.9281L140.324 43.4281C140.923 44.0139 140.923 44.9636 140.324 45.5494L135.724 50.0494C135.126 50.6352 134.155 50.6352 133.556 50.0494C132.957 49.4636 132.957 48.5139 133.556 47.9281L135.538 45.9888H119.307C118.46 45.9888 117.773 45.3172 117.773 44.4888C117.773 43.6603 118.46 42.9888 119.307 42.9888H135.538L133.556 41.0494C132.957 40.4636 132.957 39.5139 133.556 38.9281Z" fill="#505050"/>
<path d="M162.027 7.62387C162.027 4.05477 164.929 1.15918 168.511 1.15918L203.548 1.15918C207.579 1.15918 211.449 2.75562 214.29 5.61172C218.076 9.417 219.901 11.3035 221.728 13.1937L221.75 13.2158C223.587 15.1154 225.435 17.0261 229.282 20.8922C232.136 23.7606 233.749 27.6368 233.749 31.6808V81.3535C233.749 84.9226 230.848 87.8182 227.266 87.8182H168.511C164.929 87.8182 162.027 84.9226 162.027 81.3535V7.62387Z" fill="white" stroke="#D1D5DB"/>
<path d="M205.949 17.1691L205.93 0.840332C209.453 1.26633 213.134 3.65888 213.943 4.54107L230.234 21.1649C232.859 24.0528 233.641 27.0071 234.009 28.9589L217.741 28.9617C211.229 28.9617 205.949 23.682 205.949 17.1691Z" fill="white" stroke="#D1D5DB"/>
<path d="M171.352 25.2273C171.352 23.8161 172.496 22.6722 173.907 22.6722H196.313C197.724 22.6722 198.868 23.8161 198.868 25.2273C198.868 26.6384 197.724 27.7824 196.313 27.7824H173.907C172.496 27.7824 171.352 26.6384 171.352 25.2273Z" fill="#F0F0F0"/>
<path d="M171.352 15.7931C171.352 14.382 172.496 13.238 173.907 13.238H183.734C185.145 13.238 186.289 14.382 186.289 15.7931C186.289 17.2043 185.145 18.3482 183.734 18.3482H173.907C172.496 18.3482 171.352 17.2043 171.352 15.7931Z" fill="#F0F0F0"/>
<path d="M171.352 34.858C171.352 33.3383 172.584 32.1064 174.103 32.1064H196.116C197.636 32.1064 198.868 33.3383 198.868 34.858C198.868 36.3777 197.636 37.6096 196.116 37.6096H174.103C172.584 37.6096 171.352 36.3777 171.352 34.858Z" fill="#F0F0F0"/>
<path d="M171.352 44.2921C171.352 42.7725 172.584 41.5405 174.103 41.5405H221.667C223.187 41.5405 224.419 42.7725 224.419 44.2921C224.419 45.8118 223.187 47.0438 221.667 47.0438H174.103C172.584 47.0438 171.352 45.8118 171.352 44.2921Z" fill="#F0F0F0"/>
<path d="M171.352 53.7263C171.352 52.2066 172.584 50.9747 174.103 50.9747H221.667C223.187 50.9747 224.419 52.2066 224.419 53.7263C224.419 55.246 223.187 56.4779 221.667 56.4779H174.103C172.584 56.4779 171.352 55.246 171.352 53.7263Z" fill="#F0F0F0"/>
<path d="M171.352 63.357C171.352 61.9459 172.496 60.8019 173.907 60.8019H221.864C223.275 60.8019 224.419 61.9459 224.419 63.357C224.419 64.7681 223.275 65.9121 221.864 65.9121H173.907C172.496 65.9121 171.352 64.7681 171.352 63.357Z" fill="#F0F0F0"/>
<path d="M171.352 72.7912C171.352 71.38 172.496 70.2361 173.907 70.2361H221.864C223.275 70.2361 224.419 71.38 224.419 72.7912C224.419 74.2023 223.275 75.3462 221.864 75.3462H173.907C172.496 75.3462 171.352 74.2023 171.352 72.7912Z" fill="#F0F0F0"/>
<g filter="url(#filter1_d_5117_22790)">
<rect x="147.773" y="46.2568" width="51.4948" height="29.0887" rx="4" fill="#2563EB"/>
</g>
<path d="M160.5 56.7291V54.6592H169.816V56.7291H166.343V66.5335H163.973V56.7291H160.5Z" fill="white"/>
<path d="M172.836 57.6278L174.398 60.7413L175.998 57.6278H178.419L175.954 62.0806L178.485 66.5335H176.076L174.398 63.4547L172.747 66.5335H170.31L172.836 62.0806L170.399 57.6278H172.836Z" fill="white"/>
<path d="M184.345 57.6278V59.4831H179.222V57.6278H184.345ZM180.385 55.4941H182.744V63.7968C182.744 64.0249 182.778 64.2027 182.844 64.3302C182.91 64.4539 183.003 64.5409 183.121 64.5912C183.243 64.6414 183.383 64.6665 183.542 64.6665C183.653 64.6665 183.763 64.6569 183.874 64.6375C183.985 64.6143 184.07 64.597 184.129 64.5854L184.5 66.4233C184.382 66.462 184.216 66.5064 184.002 66.5567C183.787 66.6108 183.527 66.6436 183.221 66.6552C182.652 66.6784 182.153 66.5992 181.725 66.4175C181.301 66.2359 180.97 65.9537 180.734 65.571C180.497 65.1883 180.381 64.7052 180.385 64.1215V55.4941Z" fill="white"/>
<defs>
<filter id="filter0_d_5117_22790" x="0.5" y="15" width="85" height="85" filterUnits="userSpaceOnUse" color-interpolation-filters="sRGB">
<feFlood flood-opacity="0" result="BackgroundImageFix"/>
<feColorMatrix in="SourceAlpha" type="matrix" values="0 0 0 0 0 0 0 0 0 0 0 0 0 0 0 0 0 0 127 0" result="hardAlpha"/>
<feOffset/>
<feGaussianBlur stdDeviation="12.5"/>
<feComposite in2="hardAlpha" operator="out"/>
<feColorMatrix type="matrix" values="0 0 0 0 0 0 0 0 0 0 0 0 0 0 0 0 0 0 0.1 0"/>
<feBlend mode="normal" in2="BackgroundImageFix" result="effect1_dropShadow_5117_22790"/>
<feBlend mode="normal" in="SourceGraphic" in2="effect1_dropShadow_5117_22790" result="shape"/>
</filter>
<filter id="filter1_d_5117_22790" x="122.773" y="21.2568" width="101.496" height="79.0886" filterUnits="userSpaceOnUse" color-interpolation-filters="sRGB">
<feFlood flood-opacity="0" result="BackgroundImageFix"/>
<feColorMatrix in="SourceAlpha" type="matrix" values="0 0 0 0 0 0 0 0 0 0 0 0 0 0 0 0 0 0 127 0" result="hardAlpha"/>
<feOffset/>
<feGaussianBlur stdDeviation="12.5"/>
<feComposite in2="hardAlpha" operator="out"/>
<feColorMatrix type="matrix" values="0 0 0 0 0 0 0 0 0 0 0 0 0 0 0 0 0 0 0.1 0"/>
<feBlend mode="normal" in2="BackgroundImageFix" result="effect1_dropShadow_5117_22790"/>
<feBlend mode="normal" in="SourceGraphic" in2="effect1_dropShadow_5117_22790" result="shape"/>
</filter>
</defs>
</svg>
