<svg width="182" height="99" viewBox="0 0 182 99" fill="none" xmlns="http://www.w3.org/2000/svg">
<path d="M12 17.9647C12 14.3956 14.9014 11.5 18.4832 11.5L53.5205 11.5C57.5515 11.5 61.4217 13.0964 64.2631 15.9525C68.0488 19.7578 69.8732 21.6444 71.7011 23.5346L71.7224 23.5566C73.5595 25.4562 75.4077 27.367 79.2544 31.233C82.1084 34.1014 83.7216 37.9776 83.7216 42.0217V91.6944C83.7216 95.2635 80.8203 98.159 77.2384 98.159H18.4832C14.9014 98.159 12 95.2635 12 91.6944V17.9647Z" fill="white" stroke="#D1D5DB"/>
<g filter="url(#filter0_d_5134_16395)">
<path d="M55.9214 27.5099L55.9023 11.1812C59.4255 11.6072 63.1069 13.9997 63.9159 14.8819L80.2071 31.5057C82.8319 34.3936 83.614 37.3479 83.9817 39.2997L67.7141 39.3026C61.2012 39.3026 55.9214 34.0228 55.9214 27.5099Z" fill="white"/>
<path d="M55.9214 27.5099L55.9023 11.1812C59.4255 11.6072 63.1069 13.9997 63.9159 14.8819L80.2071 31.5057C82.8319 34.3936 83.614 37.3479 83.9817 39.2997L67.7141 39.3026C61.2012 39.3026 55.9214 34.0228 55.9214 27.5099Z" stroke="#D1D5DB"/>
</g>
<path d="M21.3281 35.5681C21.3281 34.157 22.4721 33.013 23.8832 33.013H46.2893C47.7005 33.013 48.8444 34.157 48.8444 35.5681C48.8444 36.9792 47.7005 38.1232 46.2893 38.1232H23.8832C22.4721 38.1232 21.3281 36.9792 21.3281 35.5681Z" fill="#F0F0F0"/>
<path d="M21.3281 26.1339C21.3281 24.7228 22.4721 23.5789 23.8832 23.5789H33.7105C35.1216 23.5789 36.2655 24.7228 36.2655 26.1339C36.2655 27.5451 35.1216 28.689 33.7105 28.689H23.8832C22.4721 28.689 21.3281 27.5451 21.3281 26.1339Z" fill="#F0F0F0"/>
<path d="M21.3281 45.1988C21.3281 43.6791 22.5601 42.4472 24.0798 42.4472H46.0928C47.6125 42.4472 48.8444 43.6791 48.8444 45.1988C48.8444 46.7185 47.6125 47.9504 46.0928 47.9504H24.0798C22.5601 47.9504 21.3281 46.7185 21.3281 45.1988Z" fill="#F0F0F0"/>
<path d="M21.3281 54.633C21.3281 53.1133 22.5601 51.8813 24.0798 51.8813H71.6436C73.1633 51.8813 74.3953 53.1133 74.3953 54.633C74.3953 56.1526 73.1633 57.3846 71.6436 57.3846H24.0798C22.5601 57.3846 21.3281 56.1526 21.3281 54.633Z" fill="#F0F0F0"/>
<path d="M21.3281 64.0671C21.3281 62.5474 22.5601 61.3155 24.0798 61.3155H71.6436C73.1633 61.3155 74.3953 62.5474 74.3953 64.0671C74.3953 65.5868 73.1633 66.8187 71.6436 66.8187H24.0798C22.5601 66.8187 21.3281 65.5868 21.3281 64.0671Z" fill="#F0F0F0"/>
<path d="M21.3281 73.6978C21.3281 72.2867 22.4721 71.1427 23.8832 71.1427H71.8402C73.2513 71.1427 74.3953 72.2867 74.3953 73.6978C74.3953 75.109 73.2513 76.2529 71.8402 76.2529H23.8832C22.4721 76.2529 21.3281 75.109 21.3281 73.6978Z" fill="#F0F0F0"/>
<path d="M21.3281 83.132C21.3281 81.7208 22.4721 80.5769 23.8832 80.5769H71.8402C73.2513 80.5769 74.3953 81.7208 74.3953 83.132C74.3953 84.5431 73.2513 85.6871 71.8402 85.6871H23.8832C22.4721 85.6871 21.3281 84.5431 21.3281 83.132Z" fill="#F0F0F0"/>
<path d="M39.5862 62.6638C39.5862 62.6638 39.1723 59.6241 38 58.281C36.4827 56.5138 34.7586 56.5138 34 56.443C28.4138 56.019 20 55.9482 20 55.9482C20 55.9482 11.5862 56.019 6 56.443C5.24141 56.5138 3.51727 56.5845 2 58.281C0.758594 59.6241 0.413828 62.6638 0.413828 62.6638C0.413828 62.6638 0 66.269 0 69.8741V73.1966C0 76.8018 0.413828 80.3363 0.413828 80.3363C0.413828 80.3363 0.827656 83.376 2 84.719C3.51727 86.4863 5.51727 86.4156 6.41383 86.6277C9.58617 86.981 20 87.0517 20 87.0517C20 87.0517 28.4138 87.0517 34 86.5569C34.7586 86.4862 36.4827 86.4155 38 84.719C39.1724 83.3759 39.5862 80.3362 39.5862 80.3362C39.5862 80.3362 40 76.731 40 73.1965V69.8741C40 66.269 39.5862 62.6638 39.5862 62.6638Z" fill="#D8362A"/>
<path d="M15.1719 64.3604V79.7L28.2753 72.207L15.1719 64.3604Z" fill="white"/>
<path fill-rule="evenodd" clip-rule="evenodd" d="M107.005 49.2689C107.604 48.6831 108.575 48.6831 109.174 49.2689L113.774 53.7689C114.372 54.3547 114.372 55.3045 113.774 55.8903L109.174 60.3902C108.575 60.976 107.604 60.976 107.005 60.3902C106.406 59.8045 106.406 58.8547 107.005 58.2689L108.988 56.3296H92.756C91.9092 56.3296 91.2227 55.658 91.2227 54.8296C91.2227 54.0012 91.9092 53.3296 92.756 53.3296H108.988L107.005 51.3903C106.406 50.8045 106.406 49.8547 107.005 49.2689Z" fill="#505050"/>
<rect x="121.723" y="22.4944" width="59" height="55" rx="9.5" fill="white" stroke="#D1D5DB"/>
<rect x="128.5" y="70.6648" width="45" height="17" rx="4" fill="#2563EB"/>
<path d="M136.5 74.1331H139.11L141.867 80.673H141.984L144.741 74.1331H147.351V83.8669H145.298V77.5314H145.215L142.625 83.8194H141.227L138.636 77.5076H138.553V83.8669H136.5V74.1331Z" fill="white"/>
<path d="M149.095 83.8669V74.1331H153.044C153.804 74.1331 154.45 74.2741 154.985 74.5561C155.519 74.8349 155.927 75.2231 156.207 75.7205C156.49 76.2148 156.632 76.7852 156.632 77.4316C156.632 78.0779 156.489 78.6483 156.202 79.1426C155.915 79.6369 155.5 80.0219 154.956 80.2975C154.415 80.5732 153.76 80.711 152.991 80.711H150.473V79.0618H152.648C153.056 79.0618 153.391 78.9937 153.655 78.8574C153.923 78.718 154.121 78.5263 154.252 78.2823C154.385 78.0352 154.452 77.7516 154.452 77.4316C154.452 77.1084 154.385 76.8264 154.252 76.5856C154.121 76.3416 153.923 76.153 153.655 76.02C153.388 75.8837 153.049 75.8156 152.639 75.8156H151.211V83.8669H149.095Z" fill="white"/>
<path d="M161.648 84C160.918 84 160.268 83.878 159.698 83.634C159.131 83.3869 158.683 83.0478 158.354 82.6169C158.028 82.1828 157.86 81.6822 157.85 81.115H159.982C159.995 81.3527 160.074 81.5618 160.221 81.7424C160.371 81.9198 160.57 82.0577 160.817 82.1559C161.065 82.2541 161.344 82.3032 161.653 82.3032C161.976 82.3032 162.261 82.2478 162.509 82.1369C162.756 82.026 162.95 81.8723 163.09 81.6759C163.23 81.4794 163.3 81.2529 163.3 80.9962C163.3 80.7364 163.225 80.5067 163.076 80.307C162.929 80.1042 162.717 79.9458 162.44 79.8317C162.166 79.7177 161.841 79.6606 161.463 79.6606H160.529V78.1492H161.463C161.782 78.1492 162.064 78.0954 162.308 77.9876C162.556 77.8799 162.748 77.731 162.885 77.5409C163.022 77.3476 163.09 77.1226 163.09 76.866C163.09 76.622 163.03 76.4081 162.909 76.2243C162.792 76.0374 162.626 75.8916 162.411 75.7871C162.199 75.6825 161.951 75.6302 161.668 75.6302C161.381 75.6302 161.119 75.6809 160.881 75.7823C160.643 75.8805 160.452 76.0215 160.309 76.2053C160.166 76.3891 160.089 76.6046 160.079 76.8517H158.051C158.061 76.2909 158.225 75.7966 158.544 75.3688C158.864 74.9411 159.294 74.6068 159.835 74.366C160.379 74.122 160.993 74 161.678 74C162.368 74 162.973 74.122 163.491 74.366C164.009 74.6099 164.412 74.9395 164.698 75.3546C164.988 75.7665 165.132 76.2291 165.128 76.7424C165.132 77.2874 164.957 77.7421 164.605 78.1065C164.257 78.4708 163.802 78.7022 163.242 78.8004V78.8764C163.978 78.9683 164.539 79.217 164.923 79.6226C165.311 80.025 165.503 80.5288 165.5 81.134C165.503 81.6885 165.339 82.1812 165.006 82.6122C164.677 83.0431 164.223 83.3821 163.643 83.6293C163.063 83.8764 162.398 84 161.648 84Z" fill="white"/>
<path d="M142.5 52.4151V53.4772C142.5 54.3226 142.856 55.1334 143.489 55.7312C144.122 56.329 144.98 56.6648 145.875 56.6648H157.125C157.568 56.6648 158.007 56.5823 158.416 56.4222C158.826 56.262 159.198 56.0272 159.511 55.7312C159.825 55.4352 160.073 55.0838 160.243 54.6971C160.413 54.3103 160.5 53.8958 160.5 53.4772V52.4151M156.001 48.1642L151.5 52.4151M151.5 52.4151L147 48.1642M151.5 52.4151V39.6648" stroke="#030712" stroke-width="2" stroke-linecap="round" stroke-linejoin="round"/>
<defs>
<filter id="filter0_d_5134_16395" x="35.4023" y="0.616943" width="59.1836" height="59.1855" filterUnits="userSpaceOnUse" color-interpolation-filters="sRGB">
<feFlood flood-opacity="0" result="BackgroundImageFix"/>
<feColorMatrix in="SourceAlpha" type="matrix" values="0 0 0 0 0 0 0 0 0 0 0 0 0 0 0 0 0 0 127 0" result="hardAlpha"/>
<feOffset dx="-5" dy="5"/>
<feGaussianBlur stdDeviation="7.5"/>
<feComposite in2="hardAlpha" operator="out"/>
<feColorMatrix type="matrix" values="0 0 0 0 0 0 0 0 0 0 0 0 0 0 0 0 0 0 0.08 0"/>
<feBlend mode="normal" in2="BackgroundImageFix" result="effect1_dropShadow_5134_16395"/>
<feBlend mode="normal" in="SourceGraphic" in2="effect1_dropShadow_5134_16395" result="shape"/>
</filter>
</defs>
</svg>
